<?xml version="1.0" encoding="UTF-8" standalone="no"?>
<!-- Created with Inkscape (http://www.inkscape.org/) -->

<svg
   xmlns:dc="http://purl.org/dc/elements/1.1/"
   xmlns:cc="http://creativecommons.org/ns#"
   xmlns:rdf="http://www.w3.org/1999/02/22-rdf-syntax-ns#"
   xmlns:svg="http://www.w3.org/2000/svg"
   xmlns="http://www.w3.org/2000/svg"
   xmlns:sodipodi="http://sodipodi.sourceforge.net/DTD/sodipodi-0.dtd"
   xmlns:inkscape="http://www.inkscape.org/namespaces/inkscape"
   inkscape:version=""
   width="500mm"
   height="300mm"
   viewBox="0 0 500 300"
   version="1.1"
   id="svg8"
   sodipodi:docname="encounter-holder-10.svg">
  <sodipodi:namedview
     inkscape:measure-end="263.206,867.451"
     inkscape:measure-start="30.9921,867.451"
     id="base"
     pagecolor="#ffffff"
     bordercolor="#666666"
     borderopacity="1.0"
     inkscape:pageopacity="0.0"
     inkscape:pageshadow="2"
     inkscape:zoom="0.45254834"
     inkscape:cx="1221.1395"
     inkscape:cy="387.92123"
     inkscape:document-units="mm"
     inkscape:current-layer="layer1"
     showgrid="false"
     inkscape:window-width="1880"
     inkscape:window-height="1076"
     inkscape:window-x="18"
     inkscape:window-y="0"
     inkscape:window-maximized="1"
     showguides="true"
     inkscape:guide-bbox="true"
     inkscape:snap-bbox="true"
     inkscape:bbox-paths="true"
     inkscape:bbox-nodes="true"
     inkscape:snap-bbox-edge-midpoints="true"
     inkscape:snap-bbox-midpoints="true">
    <sodipodi:guide
       inkscape:color="rgb(0,0,255)"
       inkscape:label=""
       inkscape:locked="false"
       id="guide6093"
       orientation="0,1"
       position="0,5.0000001" />
    <sodipodi:guide
       inkscape:color="rgb(0,0,255)"
       inkscape:label=""
       inkscape:locked="false"
       id="guide6095"
       orientation="0,1"
       position="0,295" />
    <sodipodi:guide
       inkscape:color="rgb(0,0,255)"
       inkscape:label=""
       inkscape:locked="false"
       id="guide6099"
       orientation="1,0"
       position="495.00001,0" />
    <sodipodi:guide
       position="397.90853,48.36914"
       orientation="0,1"
       id="guide6664"
       inkscape:locked="false" />
    <sodipodi:guide
       position="5,0"
       orientation="1,0"
       id="guide6666"
       inkscape:locked="false"
       inkscape:label=""
       inkscape:color="rgb(0,0,255)" />
  </sodipodi:namedview>
  <defs
     id="defs2" />
  <metadata
     id="metadata5">
    <rdf:RDF>
      <cc:Work
         rdf:about="">
        <dc:format>image/svg+xml</dc:format>
        <dc:type
           rdf:resource="http://purl.org/dc/dcmitype/StillImage" />
        <dc:title></dc:title>
      </cc:Work>
    </rdf:RDF>
  </metadata>
  <path
     style="fill:none;stroke:#000000;stroke-width:3.77952766"
     d="M 47.076172 191.41797 L 47.076172 203.51172 L 28.189453 203.51172 L 28.189453 210.9668 L 40.283203 210.9668 L 40.283203 229.52344 L 28.189453 229.52344 L 28.189453 249.24219 L 40.283203 249.24219 L 40.283203 267.80078 L 28.189453 267.80078 L 28.189453 287.51953 L 40.283203 287.51953 L 40.283203 306.07617 L 28.189453 306.07617 L 28.189453 325.79492 L 40.283203 325.79492 L 40.283203 344.35156 L 28.189453 344.35156 L 28.189453 364.07227 L 40.283203 364.07227 L 40.283203 382.62891 L 28.189453 382.62891 L 28.189453 402.34766 L 40.283203 402.34766 L 40.283203 420.9043 L 28.189453 420.9043 L 28.189453 440.62305 L 40.283203 440.62305 L 40.283203 459.18164 L 28.189453 459.18164 L 28.189453 478.90039 L 40.283203 478.90039 L 40.283203 497.45703 L 28.189453 497.45703 L 28.189453 517.17578 L 40.283203 517.17578 L 40.283203 535.73438 L 28.189453 535.73438 L 28.189453 555.45312 L 40.283203 555.45312 L 40.283203 574.00977 L 28.189453 574.00977 L 28.189453 581.46484 L 47.076172 581.46484 L 66.314453 581.46484 L 67.523438 581.46484 A 88.501886 88.501886 0 0 1 67.511719 581.13867 A 88.501886 88.501886 0 0 1 156.01367 492.63672 A 88.501886 88.501886 0 0 1 244.51562 581.13867 A 88.501886 88.501886 0 0 1 244.5 581.46484 L 256.0918 581.46484 L 274.81055 581.46484 L 294.04883 581.46484 L 312.02344 581.46484 A 88.501885 88.501885 0 0 1 312.01172 581.13867 A 88.501885 88.501885 0 0 1 400.51367 492.63672 A 88.501885 88.501885 0 0 1 489.01562 581.13867 A 88.501885 88.501885 0 0 1 489 581.46484 L 502.54492 581.46484 L 521.78125 581.46484 L 540.5 581.46484 L 556.52344 581.46484 A 88.501884 88.501884 0 0 1 556.51172 581.13867 A 88.501884 88.501884 0 0 1 645.01367 492.63672 A 88.501884 88.501884 0 0 1 733.51562 581.13867 A 88.501884 88.501884 0 0 1 733.5 581.46484 L 749.51562 581.46484 L 768.23438 581.46484 L 787.4707 581.46484 L 801.02344 581.46484 A 88.501883 88.501883 0 0 1 801.01172 581.13867 A 88.501883 88.501883 0 0 1 889.51367 492.63672 A 88.501883 88.501883 0 0 1 978.01562 581.13867 A 88.501883 88.501883 0 0 1 978 581.46484 L 995.9668 581.46484 L 1015.2051 581.46484 L 1033.9219 581.46484 L 1045.5234 581.46484 A 88.501882 88.501882 0 0 1 1045.5117 581.13867 A 88.501882 88.501882 0 0 1 1134.0137 492.63672 A 88.501882 88.501882 0 0 1 1222.5156 581.13867 A 88.501882 88.501882 0 0 1 1222.5 581.46484 L 1223.7012 581.46484 L 1242.9395 581.46484 L 1261.8262 581.46484 L 1261.8262 574.00977 L 1249.7324 574.00977 L 1249.7324 555.45312 L 1261.8262 555.45312 L 1261.8262 535.73438 L 1249.7324 535.73438 L 1249.7324 517.17578 L 1261.8262 517.17578 L 1261.8262 497.45703 L 1249.7324 497.45703 L 1249.7324 478.90039 L 1261.8262 478.90039 L 1261.8262 459.18164 L 1249.7324 459.18164 L 1249.7324 440.62305 L 1261.8262 440.62305 L 1261.8262 420.9043 L 1249.7324 420.9043 L 1249.7324 402.34766 L 1261.8262 402.34766 L 1261.8262 382.62891 L 1249.7324 382.62891 L 1249.7324 364.07227 L 1261.8262 364.07227 L 1261.8262 344.35156 L 1249.7324 344.35156 L 1249.7324 325.79492 L 1261.8262 325.79492 L 1261.8262 306.07617 L 1249.7324 306.07617 L 1249.7324 287.51953 L 1261.8262 287.51953 L 1261.8262 267.80078 L 1249.7324 267.80078 L 1249.7324 249.24219 L 1261.8262 249.24219 L 1261.8262 229.52344 L 1249.7324 229.52344 L 1249.7324 210.9668 L 1261.8262 210.9668 L 1261.8262 203.51172 L 1242.9395 203.51172 L 1242.9395 191.41797 L 1223.7012 191.41797 L 1223.7012 203.51172 L 1204.9824 203.51172 L 1204.9824 191.41797 L 1185.7461 191.41797 L 1185.7461 203.51172 L 1167.0273 203.51172 L 1167.0273 191.41797 L 1147.7891 191.41797 L 1147.7891 203.51172 L 1129.0723 203.51172 L 1129.0723 191.41797 L 1109.834 191.41797 L 1109.834 203.51172 L 1091.1152 203.51172 L 1091.1152 191.41797 L 1071.8789 191.41797 L 1071.8789 203.51172 L 1053.1602 203.51172 L 1053.1602 191.41797 L 1033.9219 191.41797 L 1033.9219 203.51172 L 1015.2051 203.51172 L 1015.2051 191.41797 L 995.9668 191.41797 L 995.9668 203.51172 L 977.25 203.51172 L 977.25 191.41797 L 958.01172 191.41797 L 958.01172 203.51172 L 939.29297 203.51172 L 939.29297 191.41797 L 920.05664 191.41797 L 920.05664 203.51172 L 901.33789 203.51172 L 901.33789 191.41797 L 882.09961 191.41797 L 882.09961 203.51172 L 863.38281 203.51172 L 863.38281 191.41797 L 844.14453 191.41797 L 844.14453 203.51172 L 825.42773 203.51172 L 825.42773 191.41797 L 806.18945 191.41797 L 806.18945 203.51172 L 787.4707 203.51172 L 787.4707 191.41797 L 768.23438 191.41797 L 768.23438 203.51172 L 749.51562 203.51172 L 749.51562 191.41797 L 730.27734 191.41797 L 730.27734 203.51172 L 711.56055 203.51172 L 711.56055 191.41797 L 692.32227 191.41797 L 692.32227 203.51172 L 673.60352 203.51172 L 673.60352 191.41797 L 654.36719 191.41797 L 654.36719 203.51172 L 635.64844 203.51172 L 635.64844 191.41797 L 616.41016 191.41797 L 616.41016 203.51172 L 597.69336 203.51172 L 597.69336 191.41797 L 578.45508 191.41797 L 578.45508 203.51172 L 559.73828 203.51172 L 559.73828 191.41797 L 540.5 191.41797 L 540.5 203.51172 L 521.78125 203.51172 L 521.78125 191.41797 L 502.54492 191.41797 L 502.54492 203.51172 L 483.82617 203.51172 L 483.82617 191.41797 L 464.58789 191.41797 L 464.58789 203.51172 L 445.87109 203.51172 L 445.87109 191.41797 L 426.63281 191.41797 L 426.63281 203.51172 L 407.91406 203.51172 L 407.91406 191.41797 L 388.67773 191.41797 L 388.67773 203.51172 L 369.95898 203.51172 L 369.95898 191.41797 L 350.7207 191.41797 L 350.7207 203.51172 L 332.00391 203.51172 L 332.00391 191.41797 L 312.76562 191.41797 L 312.76562 203.51172 L 294.04883 203.51172 L 294.04883 191.41797 L 274.81055 191.41797 L 274.81055 203.51172 L 256.0918 203.51172 L 256.0918 191.41797 L 236.85547 191.41797 L 236.85547 203.51172 L 218.13672 203.51172 L 218.13672 191.41797 L 198.89844 191.41797 L 198.89844 203.51172 L 180.18164 203.51172 L 180.18164 191.41797 L 160.94336 191.41797 L 160.94336 203.51172 L 142.22656 203.51172 L 142.22656 191.41797 L 122.98828 191.41797 L 122.98828 203.51172 L 104.26953 203.51172 L 104.26953 191.41797 L 85.033203 191.41797 L 85.033203 203.51172 L 66.314453 203.51172 L 66.314453 191.41797 L 47.076172 191.41797 z M 272.49805 210.9668 L 284.5918 210.9668 L 284.5918 229.52344 L 272.49805 229.52344 L 272.49805 210.9668 z M 516.80664 210.9668 L 528.90039 210.9668 L 528.90039 229.52344 L 516.80664 229.52344 L 516.80664 210.9668 z M 761.11523 210.9668 L 773.20898 210.9668 L 773.20898 229.52344 L 761.11523 229.52344 L 761.11523 210.9668 z M 1005.4238 210.9668 L 1017.5176 210.9668 L 1017.5176 229.52344 L 1005.4238 229.52344 L 1005.4238 210.9668 z M 272.49805 249.24219 L 284.5918 249.24219 L 284.5918 267.80078 L 272.49805 267.80078 L 272.49805 249.24219 z M 516.80664 249.24219 L 528.90039 249.24219 L 528.90039 267.80078 L 516.80664 267.80078 L 516.80664 249.24219 z M 761.11523 249.24219 L 773.20898 249.24219 L 773.20898 267.80078 L 761.11523 267.80078 L 761.11523 249.24219 z M 1005.4238 249.24219 L 1017.5176 249.24219 L 1017.5176 267.80078 L 1005.4238 267.80078 L 1005.4238 249.24219 z M 272.49805 287.51953 L 284.5918 287.51953 L 284.5918 306.07617 L 272.49805 306.07617 L 272.49805 287.51953 z M 516.80664 287.51953 L 528.90039 287.51953 L 528.90039 306.07617 L 516.80664 306.07617 L 516.80664 287.51953 z M 761.11523 287.51953 L 773.20898 287.51953 L 773.20898 306.07617 L 761.11523 306.07617 L 761.11523 287.51953 z M 1005.4238 287.51953 L 1017.5176 287.51953 L 1017.5176 306.07617 L 1005.4238 306.07617 L 1005.4238 287.51953 z M 272.49805 325.79492 L 284.5918 325.79492 L 284.5918 344.35156 L 272.49805 344.35156 L 272.49805 325.79492 z M 516.80664 325.79492 L 528.90039 325.79492 L 528.90039 344.35156 L 516.80664 344.35156 L 516.80664 325.79492 z M 761.11523 325.79492 L 773.20898 325.79492 L 773.20898 344.35156 L 761.11523 344.35156 L 761.11523 325.79492 z M 1005.4238 325.79492 L 1017.5176 325.79492 L 1017.5176 344.35156 L 1005.4238 344.35156 L 1005.4238 325.79492 z M 272.49805 364.07227 L 284.5918 364.07227 L 284.5918 382.62891 L 272.49805 382.62891 L 272.49805 364.07227 z M 516.80664 364.07227 L 528.90039 364.07227 L 528.90039 382.62891 L 516.80664 382.62891 L 516.80664 364.07227 z M 761.11523 364.07227 L 773.20898 364.07227 L 773.20898 382.62891 L 761.11523 382.62891 L 761.11523 364.07227 z M 1005.4238 364.07227 L 1017.5176 364.07227 L 1017.5176 382.62891 L 1005.4238 382.62891 L 1005.4238 364.07227 z M 272.49805 402.34766 L 284.5918 402.34766 L 284.5918 420.9043 L 272.49805 420.9043 L 272.49805 402.34766 z M 516.80664 402.34766 L 528.90039 402.34766 L 528.90039 420.9043 L 516.80664 420.9043 L 516.80664 402.34766 z M 761.11523 402.34766 L 773.20898 402.34766 L 773.20898 420.9043 L 761.11523 420.9043 L 761.11523 402.34766 z M 1005.4238 402.34766 L 1017.5176 402.34766 L 1017.5176 420.9043 L 1005.4238 420.9043 L 1005.4238 402.34766 z M 272.49805 440.62305 L 284.5918 440.62305 L 284.5918 459.18164 L 272.49805 459.18164 L 272.49805 440.62305 z M 516.80664 440.62305 L 528.90039 440.62305 L 528.90039 459.18164 L 516.80664 459.18164 L 516.80664 440.62305 z M 761.11523 440.62305 L 773.20898 440.62305 L 773.20898 459.18164 L 761.11523 459.18164 L 761.11523 440.62305 z M 1005.4238 440.62305 L 1017.5176 440.62305 L 1017.5176 459.18164 L 1005.4238 459.18164 L 1005.4238 440.62305 z M 272.49805 478.90039 L 284.5918 478.90039 L 284.5918 497.45703 L 272.49805 497.45703 L 272.49805 478.90039 z M 516.80664 478.90039 L 528.90039 478.90039 L 528.90039 497.45703 L 516.80664 497.45703 L 516.80664 478.90039 z M 761.11523 478.90039 L 773.20898 478.90039 L 773.20898 497.45703 L 761.11523 497.45703 L 761.11523 478.90039 z M 1005.4238 478.90039 L 1017.5176 478.90039 L 1017.5176 497.45703 L 1005.4238 497.45703 L 1005.4238 478.90039 z M 272.49805 517.17578 L 284.5918 517.17578 L 284.5918 535.73438 L 272.49805 535.73438 L 272.49805 517.17578 z M 516.80664 517.17578 L 528.90039 517.17578 L 528.90039 535.73438 L 516.80664 535.73438 L 516.80664 517.17578 z M 761.11523 517.17578 L 773.20898 517.17578 L 773.20898 535.73438 L 761.11523 535.73438 L 761.11523 517.17578 z M 1005.4238 517.17578 L 1017.5176 517.17578 L 1017.5176 535.73438 L 1005.4238 535.73438 L 1005.4238 517.17578 z M 272.49805 555.45312 L 284.5918 555.45312 L 284.5918 574.00977 L 272.49805 574.00977 L 272.49805 555.45312 z M 516.80664 555.45312 L 528.90039 555.45312 L 528.90039 574.00977 L 516.80664 574.00977 L 516.80664 555.45312 z M 761.11523 555.45312 L 773.20898 555.45312 L 773.20898 574.00977 L 761.11523 574.00977 L 761.11523 555.45312 z M 1005.4238 555.45312 L 1017.5176 555.45312 L 1017.5176 574.00977 L 1005.4238 574.00977 L 1005.4238 555.45312 z "
     transform="scale(0.26458333)"
     id="path6104" />
  <path
     style="fill:none;stroke:#000000;stroke-width:3.77952766"
     d="M 28.125 594.4668 L 28.125 601.92188 L 40.21875 601.92188 L 40.21875 620.47852 L 28.125 620.47852 L 28.125 640.19727 L 40.21875 640.19727 L 40.21875 658.75586 L 28.125 658.75586 L 28.125 678.47461 L 40.21875 678.47461 L 40.21875 697.03125 L 28.125 697.03125 L 28.125 716.75 L 40.21875 716.75 L 40.21875 735.30859 L 28.125 735.30859 L 28.125 755.02734 L 40.21875 755.02734 L 40.21875 773.58398 L 28.125 773.58398 L 28.125 793.30273 L 40.21875 793.30273 L 40.21875 811.86133 L 28.125 811.86133 L 28.125 831.58008 L 40.21875 831.58008 L 40.21875 850.13672 L 28.125 850.13672 L 28.125 869.85547 L 40.21875 869.85547 L 40.21875 888.41406 L 28.125 888.41406 L 28.125 908.13281 L 40.21875 908.13281 L 40.21875 926.68945 L 28.125 926.68945 L 28.125 946.4082 L 40.21875 946.4082 L 40.21875 964.9668 L 28.125 964.9668 L 28.125 972.41992 L 47.013672 972.41992 L 47.013672 984.51562 L 66.25 984.51562 L 66.25 972.41992 L 84.96875 972.41992 L 84.96875 984.51562 L 104.20703 984.51562 L 104.20703 972.41992 L 122.92383 972.41992 L 122.92383 984.51562 L 142.16211 984.51562 L 142.16211 972.41992 L 160.87891 972.41992 L 160.87891 984.51562 L 180.11719 984.51562 L 180.11719 972.41992 L 198.83594 972.41992 L 198.83594 984.51562 L 218.07227 984.51562 L 218.07227 972.41992 L 236.79102 972.41992 L 236.79102 984.51562 L 256.0293 984.51562 L 256.0293 972.41992 L 274.74609 972.41992 L 274.74609 984.51562 L 293.98438 984.51562 L 293.98438 972.41992 L 312.70312 972.41992 L 312.70312 984.51562 L 331.93945 984.51562 L 331.93945 972.41992 L 350.6582 972.41992 L 350.6582 984.51562 L 369.89648 984.51562 L 369.89648 972.41992 L 388.61328 972.41992 L 388.61328 984.51562 L 407.85156 984.51562 L 407.85156 972.41992 L 426.56836 972.41992 L 426.56836 984.51562 L 445.80664 984.51562 L 445.80664 972.41992 L 464.52539 972.41992 L 464.52539 984.51562 L 483.76172 984.51562 L 483.76172 972.41992 L 502.48047 972.41992 L 502.48047 984.51562 L 521.71875 984.51562 L 521.71875 972.41992 L 540.43555 972.41992 L 540.43555 984.51562 L 559.67383 984.51562 L 559.67383 972.41992 L 578.39062 972.41992 L 578.39062 984.51562 L 597.62891 984.51562 L 597.62891 972.41992 L 616.34766 972.41992 L 616.34766 984.51562 L 635.58594 984.51562 L 635.58594 972.41992 L 654.30273 972.41992 L 654.30273 984.51562 L 673.54102 984.51562 L 673.54102 972.41992 L 692.25781 972.41992 L 692.25781 984.51562 L 711.49609 984.51562 L 711.49609 972.41992 L 730.21484 972.41992 L 730.21484 984.51562 L 749.45117 984.51562 L 749.45117 972.41992 L 768.16992 972.41992 L 768.16992 984.51562 L 787.4082 984.51562 L 787.4082 972.41992 L 806.125 972.41992 L 806.125 984.51562 L 825.36328 984.51562 L 825.36328 972.41992 L 844.08008 972.41992 L 844.08008 984.51562 L 863.31836 984.51562 L 863.31836 972.41992 L 882.03711 972.41992 L 882.03711 984.51562 L 901.27344 984.51562 L 901.27344 972.41992 L 919.99219 972.41992 L 919.99219 984.51562 L 939.23047 984.51562 L 939.23047 972.41992 L 957.94727 972.41992 L 957.94727 984.51562 L 977.18555 984.51562 L 977.18555 972.41992 L 995.9043 972.41992 L 995.9043 984.51562 L 1015.1406 984.51562 L 1015.1406 972.41992 L 1033.8594 972.41992 L 1033.8594 984.51562 L 1053.0977 984.51562 L 1053.0977 972.41992 L 1071.8145 972.41992 L 1071.8145 984.51562 L 1091.0527 984.51562 L 1091.0527 972.41992 L 1109.7695 972.41992 L 1109.7695 984.51562 L 1129.0078 984.51562 L 1129.0078 972.41992 L 1147.7266 972.41992 L 1147.7266 984.51562 L 1166.9629 984.51562 L 1166.9629 972.41992 L 1185.6816 972.41992 L 1185.6816 984.51562 L 1204.9199 984.51562 L 1204.9199 972.41992 L 1223.6367 972.41992 L 1223.6367 984.51562 L 1242.875 984.51562 L 1242.875 972.41992 L 1261.7637 972.41992 L 1261.7637 964.9668 L 1249.668 964.9668 L 1249.668 946.4082 L 1261.7637 946.4082 L 1261.7637 926.68945 L 1249.668 926.68945 L 1249.668 908.13281 L 1261.7637 908.13281 L 1261.7637 888.41406 L 1249.668 888.41406 L 1249.668 869.85547 L 1261.7637 869.85547 L 1261.7637 850.13672 L 1249.668 850.13672 L 1249.668 831.58008 L 1261.7637 831.58008 L 1261.7637 811.86133 L 1249.668 811.86133 L 1249.668 793.30273 L 1261.7637 793.30273 L 1261.7637 773.58398 L 1249.668 773.58398 L 1249.668 755.02734 L 1261.7637 755.02734 L 1261.7637 735.30859 L 1249.668 735.30859 L 1249.668 716.75 L 1261.7637 716.75 L 1261.7637 697.03125 L 1249.668 697.03125 L 1249.668 678.47461 L 1261.7637 678.47461 L 1261.7637 658.75586 L 1249.668 658.75586 L 1249.668 640.19727 L 1261.7637 640.19727 L 1261.7637 620.47852 L 1249.668 620.47852 L 1249.668 601.92188 L 1261.7637 601.92188 L 1261.7637 594.4668 L 1242.875 594.4668 L 1223.6367 594.4668 L 1222.4492 594.4668 A 88.501883 88.501883 0 0 1 1222.5156 596.35742 A 88.501883 88.501883 0 0 1 1134.0137 684.85938 A 88.501883 88.501883 0 0 1 1045.5117 596.35742 A 88.501883 88.501883 0 0 1 1045.6074 594.4668 L 1033.8594 594.4668 L 1017.4551 594.4668 L 1017.4551 783.27344 L 1005.3594 783.27344 L 1005.3594 594.4668 L 995.9043 594.4668 L 977.94922 594.4668 A 88.501882 88.501882 0 0 1 978.01562 596.35742 A 88.501882 88.501882 0 0 1 889.51367 684.85938 A 88.501882 88.501882 0 0 1 801.01172 596.35742 A 88.501882 88.501882 0 0 1 801.10742 594.4668 L 787.4082 594.4668 L 773.14453 594.4668 L 773.14453 783.27344 L 761.05078 783.27344 L 761.05078 594.4668 L 749.45117 594.4668 L 733.44922 594.4668 A 88.501881 88.501881 0 0 1 733.51562 596.35742 A 88.501881 88.501881 0 0 1 645.01367 684.85938 A 88.501881 88.501881 0 0 1 556.51172 596.35742 A 88.501881 88.501881 0 0 1 556.60742 594.4668 L 540.43555 594.4668 L 528.83594 594.4668 L 528.83594 783.27344 L 516.74219 783.27344 L 516.74219 594.4668 L 502.48047 594.4668 L 488.94922 594.4668 A 88.50188 88.50188 0 0 1 489.01562 596.35742 A 88.50188 88.50188 0 0 1 400.51367 684.85938 A 88.50188 88.50188 0 0 1 312.01172 596.35742 A 88.50188 88.50188 0 0 1 312.10742 594.4668 L 293.98438 594.4668 L 284.52734 594.4668 L 284.52734 783.27344 L 272.43359 783.27344 L 272.43359 594.4668 L 256.0293 594.4668 L 244.44922 594.4668 A 88.501879 88.501879 0 0 1 244.51562 596.35742 A 88.501879 88.501879 0 0 1 156.01367 684.85938 A 88.501879 88.501879 0 0 1 67.511719 596.35742 A 88.501879 88.501879 0 0 1 67.607422 594.4668 L 66.25 594.4668 L 47.013672 594.4668 L 28.125 594.4668 z "
     transform="scale(0.26458333)"
     id="path6122" />
  <g
     transform="translate(0,3)"
     inkscape:label="Layer 1"
     inkscape:groupmode="layer"
     id="layer1">
    <path
       style="color:#000000;display:inline;overflow:visible;visibility:visible;fill:none;fill-rule:evenodd;stroke:#000000;stroke-width:3.77952766;stroke-linecap:butt;stroke-linejoin:miter;stroke-miterlimit:4;stroke-dasharray:none;stroke-dashoffset:0;stroke-opacity:1;marker:none;marker-start:none;marker-mid:none;marker-end:none;enable-background:accumulate"
       d="M 1566.498 537.75586 L 1566.498 544.87109 L 1554.4043 544.87109 L 1464.1836 569.35938 L 1554.4043 908.5957 L 1566.498 908.5957 L 1566.498 915.70898 L 1574.1895 915.70898 L 1574.1895 927.80469 L 1593.4277 927.80469 L 1593.4277 915.70898 L 1613.043 915.70898 L 1613.043 927.80469 L 1632.2812 927.80469 L 1632.2812 915.70898 L 1636.041 915.70898 L 1636.041 908.5957 L 1648.1367 908.5957 L 1648.1367 915.70898 L 1651.8965 915.70898 L 1651.8965 927.80469 L 1671.1348 927.80469 L 1671.1348 915.70898 L 1690.75 915.70898 L 1690.75 927.80469 L 1709.9883 927.80469 L 1709.9883 915.70898 L 1717.6797 915.70898 L 1717.6797 908.5957 L 1717.6797 889.35742 L 1717.6797 870.31836 L 1717.6797 851.08008 L 1717.6797 832.04297 L 1717.6797 812.80469 L 1717.6797 793.76562 L 1717.6797 774.5293 L 1717.6797 755.49023 L 1717.6797 736.25195 L 1717.6797 717.21289 L 1717.6797 697.97656 L 1717.6797 678.9375 L 1717.6797 659.69922 L 1717.6797 640.66016 L 1717.6797 621.42383 L 1717.6797 602.38477 L 1717.6797 583.14648 L 1717.6797 565.67188 C 1717.6797 550.25431 1705.1812 537.75586 1689.7637 537.75586 L 1671.1348 537.75586 L 1651.8965 537.75586 L 1648.1367 537.75586 L 1648.1367 544.87109 L 1636.041 544.87109 L 1636.041 537.75586 L 1632.2812 537.75586 L 1613.043 537.75586 L 1593.4277 537.75586 L 1574.1895 537.75586 L 1566.498 537.75586 z M 1554.498 564.10742 L 1566.5918 564.10742 L 1566.5918 582.66602 L 1554.498 582.66602 L 1554.498 564.10742 z M 1636.041 564.10742 L 1648.1367 564.10742 L 1648.1367 583.14648 L 1636.041 583.14648 L 1636.041 564.10742 z M 1554.498 602.38477 L 1566.5918 602.38477 L 1566.5918 620.94141 L 1554.498 620.94141 L 1554.498 602.38477 z M 1636.041 602.38477 L 1648.1367 602.38477 L 1648.1367 621.42383 L 1636.041 621.42383 L 1636.041 602.38477 z M 1554.498 640.66016 L 1566.5918 640.66016 L 1566.5918 659.21875 L 1554.498 659.21875 L 1554.498 640.66016 z M 1636.041 640.66016 L 1648.1367 640.66016 L 1648.1367 659.69922 L 1636.041 659.69922 L 1636.041 640.66016 z M 1554.498 678.9375 L 1566.5918 678.9375 L 1566.5918 697.49414 L 1554.498 697.49414 L 1554.498 678.9375 z M 1636.041 678.9375 L 1648.1367 678.9375 L 1648.1367 697.97656 L 1636.041 697.97656 L 1636.041 678.9375 z M 1554.498 717.21289 L 1566.5918 717.21289 L 1566.5918 735.77148 L 1554.498 735.77148 L 1554.498 717.21289 z M 1636.041 717.21289 L 1648.1367 717.21289 L 1648.1367 736.25195 L 1636.041 736.25195 L 1636.041 717.21289 z M 1554.498 755.49023 L 1566.5918 755.49023 L 1566.5918 774.04688 L 1554.498 774.04688 L 1554.498 755.49023 z M 1636.041 755.49023 L 1648.1367 755.49023 L 1648.1367 774.5293 L 1636.041 774.5293 L 1636.041 755.49023 z M 1554.498 793.76562 L 1566.5918 793.76562 L 1566.5918 812.32422 L 1554.498 812.32422 L 1554.498 793.76562 z M 1636.041 793.76562 L 1648.1367 793.76562 L 1648.1367 812.80469 L 1636.041 812.80469 L 1636.041 793.76562 z M 1554.498 832.04297 L 1566.5918 832.04297 L 1566.5918 850.59961 L 1554.498 850.59961 L 1554.498 832.04297 z M 1636.041 832.04297 L 1648.1367 832.04297 L 1648.1367 851.08008 L 1636.041 851.08008 L 1636.041 832.04297 z M 1554.498 870.31836 L 1566.5918 870.31836 L 1566.5918 888.87695 L 1554.498 888.87695 L 1554.498 870.31836 z M 1636.041 870.31836 L 1648.1367 870.31836 L 1648.1367 889.35742 L 1636.041 889.35742 L 1636.041 870.31836 z "
       transform="matrix(0.26458333,0,0,0.26458333,0,-3)"
       id="path1171" />
    <path
       style="font-size:12px;fill-rule:evenodd;stroke-width:0.0967246pt"
       id="path1195"
       d="m 196.62805,215.54046 c -1.79727,-4.3648 -5.94517,-10.89739 -9.5304,-14.97116 l -0.39294,1.469 c 1.70648,2.14411 3.39535,5.19539 4.38888,7.61102 -2.88821,-1.41213 -7.65436,-2.77614 -8.84426,-3.07403 -4.0069,-1.08418 -9.78868,-1.97987 -14.016,-2.20653 -1.10109,-1.17701 -1.6305,-2.40668 -2.30628,-3.52742 l -0.87052,0.73752 c 0.65854,0.87166 1.94939,2.86211 3.44581,4.68812 1.55987,1.98156 5.03709,5.98238 8.89867,8.71126 2.08794,-2.40916 3.22853,-3.8371 4.81205,-6.6347 l -2.08562,-0.38992 c -0.39424,0.71027 -0.85843,1.45771 -1.3209,2.1491 l -1.15767,-0.44433 0.25994,1.70175 c -0.1152,0.15133 -0.23424,0.31601 -0.34155,0.44735 -3.30331,-1.72846 -6.22846,-4.03525 -8.47248,-6.34151 8.32964,-0.03 19.25876,3.20874 27.53327,10.07448 z m -7.47198,-7.88911 -2.18537,-3.53951 -0.94306,0.35365 z m -40.04399,-1.22113 c 6.75621,-0.52374 9.19394,-1.27467 16.75452,-1.27557 l -0.52897,-0.79797 c -2.19959,-0.30472 -4.48508,-0.60578 -6.29314,-0.72543 1.66867,-1.00121 4.89774,-3.02299 6.27199,-3.83876 2.4478,-1.40386 6.78425,-4.0348 10.17724,-6.91884 3.09274,1.67161 5.47047,3.84186 8.23066,6.12085 l 0.2267,-1.0277 c -2.64081,-3.26849 -6.91725,-6.51616 -12.1329,-9.87498 -5.23805,-3.26228 -11.43304,-5.45929 -16.11069,-5.98482 2.30245,6.59343 4.13275,11.60663 6.43521,16.20137 l 1.87102,-0.7073 c -1.91673,-3.98423 -3.78837,-7.84459 -4.9783,-11.73995 1.37782,0.0726 3.18622,0.66436 4.78182,1.14558 -1.49835,-0.96798 -2.71287,-1.36746 -3.74505,-1.99192 2.50331,0.43401 6.82619,2.25344 9.25231,3.77225 l -4.36772,-1.3632 c 1.93277,1.1452 3.46439,2.0684 5.32288,3.50626 0.31654,-0.24569 0.62419,-0.58526 0.94911,-1.05188 0.68358,0.2234 2.85634,2.01728 3.28259,2.29721 -3.21116,2.59515 -6.2276,4.66099 -9.34904,6.36568 -3.05275,1.69398 -10.21178,5.31045 -16.05024,7.88912 z m 34.31608,-0.3718 c 0.77282,-1.20107 2.18228,-4.96961 2.84129,-6.77979 1.76314,-4.77871 2.83052,-13.85825 1.87404,-20.88647 -0.32443,-0.0856 -1.00251,-0.64282 -1.32694,-0.72846 -3.51921,4.88582 -6.10396,8.47172 -9.67248,11.89713 l 1.27254,1.10628 c 2.32624,-1.93234 5.40049,-5.00508 7.93746,-8.08255 0.14402,1.70075 -0.049,3.82487 -0.29017,5.57376 0.54566,-0.67432 1.09133,-2.07088 1.3481,-2.88965 0.0642,2.00683 -0.30492,3.9655 -0.67405,5.87602 -0.27199,-0.48804 -0.6071,-0.84376 -0.8947,-1.20906 0.0699,2.33039 -0.5053,8.65135 -0.8131,9.80547 -0.43509,1.76988 -1.5002,4.04756 -2.28814,5.79744 z m -6.78281,-1.23928 c -0.69444,-1.07063 -1.05072,-2.86618 -0.47155,-3.9506 0.26613,-0.47598 0.26395,-0.95098 0.0695,-1.39948 l -1.01259,1.10326 0.44131,-1.90426 c -0.41546,-0.4186 -0.97849,-0.79401 -1.62014,-1.10327 0.0402,0.81209 0.36613,1.12734 -0.29622,1.8287 -0.54462,0.52818 -1.59443,0.93118 -0.0574,2.06447 0.44032,0.33762 0.7351,1.21065 1.00049,1.71081 0.60922,1.20719 1.41716,1.46843 1.94659,1.65037 z m -4.83623,-1.49924 c 0.66129,-0.0115 1.31357,-0.0544 1.87404,-0.0937 l -0.25693,-0.73752 c -1.0698,0.10543 -4.34201,-0.19108 -4.22566,-0.97329 0.10655,-0.77037 2.78557,-2.2637 4.31935,-2.57831 l -0.0725,-0.48665 c -1.92723,0.37365 -5.74235,2.13696 -5.72187,3.30376 0.0233,1.36692 2.09972,1.60019 4.0836,1.56572 z m 5.01455,-0.801 c 1.92724,-0.37363 6.04888,-1.72309 6.01809,-2.88964 -0.031,-1.11461 -4.01074,-1.39639 -5.95763,-1.47505 l 0.37481,0.97329 c 1.0698,-0.10544 4.11711,0.36397 4.10777,0.73752 -0.0103,0.41307 -3.08179,1.85261 -4.61558,2.16724 z m 5.19292,-9.91124 0.7073,-0.0574 0.0605,-2.42114 z m -18.99732,-0.0574 c 0.31465,-0.15732 0.62841,-0.31421 0.94306,-0.47153 -1.59291,-1.43559 -2.59524,-2.87168 -3.89316,-4.30727 0.74729,1.59291 2.14381,3.77586 2.9501,4.7788 z m 3.89315,-0.71032 c 0.295,-0.31465 0.59066,-0.62841 0.88564,-0.94306 -2.02555,-0.66864 -4.16963,-1.92604 -5.9002,-2.88965 1.25859,1.16027 3.166,2.79044 5.01456,3.83271 z"
       inkscape:connector-curvature="0" />
    <path
       style="fill:none;fill-opacity:1;stroke:#000000;stroke-width:3.77952766"
       d="M 1278.9414 32.140625 L 1278.9414 44.234375 L 1271.8262 44.234375 L 1271.8262 51.925781 L 1271.8262 71.164062 L 1271.8262 90.779297 L 1271.8262 148.87109 L 1271.8262 167.41211 C 1271.8262 182.87831 1284.3639 195.41602 1299.8301 195.41602 L 1317.2168 195.41602 L 1336.4551 195.41602 L 1355.4941 195.41602 L 1374.7305 195.41602 L 1393.7695 195.41602 L 1413.0078 195.41602 L 1432.0469 195.41602 L 1451.2832 195.41602 L 1470.3223 195.41602 L 1489.5605 195.41602 L 1508.5996 195.41602 L 1527.8359 195.41602 L 1546.875 195.41602 L 1566.1133 195.41602 L 1585.1523 195.41602 L 1604.3887 195.41602 L 1623.4277 195.41602 L 1642.666 195.41602 L 1649.7793 195.41602 L 1649.7793 187.72461 L 1661.875 187.72461 L 1661.875 168.48633 L 1649.7793 168.48633 L 1649.7793 148.87109 L 1661.875 148.87109 L 1661.875 129.63281 L 1649.7793 129.63281 L 1649.7793 125.82031 L 1455.4102 125.82031 L 1455.4102 113.83203 L 1649.7793 113.83203 L 1649.7793 110.01758 L 1661.875 110.01758 L 1661.875 90.779297 L 1649.7793 90.779297 L 1649.7793 71.164062 L 1661.875 71.164062 L 1661.875 51.925781 L 1649.7793 51.925781 L 1649.7793 44.234375 L 1642.666 44.234375 L 1642.666 32.140625 L 1623.4277 32.140625 L 1623.4277 44.234375 L 1604.3887 44.234375 L 1604.3887 32.140625 L 1585.1523 32.140625 L 1585.1523 44.234375 L 1566.1133 44.234375 L 1566.1133 32.140625 L 1546.875 32.140625 L 1546.875 44.234375 L 1527.8359 44.234375 L 1527.8359 32.140625 L 1508.5996 32.140625 L 1508.5996 44.234375 L 1489.5605 44.234375 L 1489.5605 32.140625 L 1470.3223 32.140625 L 1470.3223 44.234375 L 1451.2832 44.234375 L 1451.2832 32.140625 L 1432.0469 32.140625 L 1432.0469 44.234375 L 1413.0078 44.234375 L 1413.0078 32.140625 L 1393.7695 32.140625 L 1393.7695 44.234375 L 1374.7305 44.234375 L 1374.7305 32.140625 L 1355.4941 32.140625 L 1355.4941 44.234375 L 1336.4551 44.234375 L 1336.4551 32.140625 L 1317.2168 32.140625 L 1317.2168 44.234375 L 1298.1797 44.234375 L 1298.1797 32.140625 L 1278.9414 32.140625 z "
       transform="matrix(0.26458333,0,0,0.26458333,0,-3)"
       id="path6162" />
    <path
       id="path3051"
       d="m 338.38657,49.953877 v 3.199805 h -1.88256 v 2.035018 5.090128 5.189864 15.37012 4.905645 c 0,4.092099 3.31727,7.409368 7.40937,7.409368 h 4.60023 5.09013 5.0374 5.08963 5.03741 5.09013 5.03743 5.0896 5.03743 5.09011 5.03743 5.0896 5.03743 5.09013 5.0374 5.08963 5.03741 5.09013 1.88206 v -2.035019 h 3.20032 v -5.090128 h -3.20032 v -5.189866 h 3.20032 V 75.748684 H 436.5041 V 74.73996 h -51.42682 v -3.171899 h 51.42682 v -1.00924 h 3.20032 v -5.090129 h -3.20032 v -5.189864 h 3.20032 V 55.1887 h -3.20032 v -2.035018 h -1.88206 v -3.199805 h -5.09013 v 3.199805 h -5.03741 v -3.199805 h -5.08963 v 3.199805 h -5.0374 v -3.199805 h -5.09013 v 3.199805 h -5.03743 v -3.199805 h -5.0896 v 3.199805 h -5.03743 v -3.199805 h -5.09011 v 3.199805 h -5.03743 v -3.199805 h -5.0896 v 3.199805 h -5.03743 v -3.199805 h -5.09013 v 3.199805 h -5.03741 v -3.199805 h -5.08963 v 3.199805 h -5.0374 v -3.199805 h -5.09013 v 3.199805 h -5.0369 v -3.199805 z"
       style="fill:none;fill-opacity:1;stroke:#000000;stroke-width:1"
       inkscape:connector-curvature="0" />
    <path
       inkscape:connector-curvature="0"
       style="fill:none;fill-opacity:1;stroke:#000000;stroke-width:1"
       d="m 338.38657,94.403881 v 3.199805 h -1.88256 v 2.035018 5.090136 5.18987 15.37013 4.90565 c 0,4.0921 3.31727,7.40937 7.40937,7.40937 h 4.60023 5.09013 5.0374 5.08963 5.03741 5.09013 5.03743 5.0896 5.03743 5.09011 5.03743 5.0896 5.03743 5.09013 5.0374 5.08963 5.03741 5.09013 1.88206 v -2.03502 h 3.20032 v -5.09013 h -3.20032 v -5.18987 h 3.20032 v -5.09013 h -3.20032 v -1.00873 h -51.42682 v -3.1719 h 51.42682 v -1.00924 h 3.20032 v -5.09013 h -3.20032 v -5.18987 h 3.20032 v -5.090136 h -3.20032 v -2.035018 h -1.88206 v -3.199805 h -5.09013 v 3.199805 h -5.03741 v -3.199805 h -5.08963 v 3.199805 h -5.0374 v -3.199805 h -5.09013 v 3.199805 h -5.03743 v -3.199805 h -5.0896 v 3.199805 h -5.03743 v -3.199805 h -5.09011 v 3.199805 h -5.03743 v -3.199805 h -5.0896 v 3.199805 h -5.03743 v -3.199805 h -5.09013 v 3.199805 h -5.03741 v -3.199805 h -5.08963 v 3.199805 h -5.0374 v -3.199805 h -5.09013 v 3.199805 h -5.0369 v -3.199805 z"
       id="path3053" />
    <path
       inkscape:connector-curvature="0"
       style="fill:none;fill-opacity:1;stroke:#000000;stroke-width:1"
       d="m 484.43354,7.7109751 h -3.19981 V 5.828415 h -2.03501 -5.09013 -5.18987 -15.37012 -4.90564 c -4.0921,0 -7.40937,3.3172701 -7.40937,7.40937 v 4.60023 5.090131 5.0374 5.08963 5.03741 5.09013 5.03743 5.0896 5.03743 5.09011 5.03743 5.0896 5.03743 5.09013 5.0374 5.08963 5.03741 5.090134 1.88206 h 2.03502 v 3.20032 h 5.09013 v -3.20032 h 5.18986 v 3.20032 h 5.09013 v -3.20032 h 1.00873 V 54.401686 h 3.17189 v 51.426824 h 1.00924 v 3.20032 h 5.09013 v -3.20032 h 5.18987 v 3.20032 h 5.09013 v -3.20032 h 2.03501 v -1.88206 h 3.19981 v -5.090134 h -3.19981 v -5.03741 h 3.19981 v -5.08963 h -3.19981 v -5.0374 h 3.19981 v -5.09013 h -3.19981 v -5.03743 h 3.19981 v -5.0896 h -3.19981 v -5.03743 h 3.19981 v -5.09011 h -3.19981 v -5.03743 h 3.19981 v -5.0896 h -3.19981 v -5.03743 h 3.19981 v -5.09013 h -3.19981 v -5.03741 h 3.19981 v -5.08963 h -3.19981 v -5.0374 h 3.19981 v -5.090131 h -3.19981 v -5.0369 h 3.19981 z"
       id="path3055" />
    <path
       id="path10413"
       d="m 379.7737,242.48165 v -1.88258 h 3.19979 l 23.8709,-6.47919 -23.8709,-89.75627 h -3.19979 v -1.88206 h -2.03504 v -3.20032 h -5.09012 v 3.20032 h -5.18987 v -3.20032 h -5.09012 v 3.20032 h -0.99478 v 1.88206 h -3.20031 v -1.88206 h -0.99478 v -3.20032 h -5.09014 v 3.20032 h -5.18985 v -3.20032 h -5.09014 v 3.20032 h -2.03501 v 1.88206 5.09012 5.03742 5.09013 5.0369 5.09013 5.03742 5.08961 5.03742 5.09013 5.03742 5.08961 5.03742 5.09013 5.03741 5.08962 5.03741 5.09013 4.62349 c 0,4.07923 3.30689,7.38612 7.3861,7.38612 h 4.9289 5.09014 0.99478 v -1.88258 h 3.20031 v 1.88258 h 0.99478 5.09012 5.18987 5.09012 z m 3.175,-6.97219 h -3.19982 v -4.91029 h 3.19982 z m -21.57492,0 h -3.20032 v -5.03742 h 3.20032 z m 21.57492,-10.12755 h -3.19982 v -4.90977 h 3.19982 z m -21.57492,0 h -3.20032 v -5.03741 h 3.20032 z m 21.57492,-10.12703 h -3.19982 v -4.91028 h 3.19982 z m -21.57492,0 h -3.20032 v -5.03741 h 3.20032 z m 21.57492,-10.12754 h -3.19982 v -4.90978 h 3.19982 z m -21.57492,0 h -3.20032 v -5.03742 h 3.20032 z m 21.57492,-10.12703 h -3.19982 v -4.9103 h 3.19982 z m -21.57492,0 h -3.20032 v -5.03742 h 3.20032 z m 21.57492,-10.12754 h -3.19982 v -4.90979 h 3.19982 z m -21.57492,0 h -3.20032 v -5.03742 h 3.20032 z m 21.57492,-10.12703 h -3.19982 v -4.9103 h 3.19982 z m -21.57492,0 h -3.20032 v -5.03742 h 3.20032 z m 21.57492,-10.12755 h -3.19982 v -4.90978 h 3.19982 z m -21.57492,0 h -3.20032 v -5.0369 h 3.20032 z m 21.57492,-10.12703 h -3.19982 v -4.91029 h 3.19982 z m -21.57492,0 h -3.20032 v -5.03742 h 3.20032 z"
       style="color:#000000;display:inline;overflow:visible;visibility:visible;fill:none;fill-rule:evenodd;stroke:#000000;stroke-width:1;stroke-linecap:butt;stroke-linejoin:miter;stroke-miterlimit:4;stroke-dasharray:none;stroke-dashoffset:0;stroke-opacity:1;marker:none;marker-start:none;marker-mid:none;marker-end:none;enable-background:accumulate"
       inkscape:connector-curvature="0" />
  </g>
  <g
     transform="translate(0,3)"
     inkscape:label="newlayer"
     inkscape:groupmode="layer"
     id="g5009" />
  <g
     transform="translate(0,3)"
     id="g5471"
     inkscape:groupmode="layer"
     inkscape:label="newlayer" />
  <g
     transform="translate(0,3)"
     inkscape:label="newlayer"
     inkscape:groupmode="layer"
     id="g5886" />
  <g
     id="g11417"
     inkscape:groupmode="layer"
     inkscape:label="newlayer" />
  <g
     inkscape:label="newlayer"
     inkscape:groupmode="layer"
     id="g12967" />
  <g
     id="g6020"
     inkscape:groupmode="layer"
     inkscape:label="newlayer" />
  <path
     style="fill:none;stroke:#000000;stroke-width:3.77952766"
     d="M 28.189453 25.117188 L 28.189453 33.150391 L 40.283203 33.150391 L 40.283203 51.707031 L 28.189453 51.707031 L 28.189453 72.003906 L 40.283203 72.003906 L 40.283203 90.560547 L 28.189453 90.560547 L 28.189453 110.85742 L 40.283203 110.85742 L 40.283203 129.41406 L 28.189453 129.41406 L 28.189453 149.71094 L 40.283203 149.71094 L 40.283203 168.26758 L 28.189453 168.26758 L 28.189453 188.39453 L 47.416016 188.39453 L 47.416016 176.29883 L 65.974609 176.29883 L 65.974609 188.39453 L 85.373047 188.39453 L 85.373047 176.29883 L 103.92969 176.29883 L 103.92969 188.39453 L 123.32812 188.39453 L 123.32812 176.29883 L 141.88477 176.29883 L 141.88477 188.39453 L 161.2832 188.39453 L 161.2832 176.29883 L 179.8418 176.29883 L 179.8418 188.39453 L 199.24023 188.39453 L 199.24023 176.29883 L 217.79688 176.29883 L 217.79688 188.39453 L 237.19531 188.39453 L 237.19531 176.29883 L 255.75195 176.29883 L 255.75195 188.39453 L 275.15039 188.39453 L 275.15039 176.29883 L 293.70898 176.29883 L 293.70898 188.39453 L 313.10547 188.39453 L 313.10547 176.29883 L 331.66406 176.29883 L 331.66406 188.39453 L 351.0625 188.39453 L 351.0625 176.29883 L 369.61914 176.29883 L 369.61914 188.39453 L 389.01758 188.39453 L 389.01758 176.29883 L 407.57422 176.29883 L 407.57422 188.39453 L 426.97266 188.39453 L 426.97266 176.29883 L 445.53125 176.29883 L 445.53125 188.39453 L 464.92773 188.39453 L 464.92773 176.29883 L 483.48633 176.29883 L 483.48633 188.39453 L 502.88477 188.39453 L 502.88477 176.29883 L 521.44141 176.29883 L 521.44141 188.39453 L 540.83984 188.39453 L 540.83984 176.29883 L 559.39648 176.29883 L 559.39648 188.39453 L 578.79492 188.39453 L 578.79492 176.29883 L 597.35352 176.29883 L 597.35352 188.39453 L 616.75195 188.39453 L 616.75195 176.29883 L 635.30859 176.29883 L 635.30859 188.39453 L 654.70703 188.39453 L 654.70703 176.29883 L 673.26367 176.29883 L 673.26367 188.39453 L 692.66211 188.39453 L 692.66211 176.29883 L 711.2207 176.29883 L 711.2207 188.39453 L 730.61719 188.39453 L 730.61719 176.29883 L 749.17578 176.29883 L 749.17578 188.39453 L 768.57422 188.39453 L 768.57422 176.29883 L 787.13086 176.29883 L 787.13086 188.39453 L 806.5293 188.39453 L 806.5293 176.29883 L 825.08594 176.29883 L 825.08594 188.39453 L 844.48438 188.39453 L 844.48438 176.29883 L 863.04297 176.29883 L 863.04297 188.39453 L 882.43945 188.39453 L 882.43945 176.29883 L 900.99805 176.29883 L 900.99805 188.39453 L 920.39648 188.39453 L 920.39648 176.29883 L 938.95312 176.29883 L 938.95312 188.39453 L 958.35156 188.39453 L 958.35156 176.29883 L 976.9082 176.29883 L 976.9082 188.39453 L 996.30664 188.39453 L 996.30664 176.29883 L 1014.8652 176.29883 L 1014.8652 188.39453 L 1034.2637 188.39453 L 1034.2637 176.29883 L 1052.8203 176.29883 L 1052.8203 188.39453 L 1072.2188 188.39453 L 1072.2188 176.29883 L 1090.7754 176.29883 L 1090.7754 188.39453 L 1110.1738 188.39453 L 1110.1738 176.29883 L 1128.7324 176.29883 L 1128.7324 188.39453 L 1148.1289 188.39453 L 1148.1289 176.29883 L 1166.6875 176.29883 L 1166.6875 188.39453 L 1186.0859 188.39453 L 1186.0859 176.29883 L 1204.6426 176.29883 L 1204.6426 188.39453 L 1224.041 188.39453 L 1224.041 176.29883 L 1242.5977 176.29883 L 1242.5977 188.39453 L 1261.8262 188.39453 L 1261.8262 168.26758 L 1249.7324 168.26758 L 1249.7324 149.71094 L 1261.8262 149.71094 L 1261.8262 129.41406 L 1249.7324 129.41406 L 1249.7324 110.85742 L 1261.8262 110.85742 L 1261.8262 90.560547 L 1249.7324 90.560547 L 1249.7324 72.003906 L 1261.8262 72.003906 L 1261.8262 51.707031 L 1249.7324 51.707031 L 1249.7324 33.150391 L 1261.8262 33.150391 L 1261.8262 25.117188 L 1242.9395 25.117188 L 1223.7012 25.117188 L 1204.9824 25.117188 L 1185.7461 25.117188 L 1167.0273 25.117188 L 1147.7891 25.117188 L 1129.0723 25.117188 L 1109.834 25.117188 L 1091.1152 25.117188 L 1071.8789 25.117188 L 1053.1602 25.117188 L 1033.9219 25.117188 L 1015.2051 25.117188 L 995.9668 25.117188 L 977.25 25.117188 L 958.01172 25.117188 L 939.29297 25.117188 L 920.05664 25.117188 L 901.33789 25.117188 L 882.09961 25.117188 L 863.38281 25.117188 L 844.14453 25.117188 L 825.42773 25.117188 L 806.18945 25.117188 L 787.4707 25.117188 L 768.23438 25.117188 L 749.51562 25.117188 L 730.27734 25.117188 L 711.56055 25.117188 L 692.32227 25.117188 L 673.60352 25.117188 L 654.36719 25.117188 L 635.64844 25.117188 L 616.41016 25.117188 L 597.69336 25.117188 L 578.45508 25.117188 L 559.73828 25.117188 L 540.5 25.117188 L 521.78125 25.117188 L 502.54492 25.117188 L 483.82617 25.117188 L 464.58789 25.117188 L 445.87109 25.117188 L 426.63281 25.117188 L 407.91406 25.117188 L 388.67773 25.117188 L 369.95898 25.117188 L 350.7207 25.117188 L 332.00391 25.117188 L 312.76562 25.117188 L 294.04883 25.117188 L 274.81055 25.117188 L 256.0918 25.117188 L 236.85547 25.117188 L 218.13672 25.117188 L 198.89844 25.117188 L 180.18164 25.117188 L 160.94336 25.117188 L 142.22656 25.117188 L 122.98828 25.117188 L 104.26953 25.117188 L 85.033203 25.117188 L 66.314453 25.117188 L 47.076172 25.117188 L 28.189453 25.117188 z M 272.49805 33.150391 L 284.5918 33.150391 L 284.5918 51.707031 L 272.49805 51.707031 L 272.49805 33.150391 z M 516.80664 33.150391 L 528.90039 33.150391 L 528.90039 51.707031 L 516.80664 51.707031 L 516.80664 33.150391 z M 761.11523 33.150391 L 773.20898 33.150391 L 773.20898 51.707031 L 761.11523 51.707031 L 761.11523 33.150391 z M 1005.4238 33.150391 L 1017.5176 33.150391 L 1017.5176 51.707031 L 1005.4238 51.707031 L 1005.4238 33.150391 z M 272.49805 72.003906 L 284.5918 72.003906 L 284.5918 90.560547 L 272.49805 90.560547 L 272.49805 72.003906 z M 516.80664 72.003906 L 528.90039 72.003906 L 528.90039 90.560547 L 516.80664 90.560547 L 516.80664 72.003906 z M 761.11523 72.003906 L 773.20898 72.003906 L 773.20898 90.560547 L 761.11523 90.560547 L 761.11523 72.003906 z M 1005.4238 72.003906 L 1017.5176 72.003906 L 1017.5176 90.560547 L 1005.4238 90.560547 L 1005.4238 72.003906 z M 47.416016 94.662109 L 65.974609 94.662109 L 65.974609 106.75586 L 47.416016 106.75586 L 47.416016 94.662109 z M 85.373047 94.662109 L 103.92969 94.662109 L 103.92969 106.75586 L 85.373047 106.75586 L 85.373047 94.662109 z M 123.32812 94.662109 L 141.88477 94.662109 L 141.88477 106.75586 L 123.32812 106.75586 L 123.32812 94.662109 z M 161.2832 94.662109 L 179.8418 94.662109 L 179.8418 106.75586 L 161.2832 106.75586 L 161.2832 94.662109 z M 199.24023 94.662109 L 217.79688 94.662109 L 217.79688 106.75586 L 199.24023 106.75586 L 199.24023 94.662109 z M 237.19531 94.662109 L 255.75195 94.662109 L 255.75195 106.75586 L 237.19531 106.75586 L 237.19531 94.662109 z M 275.15039 94.662109 L 293.70898 94.662109 L 293.70898 106.75586 L 275.15039 106.75586 L 275.15039 94.662109 z M 313.10547 94.662109 L 331.66406 94.662109 L 331.66406 106.75586 L 313.10547 106.75586 L 313.10547 94.662109 z M 351.0625 94.662109 L 369.61914 94.662109 L 369.61914 106.75586 L 351.0625 106.75586 L 351.0625 94.662109 z M 389.01758 94.662109 L 407.57422 94.662109 L 407.57422 106.75586 L 389.01758 106.75586 L 389.01758 94.662109 z M 426.97266 94.662109 L 445.53125 94.662109 L 445.53125 106.75586 L 426.97266 106.75586 L 426.97266 94.662109 z M 464.92773 94.662109 L 483.48633 94.662109 L 483.48633 106.75586 L 464.92773 106.75586 L 464.92773 94.662109 z M 502.88477 94.662109 L 521.44141 94.662109 L 521.44141 106.75586 L 502.88477 106.75586 L 502.88477 94.662109 z M 540.83984 94.662109 L 559.39648 94.662109 L 559.39648 106.75586 L 540.83984 106.75586 L 540.83984 94.662109 z M 578.79492 94.662109 L 597.35352 94.662109 L 597.35352 106.75586 L 578.79492 106.75586 L 578.79492 94.662109 z M 616.75195 94.662109 L 635.30859 94.662109 L 635.30859 106.75586 L 616.75195 106.75586 L 616.75195 94.662109 z M 654.70703 94.662109 L 673.26367 94.662109 L 673.26367 106.75586 L 654.70703 106.75586 L 654.70703 94.662109 z M 692.66211 94.662109 L 711.2207 94.662109 L 711.2207 106.75586 L 692.66211 106.75586 L 692.66211 94.662109 z M 730.61719 94.662109 L 749.17578 94.662109 L 749.17578 106.75586 L 730.61719 106.75586 L 730.61719 94.662109 z M 768.57422 94.662109 L 787.13086 94.662109 L 787.13086 106.75586 L 768.57422 106.75586 L 768.57422 94.662109 z M 806.5293 94.662109 L 825.08594 94.662109 L 825.08594 106.75586 L 806.5293 106.75586 L 806.5293 94.662109 z M 844.48438 94.662109 L 863.04297 94.662109 L 863.04297 106.75586 L 844.48438 106.75586 L 844.48438 94.662109 z M 882.43945 94.662109 L 900.99805 94.662109 L 900.99805 106.75586 L 882.43945 106.75586 L 882.43945 94.662109 z M 920.39648 94.662109 L 938.95312 94.662109 L 938.95312 106.75586 L 920.39648 106.75586 L 920.39648 94.662109 z M 958.35156 94.662109 L 976.9082 94.662109 L 976.9082 106.75586 L 958.35156 106.75586 L 958.35156 94.662109 z M 996.30664 94.662109 L 1014.8652 94.662109 L 1014.8652 106.75586 L 996.30664 106.75586 L 996.30664 94.662109 z M 1034.2637 94.662109 L 1052.8203 94.662109 L 1052.8203 106.75586 L 1034.2637 106.75586 L 1034.2637 94.662109 z M 1072.2188 94.662109 L 1090.7754 94.662109 L 1090.7754 106.75586 L 1072.2188 106.75586 L 1072.2188 94.662109 z M 1110.1738 94.662109 L 1128.7324 94.662109 L 1128.7324 106.75586 L 1110.1738 106.75586 L 1110.1738 94.662109 z M 1148.1289 94.662109 L 1166.6875 94.662109 L 1166.6875 106.75586 L 1148.1289 106.75586 L 1148.1289 94.662109 z M 1186.0859 94.662109 L 1204.6426 94.662109 L 1204.6426 106.75586 L 1186.0859 106.75586 L 1186.0859 94.662109 z M 1224.041 94.662109 L 1242.5977 94.662109 L 1242.5977 106.75586 L 1224.041 106.75586 L 1224.041 94.662109 z M 272.49805 110.85742 L 284.5918 110.85742 L 284.5918 129.41406 L 272.49805 129.41406 L 272.49805 110.85742 z M 516.80664 110.85742 L 528.90039 110.85742 L 528.90039 129.41406 L 516.80664 129.41406 L 516.80664 110.85742 z M 761.11523 110.85742 L 773.20898 110.85742 L 773.20898 129.41406 L 761.11523 129.41406 L 761.11523 110.85742 z M 1005.4238 110.85742 L 1017.5176 110.85742 L 1017.5176 129.41406 L 1005.4238 129.41406 L 1005.4238 110.85742 z M 272.49805 149.71094 L 284.5918 149.71094 L 284.5918 168.26758 L 272.49805 168.26758 L 272.49805 149.71094 z M 516.80664 149.71094 L 528.90039 149.71094 L 528.90039 168.26758 L 516.80664 168.26758 L 516.80664 149.71094 z M 761.11523 149.71094 L 773.20898 149.71094 L 773.20898 168.26758 L 761.11523 168.26758 L 761.11523 149.71094 z M 1005.4238 149.71094 L 1017.5176 149.71094 L 1017.5176 168.26758 L 1005.4238 168.26758 L 1005.4238 149.71094 z "
     transform="scale(0.26458333)"
     id="path6260" />
</svg>
