<?xml version="1.0" encoding="UTF-8" standalone="no"?>
<!-- Created with Inkscape (http://www.inkscape.org/) -->

<svg
   xmlns:dc="http://purl.org/dc/elements/1.1/"
   xmlns:cc="http://creativecommons.org/ns#"
   xmlns:rdf="http://www.w3.org/1999/02/22-rdf-syntax-ns#"
   xmlns:svg="http://www.w3.org/2000/svg"
   xmlns="http://www.w3.org/2000/svg"
   xmlns:sodipodi="http://sodipodi.sourceforge.net/DTD/sodipodi-0.dtd"
   xmlns:inkscape="http://www.inkscape.org/namespaces/inkscape"
   width="500mm"
   height="300mm"
   viewBox="0 0 500 300"
   version="1.1"
   id="svg978"
   sodipodi:docname="encounter-holder-3x3.svg"
   inkscape:version="">
  <sodipodi:namedview
     id="base"
     pagecolor="#ffffff"
     bordercolor="#666666"
     borderopacity="1.0"
     inkscape:pageopacity="0.0"
     inkscape:pageshadow="2"
     inkscape:zoom="1.4142136"
     inkscape:cx="729.31192"
     inkscape:cy="560.0943"
     inkscape:document-units="mm"
     inkscape:current-layer="svg978"
     showgrid="false"
     inkscape:window-width="1880"
     inkscape:window-height="1076"
     inkscape:window-x="18"
     inkscape:window-y="0"
     inkscape:window-maximized="1"
     inkscape:snap-bbox="true"
     showguides="false"
     inkscape:measure-start="651.591,1111.29"
     inkscape:measure-end="615,1110.5"
     inkscape:bbox-paths="false"
     inkscape:snap-bbox-edge-midpoints="false"
     inkscape:snap-bbox-midpoints="false"
     inkscape:object-paths="true" />
  <defs
     id="defs972" />
  <metadata
     id="metadata975">
    <rdf:RDF>
      <cc:Work
         rdf:about="">
        <dc:format>image/svg+xml</dc:format>
        <dc:type
           rdf:resource="http://purl.org/dc/dcmitype/StillImage" />
        <dc:title />
      </cc:Work>
    </rdf:RDF>
  </metadata>
  <g
     transform="translate(0,3)"
     id="layer1"
     inkscape:groupmode="layer"
     inkscape:label="Layer 1" />
  <g
     id="g8186"
     inkscape:groupmode="layer"
     inkscape:label="newlayer" />
  <path
     style="fill:none;stroke:#000000;stroke-width:3.77952766"
     d="M 408.18945 15.117188 L 408.18945 22.572266 L 420.2832 22.572266 L 420.2832 41.128906 L 408.18945 41.128906 L 408.18945 60.849609 L 420.2832 60.849609 L 420.2832 79.40625 L 408.18945 79.40625 L 408.18945 99.125 L 420.2832 99.125 L 420.2832 117.68164 L 408.18945 117.68164 L 408.18945 137.40039 L 420.2832 137.40039 L 420.2832 155.95898 L 408.18945 155.95898 L 408.18945 175.67773 L 420.2832 175.67773 L 420.2832 194.23438 L 408.18945 194.23438 L 408.18945 213.95312 L 420.2832 213.95312 L 420.2832 232.51172 L 408.18945 232.51172 L 408.18945 252.23047 L 420.2832 252.23047 L 420.2832 270.78711 L 408.18945 270.78711 L 408.18945 290.50586 L 420.2832 290.50586 L 420.2832 309.06445 L 408.18945 309.06445 L 408.18945 328.7832 L 420.2832 328.7832 L 420.2832 347.33984 L 408.18945 347.33984 L 408.18945 367.05859 L 420.2832 367.05859 L 420.2832 385.61719 L 408.18945 385.61719 L 408.18945 393.07031 L 427.18164 393.07031 L 427.18164 405.16602 L 446.41797 405.16602 L 446.41797 393.07031 L 465.24023 393.07031 L 465.24023 405.16602 L 484.47852 405.16602 L 484.47852 393.07031 L 503.30078 393.07031 L 503.30078 405.16602 L 522.53906 405.16602 L 522.53906 393.07031 L 541.36133 393.07031 L 541.36133 405.16602 L 560.59766 405.16602 L 560.59766 393.07031 L 579.41992 393.07031 L 579.41992 405.16602 L 598.6582 405.16602 L 598.6582 393.07031 L 617.48047 393.07031 L 617.48047 405.16602 L 636.71875 405.16602 L 636.71875 393.07031 L 655.54102 393.07031 L 655.54102 405.16602 L 674.77734 405.16602 L 674.77734 393.07031 L 693.59961 393.07031 L 693.59961 405.16602 L 712.83789 405.16602 L 712.83789 393.07031 L 731.66016 393.07031 L 731.66016 405.16602 L 750.89844 405.16602 L 750.89844 393.07031 L 769.71875 393.07031 L 769.71875 405.16602 L 788.95703 405.16602 L 788.95703 393.07031 L 807.7793 393.07031 L 807.7793 405.16602 L 827.01758 405.16602 L 827.01758 393.07031 L 845.83984 393.07031 L 845.83984 405.16602 L 865.07812 405.16602 L 865.07812 393.07031 L 883.89844 393.07031 L 883.89844 405.16602 L 903.13672 405.16602 L 903.13672 393.07031 L 921.95898 393.07031 L 921.95898 405.16602 L 941.19727 405.16602 L 941.19727 393.07031 L 960.01953 393.07031 L 960.01953 405.16602 L 979.25586 405.16602 L 979.25586 393.07031 L 998.07812 393.07031 L 998.07812 405.16602 L 1017.3164 405.16602 L 1017.3164 393.07031 L 1036.1387 393.07031 L 1036.1387 405.16602 L 1055.377 405.16602 L 1055.377 393.07031 L 1074.1992 393.07031 L 1074.1992 405.16602 L 1093.4355 405.16602 L 1093.4355 393.07031 L 1112.2578 393.07031 L 1112.2578 405.16602 L 1131.4961 405.16602 L 1131.4961 393.07031 L 1150.4883 393.07031 L 1150.4883 385.61719 L 1138.3945 385.61719 L 1138.3945 367.05859 L 1150.4883 367.05859 L 1150.4883 347.33984 L 1138.3945 347.33984 L 1138.3945 328.7832 L 1150.4883 328.7832 L 1150.4883 309.06445 L 1138.3945 309.06445 L 1138.3945 290.50586 L 1150.4883 290.50586 L 1150.4883 270.78711 L 1138.3945 270.78711 L 1138.3945 252.23047 L 1150.4883 252.23047 L 1150.4883 232.51172 L 1138.3945 232.51172 L 1138.3945 213.95312 L 1150.4883 213.95312 L 1150.4883 194.23438 L 1138.3945 194.23438 L 1138.3945 175.67773 L 1150.4883 175.67773 L 1150.4883 155.95898 L 1138.3945 155.95898 L 1138.3945 137.40039 L 1150.4883 137.40039 L 1150.4883 117.68164 L 1138.3945 117.68164 L 1138.3945 99.125 L 1150.4883 99.125 L 1150.4883 79.40625 L 1138.3945 79.40625 L 1138.3945 60.849609 L 1150.4883 60.849609 L 1150.4883 41.128906 L 1138.3945 41.128906 L 1138.3945 22.572266 L 1150.4883 22.572266 L 1150.4883 15.117188 L 1131.4961 15.117188 L 1112.2578 15.117188 L 1099.2539 15.117188 C 1099.2539 56.539252 1065.674 90.119137 1024.252 90.119141 C 982.82988 90.119137 949.25 56.539252 949.25 15.117188 L 941.19727 15.117188 L 921.95898 15.117188 L 903.13672 15.117188 L 883.89844 15.117188 L 865.07812 15.117188 L 855.47461 15.117188 C 855.47461 56.539252 821.89473 90.119137 780.47266 90.119141 C 739.05058 90.119137 705.4707 56.539252 705.4707 15.117188 L 693.59961 15.117188 L 674.77734 15.117188 L 655.54102 15.117188 L 636.71875 15.117188 L 617.48047 15.117188 L 611.69336 15.117188 C 611.69336 56.539252 578.11543 90.119137 536.69336 90.119141 C 495.27129 90.119137 461.69141 56.539252 461.69141 15.117188 L 446.41797 15.117188 L 427.18164 15.117188 L 408.18945 15.117188 z M 651.58984 22.572266 L 663.68555 22.572266 L 663.68555 41.128906 L 651.58984 41.128906 L 651.58984 22.572266 z M 894.99219 22.572266 L 907.08594 22.572266 L 907.08594 41.128906 L 894.99219 41.128906 L 894.99219 22.572266 z M 651.58984 60.849609 L 663.68555 60.849609 L 663.68555 79.40625 L 651.58984 79.40625 L 651.58984 60.849609 z M 894.99219 60.849609 L 907.08594 60.849609 L 907.08594 79.40625 L 894.99219 79.40625 L 894.99219 60.849609 z M 651.58984 99.125 L 663.68555 99.125 L 663.68555 117.68164 L 651.58984 117.68164 L 651.58984 99.125 z M 894.99219 99.125 L 907.08594 99.125 L 907.08594 117.68164 L 894.99219 117.68164 L 894.99219 99.125 z M 651.58984 137.40039 L 663.68555 137.40039 L 663.68555 155.95898 L 651.58984 155.95898 L 651.58984 137.40039 z M 894.99219 137.40039 L 907.08594 137.40039 L 907.08594 155.95898 L 894.99219 155.95898 L 894.99219 137.40039 z M 651.58984 175.67773 L 663.68555 175.67773 L 663.68555 194.23438 L 651.58984 194.23438 L 651.58984 175.67773 z M 894.99219 175.67773 L 907.08594 175.67773 L 907.08594 194.23438 L 894.99219 194.23438 L 894.99219 175.67773 z M 651.58984 213.95312 L 663.68555 213.95312 L 663.68555 232.51172 L 651.58984 232.51172 L 651.58984 213.95312 z M 894.99219 213.95312 L 907.08594 213.95312 L 907.08594 232.51172 L 894.99219 232.51172 L 894.99219 213.95312 z M 651.58984 252.23047 L 663.68555 252.23047 L 663.68555 270.78711 L 651.58984 270.78711 L 651.58984 252.23047 z M 894.99219 252.23047 L 907.08594 252.23047 L 907.08594 270.78711 L 894.99219 270.78711 L 894.99219 252.23047 z M 651.58984 290.50586 L 663.68555 290.50586 L 663.68555 309.06445 L 651.58984 309.06445 L 651.58984 290.50586 z M 894.99219 290.50586 L 907.08594 290.50586 L 907.08594 309.06445 L 894.99219 309.06445 L 894.99219 290.50586 z M 651.58984 328.7832 L 663.68555 328.7832 L 663.68555 347.33984 L 651.58984 347.33984 L 651.58984 328.7832 z M 894.99219 328.7832 L 907.08594 328.7832 L 907.08594 347.33984 L 894.99219 347.33984 L 894.99219 328.7832 z M 651.58984 367.05859 L 663.68555 367.05859 L 663.68555 385.61719 L 651.58984 385.61719 L 651.58984 367.05859 z M 894.99219 367.05859 L 907.08594 367.05859 L 907.08594 385.61719 L 894.99219 385.61719 L 894.99219 367.05859 z "
     transform="scale(0.26458333)"
     id="path8234" />
  <path
     style="fill:none;stroke:#000000;stroke-width:3.77952766"
     d="M 1159.6016 131.89258 L 1159.6016 143.98828 L 1152.4883 143.98828 C 1152.4879 222.17593 1152.4883 302.36313 1152.4883 380.55078 C 1152.4883 396.01702 1165.026 408.55469 1180.4922 408.55469 L 1530.4414 408.55469 L 1530.4414 401.25977 L 1542.5352 401.25977 L 1542.5352 382.02148 L 1530.4414 382.02148 L 1530.4414 362.80273 L 1542.5352 362.80273 L 1542.5352 343.56445 L 1530.4414 343.56445 L 1530.4414 328.42773 L 1340.3945 328.42773 L 1340.3945 316.33398 L 1542.5352 316.33398 L 1542.5352 305.10938 L 1530.4414 305.10938 L 1530.4414 285.89062 L 1542.5352 285.89062 L 1542.5352 266.65234 L 1530.4414 266.65234 L 1530.4414 247.43359 L 1542.5352 247.43359 L 1542.5352 236.20703 L 1340.3945 236.20703 L 1340.3945 224.11328 L 1530.4414 224.11328 L 1530.4414 208.97656 L 1542.5352 208.97656 L 1542.5352 189.73828 L 1530.4414 189.73828 L 1530.4414 170.51953 L 1542.5352 170.51953 L 1542.5352 151.28125 L 1530.4414 151.28125 L 1530.4414 143.98828 L 1523.3262 143.98828 L 1523.3262 131.89258 L 1504.0898 131.89258 L 1504.0898 143.98828 L 1485.0508 143.98828 L 1485.0508 131.89258 L 1465.8125 131.89258 L 1465.8125 143.98828 L 1446.7734 143.98828 L 1446.7734 131.89258 L 1427.5371 131.89258 L 1427.5371 143.98828 L 1408.498 143.98828 L 1408.498 131.89258 L 1389.2598 131.89258 L 1389.2598 143.98828 L 1370.2207 143.98828 L 1370.2207 131.89258 L 1350.9844 131.89258 L 1350.9844 143.98828 L 1331.9453 143.98828 L 1331.9453 131.89258 L 1312.707 131.89258 L 1312.707 143.98828 L 1293.6699 143.98828 L 1293.6699 131.89258 L 1274.4316 131.89258 L 1274.4316 143.98828 L 1255.3926 143.98828 L 1255.3926 131.89258 L 1236.1543 131.89258 L 1236.1543 143.98828 L 1217.1172 143.98828 L 1217.1172 131.89258 L 1197.8789 131.89258 L 1197.8789 143.98828 L 1178.8398 143.98828 L 1178.8398 131.89258 L 1159.6016 131.89258 z "
     transform="scale(0.26458333)"
     id="path8328" />
  <path
     style="fill:none;stroke:#000000;stroke-width:3.77952766"
     d="M 408.18945 408.18945 L 408.18945 427.91797 L 420.2832 427.91797 L 420.2832 446.47656 L 408.18945 446.47656 L 408.18945 466.375 L 420.2832 466.375 L 420.2832 484.93164 L 408.18945 484.93164 L 408.18945 504.83203 L 420.2832 504.83203 L 420.2832 523.38867 L 408.18945 523.38867 L 408.18945 543.28906 L 420.2832 543.28906 L 420.2832 561.8457 L 408.18945 561.8457 L 408.18945 581.74414 L 420.2832 581.74414 L 420.2832 600.30273 L 408.18945 600.30273 L 408.18945 620.20117 L 420.2832 620.20117 L 420.2832 638.75977 L 408.18945 638.75977 L 408.18945 658.6582 L 420.2832 658.6582 L 420.2832 677.21484 L 408.18945 677.21484 L 408.18945 684.84961 L 427.18164 684.84961 L 446.41797 684.84961 L 465.24023 684.84961 L 484.47852 684.84961 L 503.30078 684.84961 L 522.53906 684.84961 L 541.36133 684.84961 L 560.59766 684.84961 L 579.41992 684.84961 L 598.6582 684.84961 L 617.48047 684.84961 L 636.71875 684.84961 L 655.54102 684.84961 L 674.77734 684.84961 L 693.59961 684.84961 L 712.83789 684.84961 L 731.66016 684.84961 L 750.89844 684.84961 L 769.71875 684.84961 L 788.95703 684.84961 L 807.7793 684.84961 L 827.01758 684.84961 L 845.83984 684.84961 L 865.07812 684.84961 L 883.89844 684.84961 L 903.13672 684.84961 L 921.95898 684.84961 L 941.19727 684.84961 L 960.01953 684.84961 L 979.25586 684.84961 L 998.07812 684.84961 L 1017.3164 684.84961 L 1036.1387 684.84961 L 1055.377 684.84961 L 1074.1992 684.84961 L 1093.4355 684.84961 L 1112.2578 684.84961 L 1131.4961 684.84961 L 1150.4883 684.84961 L 1150.4883 677.21484 L 1138.3945 677.21484 L 1138.3945 658.6582 L 1150.4883 658.6582 L 1150.4883 638.75977 L 1138.3945 638.75977 L 1138.3945 620.20117 L 1150.4883 620.20117 L 1150.4883 600.30273 L 1138.3945 600.30273 L 1138.3945 581.74414 L 1150.4883 581.74414 L 1150.4883 561.8457 L 1138.3945 561.8457 L 1138.3945 543.28906 L 1150.4883 543.28906 L 1150.4883 523.38867 L 1138.3945 523.38867 L 1138.3945 504.83203 L 1150.4883 504.83203 L 1150.4883 484.93164 L 1138.3945 484.93164 L 1138.3945 466.375 L 1150.4883 466.375 L 1150.4883 446.47656 L 1138.3945 446.47656 L 1138.3945 427.91797 L 1150.4883 427.91797 L 1150.4883 408.18945 L 1131.1562 408.18945 L 1131.1562 420.2832 L 1112.5977 420.2832 L 1112.5977 408.18945 L 1093.0957 408.18945 L 1093.0957 420.2832 L 1074.5391 420.2832 L 1074.5391 408.18945 L 1055.0371 408.18945 L 1055.0371 420.2832 L 1036.4785 420.2832 L 1036.4785 408.18945 L 1016.9766 408.18945 L 1016.9766 420.2832 L 998.41797 420.2832 L 998.41797 408.18945 L 978.91602 408.18945 L 978.91602 420.2832 L 960.35938 420.2832 L 960.35938 408.18945 L 940.85742 408.18945 L 940.85742 420.2832 L 922.29883 420.2832 L 922.29883 408.18945 L 902.79688 408.18945 L 902.79688 420.2832 L 884.24023 420.2832 L 884.24023 408.18945 L 864.73633 408.18945 L 864.73633 420.2832 L 846.17969 420.2832 L 846.17969 408.18945 L 826.67773 408.18945 L 826.67773 420.2832 L 808.11914 420.2832 L 808.11914 408.18945 L 788.61719 408.18945 L 788.61719 420.2832 L 770.06055 420.2832 L 770.06055 408.18945 L 750.55664 408.18945 L 750.55664 420.2832 L 732 420.2832 L 732 408.18945 L 712.49805 408.18945 L 712.49805 420.2832 L 693.93945 420.2832 L 693.93945 408.18945 L 674.4375 408.18945 L 674.4375 420.2832 L 655.88086 420.2832 L 655.88086 408.18945 L 636.37891 408.18945 L 636.37891 420.2832 L 617.82031 420.2832 L 617.82031 408.18945 L 598.31836 408.18945 L 598.31836 420.2832 L 579.75977 420.2832 L 579.75977 408.18945 L 560.25781 408.18945 L 560.25781 420.2832 L 541.70117 420.2832 L 541.70117 408.18945 L 522.19922 408.18945 L 522.19922 420.2832 L 503.64062 420.2832 L 503.64062 408.18945 L 484.13867 408.18945 L 484.13867 420.2832 L 465.58203 420.2832 L 465.58203 408.18945 L 446.07812 408.18945 L 446.07812 420.2832 L 427.52148 420.2832 L 427.52148 408.18945 L 408.18945 408.18945 z M 651.58984 427.91797 L 663.68555 427.91797 L 663.68555 446.47656 L 651.58984 446.47656 L 651.58984 427.91797 z M 894.99219 427.91797 L 907.08594 427.91797 L 907.08594 446.47656 L 894.99219 446.47656 L 894.99219 427.91797 z M 651.58984 466.375 L 663.68555 466.375 L 663.68555 484.93164 L 651.58984 484.93164 L 651.58984 466.375 z M 894.99219 466.375 L 907.08594 466.375 L 907.08594 484.93164 L 894.99219 484.93164 L 894.99219 466.375 z M 427.52148 500.41016 L 446.07812 500.41016 L 446.07812 512.50391 L 427.52148 512.50391 L 427.52148 500.41016 z M 465.58203 500.41016 L 484.13867 500.41016 L 484.13867 512.50391 L 465.58203 512.50391 L 465.58203 500.41016 z M 503.64062 500.41016 L 522.19922 500.41016 L 522.19922 512.50391 L 503.64062 512.50391 L 503.64062 500.41016 z M 541.70117 500.41016 L 560.25781 500.41016 L 560.25781 512.50391 L 541.70117 512.50391 L 541.70117 500.41016 z M 579.75977 500.41016 L 598.31836 500.41016 L 598.31836 512.50391 L 579.75977 512.50391 L 579.75977 500.41016 z M 617.82031 500.41016 L 636.37891 500.41016 L 636.37891 512.50391 L 617.82031 512.50391 L 617.82031 500.41016 z M 655.88086 500.41016 L 674.4375 500.41016 L 674.4375 512.50391 L 663.68555 512.50391 L 663.68555 523.38867 L 651.58984 523.38867 L 651.58984 504.83203 L 655.88086 504.83203 L 655.88086 500.41016 z M 693.93945 500.41016 L 712.49805 500.41016 L 712.49805 512.50391 L 693.93945 512.50391 L 693.93945 500.41016 z M 732 500.41016 L 750.55664 500.41016 L 750.55664 512.50391 L 732 512.50391 L 732 500.41016 z M 770.06055 500.41016 L 788.61719 500.41016 L 788.61719 512.50391 L 770.06055 512.50391 L 770.06055 500.41016 z M 808.11914 500.41016 L 826.67773 500.41016 L 826.67773 512.50391 L 808.11914 512.50391 L 808.11914 500.41016 z M 846.17969 500.41016 L 864.73633 500.41016 L 864.73633 512.50391 L 846.17969 512.50391 L 846.17969 500.41016 z M 884.24023 500.41016 L 902.79688 500.41016 L 902.79688 504.83203 L 907.08594 504.83203 L 907.08594 523.38867 L 894.99219 523.38867 L 894.99219 512.50391 L 884.24023 512.50391 L 884.24023 500.41016 z M 922.29883 500.41016 L 940.85742 500.41016 L 940.85742 512.50391 L 922.29883 512.50391 L 922.29883 500.41016 z M 960.35938 500.41016 L 978.91602 500.41016 L 978.91602 512.50391 L 960.35938 512.50391 L 960.35938 500.41016 z M 998.41797 500.41016 L 1016.9766 500.41016 L 1016.9766 512.50391 L 998.41797 512.50391 L 998.41797 500.41016 z M 1036.4785 500.41016 L 1055.0371 500.41016 L 1055.0371 512.50391 L 1036.4785 512.50391 L 1036.4785 500.41016 z M 1074.5391 500.41016 L 1093.0957 500.41016 L 1093.0957 512.50391 L 1074.5391 512.50391 L 1074.5391 500.41016 z M 1112.5977 500.41016 L 1131.1562 500.41016 L 1131.1562 512.50391 L 1112.5977 512.50391 L 1112.5977 500.41016 z M 651.58984 543.28906 L 663.68555 543.28906 L 663.68555 561.8457 L 651.58984 561.8457 L 651.58984 543.28906 z M 894.99219 543.28906 L 907.08594 543.28906 L 907.08594 561.8457 L 894.99219 561.8457 L 894.99219 543.28906 z M 651.58984 581.74414 L 663.68555 581.74414 L 663.68555 592.63086 L 674.4375 592.63086 L 674.4375 604.72461 L 655.88086 604.72461 L 655.88086 600.30273 L 651.58984 600.30273 L 651.58984 581.74414 z M 894.99219 581.74414 L 907.08594 581.74414 L 907.08594 600.30273 L 902.79688 600.30273 L 902.79688 604.72461 L 884.24023 604.72461 L 884.24023 592.63086 L 894.99219 592.63086 L 894.99219 581.74414 z M 427.52148 592.63086 L 446.07812 592.63086 L 446.07812 604.72461 L 427.52148 604.72461 L 427.52148 592.63086 z M 465.58203 592.63086 L 484.13867 592.63086 L 484.13867 604.72461 L 465.58203 604.72461 L 465.58203 592.63086 z M 503.64062 592.63086 L 522.19922 592.63086 L 522.19922 604.72461 L 503.64062 604.72461 L 503.64062 592.63086 z M 541.70117 592.63086 L 560.25781 592.63086 L 560.25781 604.72461 L 541.70117 604.72461 L 541.70117 592.63086 z M 579.75977 592.63086 L 598.31836 592.63086 L 598.31836 604.72461 L 579.75977 604.72461 L 579.75977 592.63086 z M 617.82031 592.63086 L 636.37891 592.63086 L 636.37891 604.72461 L 617.82031 604.72461 L 617.82031 592.63086 z M 693.93945 592.63086 L 712.49805 592.63086 L 712.49805 604.72461 L 693.93945 604.72461 L 693.93945 592.63086 z M 732 592.63086 L 750.55664 592.63086 L 750.55664 604.72461 L 732 604.72461 L 732 592.63086 z M 770.06055 592.63086 L 788.61719 592.63086 L 788.61719 604.72461 L 770.06055 604.72461 L 770.06055 592.63086 z M 808.11914 592.63086 L 826.67773 592.63086 L 826.67773 604.72461 L 808.11914 604.72461 L 808.11914 592.63086 z M 846.17969 592.63086 L 864.73633 592.63086 L 864.73633 604.72461 L 846.17969 604.72461 L 846.17969 592.63086 z M 922.29883 592.63086 L 940.85742 592.63086 L 940.85742 604.72461 L 922.29883 604.72461 L 922.29883 592.63086 z M 960.35938 592.63086 L 978.91602 592.63086 L 978.91602 604.72461 L 960.35938 604.72461 L 960.35938 592.63086 z M 998.41797 592.63086 L 1016.9766 592.63086 L 1016.9766 604.72461 L 998.41797 604.72461 L 998.41797 592.63086 z M 1036.4785 592.63086 L 1055.0371 592.63086 L 1055.0371 604.72461 L 1036.4785 604.72461 L 1036.4785 592.63086 z M 1074.5391 592.63086 L 1093.0957 592.63086 L 1093.0957 604.72461 L 1074.5391 604.72461 L 1074.5391 592.63086 z M 1112.5977 592.63086 L 1131.1562 592.63086 L 1131.1562 604.72461 L 1112.5977 604.72461 L 1112.5977 592.63086 z M 651.58984 620.20117 L 663.68555 620.20117 L 663.68555 638.75977 L 651.58984 638.75977 L 651.58984 620.20117 z M 894.99219 620.20117 L 907.08594 620.20117 L 907.08594 638.75977 L 894.99219 638.75977 L 894.99219 620.20117 z M 651.58984 658.6582 L 663.68555 658.6582 L 663.68555 677.21484 L 651.58984 677.21484 L 651.58984 658.6582 z M 894.99219 658.6582 L 907.08594 658.6582 L 907.08594 677.21484 L 894.99219 677.21484 L 894.99219 658.6582 z "
     transform="scale(0.26458333)"
     id="path8442" />
  <g
     id="g9176"
     transform="translate(0.07593011,-192.45785)">
    <path
       style="fill:none;stroke:#000000;stroke-width:3.77952766"
       d="M 46.152344 15.117188 C 30.734782 15.117188 18.236328 27.615641 18.236328 43.033203 L 18.236328 95.244141 L 25.349609 95.244141 L 25.349609 107.33789 L 18.236328 107.33789 L 18.236328 174.82812 L 18.236328 187.46484 L 25.349609 187.46484 L 25.349609 199.55859 L 18.236328 199.55859 L 18.236328 213.68164 L 18.236328 232.91992 L 18.236328 252.53516 L 18.236328 271.77344 L 18.236328 279.46484 L 25.349609 279.46484 L 25.349609 291.55859 L 49.837891 381.7793 L 389.07422 291.55859 L 389.07422 279.46484 L 396.18945 279.57422 L 396.18945 272.39062 L 408.2832 272.39062 L 408.2832 253.15234 L 396.18945 253.15234 L 396.18945 233.93359 L 408.2832 233.93359 L 408.2832 214.69531 L 396.18945 214.69531 L 396.18945 199.55859 L 389.07422 199.55859 L 389.07422 187.46484 L 396.18945 187.46484 L 396.18945 195.47656 L 408.2832 195.47656 L 408.2832 176.24023 L 396.18945 176.24023 L 396.18945 157.01953 L 408.2832 157.01953 L 408.2832 137.7832 L 396.18945 137.7832 L 396.18945 118.56445 L 408.2832 118.56445 L 408.2832 99.326172 L 396.18945 99.326172 L 396.18945 107.33789 L 389.07422 107.33789 L 389.07422 95.244141 L 396.18945 95.244141 L 396.18945 80.107422 L 408.2832 80.107422 L 408.2832 60.869141 L 396.18945 60.869141 L 396.18945 41.650391 L 408.2832 41.650391 L 408.2832 22.412109 L 396.18945 22.412109 L 396.18945 15.117188 L 389.07422 15.117188 L 369.83789 15.117188 L 350.79883 15.117188 L 331.56055 15.117188 L 312.52148 15.117188 L 293.28516 15.117188 L 274.24609 15.117188 L 255.00781 15.117188 L 235.96875 15.117188 L 216.73242 15.117188 L 197.69336 15.117188 L 178.45508 15.117188 L 159.41797 15.117188 L 140.17969 15.117188 L 121.14062 15.117188 L 101.90234 15.117188 L 82.865234 15.117188 L 63.626953 15.117188 L 46.152344 15.117188 z M 44.587891 95.244141 L 63.626953 95.244141 L 63.626953 107.33789 L 44.587891 107.33789 L 44.587891 95.244141 z M 82.865234 95.244141 L 101.90234 95.244141 L 101.90234 107.33789 L 82.865234 107.33789 L 82.865234 95.244141 z M 121.14062 95.244141 L 140.17969 95.244141 L 140.17969 107.33789 L 121.14062 107.33789 L 121.14062 95.244141 z M 159.41797 95.244141 L 178.45508 95.244141 L 178.45508 107.33789 L 159.41797 107.33789 L 159.41797 95.244141 z M 197.69336 95.244141 L 216.73242 95.244141 L 216.73242 107.33789 L 197.69336 107.33789 L 197.69336 95.244141 z M 235.96875 95.244141 L 255.00781 95.244141 L 255.00781 107.33789 L 235.96875 107.33789 L 235.96875 95.244141 z M 274.24609 95.244141 L 293.28516 95.244141 L 293.28516 107.33789 L 274.24609 107.33789 L 274.24609 95.244141 z M 312.52148 95.244141 L 331.56055 95.244141 L 331.56055 107.33789 L 312.52148 107.33789 L 312.52148 95.244141 z M 350.79883 95.244141 L 369.83789 95.244141 L 369.83789 107.33789 L 350.79883 107.33789 L 350.79883 95.244141 z M 44.587891 187.46484 L 63.626953 187.46484 L 63.626953 199.55859 L 44.587891 199.55859 L 44.587891 187.46484 z M 82.865234 187.46484 L 101.90234 187.46484 L 101.90234 199.55859 L 82.865234 199.55859 L 82.865234 187.46484 z M 121.14062 187.46484 L 140.17969 187.46484 L 140.17969 199.55859 L 121.14062 199.55859 L 121.14062 187.46484 z M 159.41797 187.46484 L 178.45508 187.46484 L 178.45508 199.55859 L 159.41797 199.55859 L 159.41797 187.46484 z M 197.69336 187.46484 L 216.73242 187.46484 L 216.73242 199.55859 L 197.69336 199.55859 L 197.69336 187.46484 z M 235.96875 187.46484 L 255.00781 187.46484 L 255.00781 199.55859 L 235.96875 199.55859 L 235.96875 187.46484 z M 274.24609 187.46484 L 293.28516 187.46484 L 293.28516 199.55859 L 274.24609 199.55859 L 274.24609 187.46484 z M 312.52148 187.46484 L 331.56055 187.46484 L 331.56055 199.55859 L 312.52148 199.55859 L 312.52148 187.46484 z M 350.79883 187.46484 L 369.83789 187.46484 L 369.83789 199.55859 L 350.79883 199.55859 L 350.79883 187.46484 z M 44.587891 279.46484 L 63.626953 279.46484 L 63.626953 291.55859 L 44.587891 291.55859 L 44.587891 279.46484 z M 82.865234 279.46484 L 101.90234 279.46484 L 101.90234 291.55859 L 82.865234 291.55859 L 82.865234 279.46484 z M 121.14062 279.46484 L 140.17969 279.46484 L 140.17969 291.55859 L 121.14062 291.55859 L 121.14062 279.46484 z M 159.41797 279.46484 L 178.45508 279.46484 L 178.45508 291.55859 L 159.41797 291.55859 L 159.41797 279.46484 z M 197.69336 279.46484 L 216.73242 279.46484 L 216.73242 291.55859 L 197.69336 291.55859 L 197.69336 279.46484 z M 235.96875 279.46484 L 255.00781 279.46484 L 255.00781 291.55859 L 235.96875 291.55859 L 235.96875 279.46484 z M 274.24609 279.46484 L 293.28516 279.46484 L 293.28516 291.55859 L 274.24609 291.55859 L 274.24609 279.46484 z M 312.52148 279.46484 L 331.56055 279.46484 L 331.56055 291.55859 L 312.52148 291.55859 L 312.52148 279.46484 z M 350.79883 279.46484 L 369.83789 279.46484 L 369.83789 291.55859 L 350.79883 291.55859 L 350.79883 279.46484 z "
       transform="matrix(0.26458333,0,0,0.26458333,-0.07593011,192.45785)"
       id="path8306" />
  </g>
  <path
     style="fill:#00e400;stroke-width:0;fill-opacity:1;stroke-miterlimit:4;stroke-dasharray:none;stroke:none"
     d="m 223.83309,137.79534 c -0.28691,0.3054 -0.29453,0.40517 -0.29453,3.85933 0,3.39912 0.0112,3.55282 0.27092,3.71501 0.47263,0.29516 0.29972,0.37493 -0.81274,0.37493 -0.596,0 -1.08364,-0.0348 -1.08364,-0.0774 0,-0.0426 0.0914,-0.16883 0.20319,-0.28058 0.13108,-0.13109 0.20318,-0.46613 0.20318,-0.94421 v -0.74102 l -1.04978,0.0396 -1.04978,0.0396 -0.0408,0.70569 c -0.0341,0.5907 0.005,0.73396 0.23704,0.87918 0.47987,0.29968 0.31083,0.37923 -0.80584,0.37923 -0.596,0 -1.08364,-0.0348 -1.08364,-0.0774 0,-0.0425 0.0914,-0.16883 0.20318,-0.28058 0.17033,-0.17033 0.20319,-0.78049 0.20319,-3.7734 0,-2.99292 -0.0329,-3.60307 -0.20319,-3.7734 -0.11175,-0.11175 -0.20318,-0.23802 -0.20318,-0.28059 0,-0.0426 0.48764,-0.0774 1.08364,-0.0774 0.596,0 1.08364,0.0305 1.08364,0.0677 0,0.0373 -0.12325,0.19098 -0.27388,0.34162 -0.25825,0.25824 -0.27179,0.41877 -0.23705,2.81069 l 0.0369,2.53681 h 1.01591 1.01592 l 0.0368,-2.59496 c 0.0308,-2.17642 0.004,-2.62819 -0.16932,-2.80102 -0.11333,-0.11333 -0.20606,-0.2409 -0.20606,-0.28347 0,-0.0426 0.49826,-0.0774 1.10725,-0.0774 h 1.10725 z m -15.73304,0.19983 c 0.58961,0.58961 1.01491,1.79434 1.18164,3.34714 l 0.1018,0.94819 h 0.67728 0.67727 l 0.0389,-1.76092 c 0.0367,-1.66184 0.0225,-1.77426 -0.25205,-1.99797 -0.28276,-0.23038 -0.26137,-0.23704 0.76098,-0.23704 1.0105,0 1.04309,0.01 0.82774,0.24771 -0.33476,0.3699 -0.33476,4.95925 0,5.32915 0.21601,0.2387 0.16406,0.24771 -1.42663,0.24771 -1.8546,0 -2.48965,-0.17272 -2.75199,-0.74848 -0.20887,-0.45844 -0.0377,-0.74012 0.57712,-0.9497 0.45536,-0.15522 0.46404,-0.17232 0.41741,-0.82177 -0.0622,-0.86619 -0.62195,-2.63038 -0.97833,-3.08343 -0.30028,-0.38175 -0.60603,-0.46285 -0.70626,-0.18733 -0.0465,0.12775 -0.12408,0.1325 -0.31607,0.0194 -0.31796,-0.1874 -0.40824,-0.59265 -0.16619,-0.74604 0.38513,-0.24407 0.83108,-0.11288 1.3374,0.39343 z m 0.67169,4.87942 c -0.66307,0.53693 0.0871,1.16065 1.30309,1.08347 l 0.66321,-0.0421 0.0413,-0.64341 0.0413,-0.64341 h -0.87287 c -0.64088,0 -0.95345,0.0652 -1.176,0.24545 z m -6.76718,-4.87942 c 0.58961,0.58961 1.01491,1.79434 1.18164,3.34714 l 0.1018,0.94819 h 0.67728 0.67728 l 0.0389,-1.76092 c 0.0367,-1.66184 0.0225,-1.77426 -0.25206,-1.99797 -0.28276,-0.23038 -0.26137,-0.23704 0.76098,-0.23704 1.0105,0 1.04309,0.01 0.82774,0.24771 -0.33475,0.3699 -0.33475,4.95925 0,5.32915 0.21601,0.2387 0.16407,0.24771 -1.42663,0.24771 -1.8546,0 -2.48965,-0.17272 -2.75198,-0.74848 -0.20888,-0.45844 -0.0377,-0.74012 0.57711,-0.9497 0.45536,-0.15522 0.46404,-0.17232 0.41741,-0.82177 -0.0622,-0.86619 -0.62195,-2.63038 -0.97833,-3.08343 -0.30028,-0.38175 -0.60603,-0.46285 -0.70626,-0.18733 -0.0465,0.12775 -0.12408,0.1325 -0.31606,0.0194 -0.31797,-0.1874 -0.40825,-0.59265 -0.1662,-0.74604 0.38513,-0.24407 0.83109,-0.11288 1.3374,0.39343 z m 0.67169,4.87942 c -0.66307,0.53693 0.0871,1.16065 1.30309,1.08347 l 0.66322,-0.0421 0.0413,-0.64341 0.0413,-0.64341 h -0.87288 c -0.64088,0 -0.95344,0.0652 -1.176,0.24545 z m -12.18539,-4.87942 c 0.58961,0.58961 1.01492,1.79434 1.18164,3.34714 l 0.1018,0.94819 h 0.67728 0.67727 l 0.0389,-1.76092 c 0.0367,-1.66184 0.0225,-1.77426 -0.25205,-1.99797 -0.28276,-0.23038 -0.26137,-0.23704 0.76098,-0.23704 1.0105,0 1.04309,0.01 0.82774,0.24771 -0.19096,0.21102 -0.22418,0.60574 -0.22418,2.66457 0,2.05883 0.0332,2.45356 0.22418,2.66458 0.21602,0.2387 0.16407,0.24771 -1.42663,0.24771 -1.8546,0 -2.48965,-0.17272 -2.75198,-0.74848 -0.20888,-0.45844 -0.0377,-0.74012 0.57712,-0.9497 0.45535,-0.15522 0.46403,-0.17232 0.4174,-0.82177 -0.0622,-0.86619 -0.62195,-2.63038 -0.97832,-3.08343 -0.30029,-0.38175 -0.60603,-0.46285 -0.70627,-0.18733 -0.0465,0.12775 -0.12408,0.1325 -0.31606,0.0194 -0.31797,-0.1874 -0.40825,-0.59265 -0.1662,-0.74604 0.38513,-0.24407 0.83109,-0.11288 1.3374,0.39343 z m 0.67169,4.87942 c -0.66307,0.53693 0.0871,1.16065 1.30309,1.08347 l 0.66321,-0.0421 0.0413,-0.64341 0.0413,-0.64341 h -0.87287 c -0.64088,0 -0.95344,0.0652 -1.176,0.24545 z m 25.40123,-4.3274 c 1.74136,0.79108 2.24088,3.13887 0.97466,4.58101 -1.13925,1.29753 -2.91277,1.27922 -4.00207,-0.0413 -0.93371,-1.13195 -0.92592,-2.7256 0.0186,-3.80134 0.81688,-0.93038 1.96558,-1.21226 3.00881,-0.73833 z m -2.498,0.63014 c -0.657,0.64659 -0.50696,2.51141 0.28285,3.51549 0.37224,0.47323 1.23598,0.89497 1.88602,0.92089 0.81949,0.0327 1.11878,-0.34699 1.18404,-1.50202 0.0865,-1.53158 -0.62129,-2.78013 -1.82285,-3.21532 -0.63822,-0.23115 -1.09491,-0.14729 -1.53006,0.28096 z m -15.11118,-0.63014 c 1.74136,0.79108 2.24087,3.13887 0.97466,4.58101 -1.13926,1.29753 -2.91278,1.27922 -4.00207,-0.0413 -0.93372,-1.13195 -0.92592,-2.7256 0.0186,-3.80134 0.81688,-0.93038 1.96558,-1.21226 3.00882,-0.73833 z m -2.49801,0.63014 c -0.657,0.64659 -0.50696,2.51141 0.28285,3.51549 0.37225,0.47323 1.23598,0.89497 1.88603,0.92089 0.81948,0.0327 1.11878,-0.34699 1.18404,-1.50202 0.0865,-1.53158 -0.6213,-2.78013 -1.82285,-3.21532 -0.63823,-0.23115 -1.09492,-0.14729 -1.53007,0.28096 z m 33.71928,7.32103 c 0,0.0421 -0.17982,0.22778 -0.3996,0.41271 -0.33824,0.28461 -0.56707,0.84211 -1.49001,3.63003 -1.09019,3.29313 -1.209,3.78336 -0.95495,3.94038 0.32783,0.2026 0.0545,0.27091 -1.08423,0.27091 -0.67022,0 -1.21857,-0.0383 -1.21855,-0.085 2e-5,-0.0467 0.0915,-0.16089 0.20322,-0.25363 0.11175,-0.0927 0.20319,-0.24698 0.20319,-0.34274 0,-0.0958 -0.58478,-1.65789 -1.29951,-3.47139 -1.0998,-2.79056 -1.37389,-3.36493 -1.78349,-3.7375 l -0.48397,-0.44024 h 1.10879 1.10879 l -0.0836,0.33297 c -0.0514,0.20468 0.039,0.64952 0.23446,1.1546 l 0.31804,0.82165 1.9641,-0.0371 1.9641,-0.0371 0.2654,-0.77073 c 0.25083,-0.72843 0.25268,-0.7848 0.0336,-1.02691 -0.1275,-0.14089 -0.19106,-0.29694 -0.14122,-0.34677 0.10949,-0.1095 1.53545,-0.12261 1.53545,-0.0141 z m -5.41821,2.62899 c 0,0.35237 1.81695,4.61319 1.94897,4.57041 0.14068,-0.0456 1.56744,-4.16188 1.57117,-4.53291 10e-4,-0.12686 -0.43988,-0.16932 -1.75922,-0.16932 -1.05122,0 -1.76092,0.0531 -1.76092,0.13182 z m -7.98847,-2.19213 c 0.58961,0.58961 1.01491,1.79434 1.18163,3.34714 l 0.10181,0.94819 h 0.67727 0.67728 l 0.0389,-1.76092 c 0.0367,-1.66184 0.0225,-1.77426 -0.25206,-1.99797 -0.28275,-0.23038 -0.26137,-0.23704 0.76099,-0.23704 1.01049,0 1.04308,0.01 0.82773,0.24771 -0.33475,0.3699 -0.33475,4.95925 0,5.32915 0.21602,0.2387 0.16407,0.24771 -1.42663,0.24771 -1.8546,0 -2.48964,-0.17272 -2.75197,-0.74848 -0.20889,-0.45844 -0.0377,-0.74013 0.57711,-0.94971 0.45535,-0.15521 0.46404,-0.17231 0.4174,-0.82176 -0.0622,-0.86619 -0.62195,-2.63038 -0.97832,-3.08343 -0.30028,-0.38175 -0.60603,-0.46285 -0.70627,-0.18733 -0.0465,0.12775 -0.12407,0.1325 -0.31606,0.0194 -0.31796,-0.1874 -0.40824,-0.59265 -0.16619,-0.74604 0.38513,-0.24407 0.83108,-0.11288 1.3374,0.39343 z m 0.67168,4.87942 c -0.66307,0.53693 0.0871,1.16065 1.30309,1.08346 l 0.66322,-0.0421 0.0413,-0.64341 0.0413,-0.64341 h -0.87288 c -0.64087,0 -0.95344,0.0652 -1.176,0.24546 z m -2.61817,-4.33231 c -0.33476,0.3699 -0.33476,4.95925 0,5.32915 0.21523,0.23784 0.18468,0.24771 -0.766,0.24771 -0.95069,0 -0.98124,-0.01 -0.766,-0.24771 0.23028,-0.25445 0.32657,-1.51321 0.11576,-1.51321 -0.24498,0 -1.66401,1.40011 -1.59673,1.57544 0.0542,0.14133 -0.081,0.18406 -0.56798,0.1795 l -0.63916,-0.006 0.50796,-0.26816 c 0.3619,-0.19106 0.50547,-0.35486 0.49931,-0.5697 -0.0148,-0.5186 -2.07187,-4.48529 -2.40324,-4.63436 -0.52185,-0.23477 -0.32268,-0.34038 0.64191,-0.34038 0.93659,0 0.93909,0.001 0.92925,0.3725 -0.005,0.20487 0.36486,1.1192 0.82284,2.03183 0.90567,1.80474 1.11015,1.96777 1.63351,1.30242 0.24445,-0.31077 0.28075,-0.54503 0.28075,-1.81213 0,-1.35582 -0.0208,-1.46974 -0.30478,-1.66782 -0.28832,-0.20112 -0.24696,-0.21298 0.766,-0.2197 1.02896,-0.007 1.06202,0.003 0.8466,0.24061 z m -6.72603,-0.12675 c 0,0.0665 -0.0914,0.15605 -0.20319,0.19893 -0.31823,0.12212 -0.29914,4.90322 0.021,5.25697 0.21522,0.23781 0.18504,0.24771 -0.75468,0.24771 -0.88986,0 -0.9595,-0.0194 -0.766,-0.21285 0.12127,-0.12127 0.21287,-0.44184 0.21287,-0.74501 v -0.53214 h -1.01592 -1.01591 v 0.53414 c 0,0.39841 0.0765,0.58772 0.30104,0.745 0.28309,0.19828 0.23662,0.21062 -0.77886,0.20675 -0.7998,-0.003 -1.01843,-0.0399 -0.84287,-0.14219 0.21258,-0.12382 0.23704,-0.40341 0.23704,-2.70924 0,-2.16053 -0.0325,-2.58362 -0.20318,-2.64914 -0.48426,-0.18583 -0.12667,-0.31967 0.84659,-0.31688 1.0284,0.003 1.04349,0.008 0.74074,0.24085 -0.29753,0.22897 -0.30763,0.30335 -0.27091,1.99495 l 0.0381,1.75712 h 0.94818 0.94819 l 0.0378,-1.79752 c 0.0318,-1.51171 0.005,-1.81016 -0.16932,-1.877 -0.47181,-0.18105 -0.14818,-0.32141 0.74105,-0.32141 0.5215,0 0.94819,0.0544 0.94819,0.12096 z m -6.37013,0.10503 c -0.1842,0.1243 -0.35342,0.23932 -0.37605,0.25561 -0.0226,0.0163 -0.49889,1.11845 -1.05836,2.44925 -0.80914,1.92468 -0.98752,2.46812 -0.87204,2.65668 0.13368,0.21825 0.0575,0.23704 -0.9606,0.23704 -1.04943,0 -1.09472,-0.0122 -0.88874,-0.23982 0.20168,-0.22285 0.12736,-0.4122 -1.05,-2.67525 -0.91462,-1.75804 -1.37416,-2.50114 -1.65218,-2.67175 l -0.38516,-0.23633 0.96937,-5.1e-4 c 0.85465,-5.1e-4 0.96267,0.0273 0.9128,0.23633 -0.0311,0.13038 0.0832,0.48087 0.25404,0.77887 l 0.3106,0.54182 h 1.75661 1.75661 l 0.25336,-0.51874 c 0.18705,-0.38298 0.21363,-0.55846 0.10159,-0.6705 -0.28283,-0.28282 -0.15365,-0.36849 0.55565,-0.36849 0.70407,0 0.70583,10e-4 0.3725,0.226 z m -4.60175,1.60473 c 0,0.24613 1.66372,3.3264 1.77637,3.28885 0.10605,-0.0354 1.47455,-3.11454 1.47455,-3.31781 0,-0.0225 -0.73146,-0.0408 -1.62546,-0.0408 -0.894,0 -1.62546,0.0314 -1.62546,0.0698 z m -3.74642,-1.67097 c -0.20935,0.10129 -0.56492,0.80223 -1.25296,2.46995 -0.52836,1.28069 -0.96066,2.45947 -0.96066,2.61951 0,0.16005 0.10667,0.35312 0.23705,0.42906 0.17721,0.10321 -0.008,0.1391 -0.73232,0.14219 -0.89155,0.004 -0.96389,-0.0169 -0.90109,-0.25701 0.0715,-0.27347 -0.67631,-1.4998 -0.91459,-1.4998 -0.16888,0 -0.82609,1.48098 -0.72778,1.64004 0.0411,0.0665 -0.22796,0.12088 -0.59788,0.12088 -0.59444,0 -0.66476,-0.03 -0.6052,-0.25772 0.0977,-0.37347 -2.44258,-5.2119 -2.83592,-5.40161 -0.24819,-0.11971 -0.11001,-0.14861 0.74634,-0.15607 0.97743,-0.009 1.04033,0.008 0.89936,0.23353 -0.12468,0.19964 0.0293,0.60229 0.86782,2.26888 1.44318,2.86852 1.31068,2.77437 1.88491,1.33941 0.26385,-0.65937 0.53272,-1.21641 0.59747,-1.23786 0.0648,-0.0214 0.44443,0.48186 0.84373,1.11846 0.3993,0.63661 0.79407,1.13478 0.87727,1.10704 0.16476,-0.0549 1.83422,-4.08698 1.84452,-4.45485 0.004,-0.12416 -0.0699,-0.2565 -0.163,-0.29407 -0.0931,-0.0376 0.13546,-0.069 0.50796,-0.0699 0.56632,-0.001 0.62939,0.0217 0.38497,0.13989 z"
     id="path9276"
     inkscape:connector-curvature="0" />
  <g
     id="g1147"
     transform="matrix(1.0926219,0,0,1.0926219,123.34559,-91.883234)"
     style="fill:#00e400;fill-opacity:1;stroke-width:0;stroke-miterlimit:4;stroke-dasharray:none;stroke:none">
    <g
       id="g1139"
       style="fill:#00e400;fill-opacity:1;stroke-width:0;stroke-miterlimit:4;stroke-dasharray:none;stroke:none">
      <g
         id="g1132"
         style="fill:#00e400;fill-opacity:1;stroke-width:0;stroke-miterlimit:4;stroke-dasharray:none;stroke:none">
        <g
           id="g1126"
           style="fill:#00e400;fill-opacity:1;stroke-width:0;stroke-miterlimit:4;stroke-dasharray:none;stroke:none">
          <g
             id="g1100"
             transform="translate(7.6540179,15.449777)"
             style="fill:#00e400;fill-opacity:1;stroke-width:0;stroke-miterlimit:4;stroke-dasharray:none;stroke:none">
            <ellipse
               ry="0.53513104"
               rx="0.33072916"
               cy="176.80292"
               cx="65.018646"
               id="path1052"
               style="color:#000000;display:inline;overflow:visible;visibility:visible;fill:#00e400;fill-opacity:1;fill-rule:evenodd;stroke:none;stroke-width:0;stroke-linecap:butt;stroke-linejoin:miter;stroke-miterlimit:4;stroke-dasharray:none;stroke-dashoffset:0;stroke-opacity:1;marker:none;marker-start:none;marker-mid:none;marker-end:none;enable-background:accumulate" />
            <path
               inkscape:connector-curvature="0"
               id="path1056"
               style="color:#000000;display:inline;overflow:visible;visibility:visible;fill:#00e400;fill-opacity:1;fill-rule:evenodd;stroke:none;stroke-width:0;stroke-linecap:butt;stroke-linejoin:miter;stroke-miterlimit:4;stroke-dasharray:none;stroke-dashoffset:0;stroke-opacity:1;marker:none;marker-start:none;marker-mid:none;marker-end:none;enable-background:accumulate"
               d="m 66.601419,176.94465 a 1.5119048,1.6300223 0 0 1 -1.511905,1.63002 1.5119048,1.6300223 0 0 1 -1.511905,-1.63002 1.5119048,1.6300223 0 0 1 1.511905,-1.63003 1.5119048,1.6300223 0 0 1 1.511905,1.63003 z m -5.244423,0.0236 c 0,0 4.063244,5.33891 7.701264,-0.28349 -3.410954,-5.01704 -7.716772,-0.45071 -7.701264,0.28349 z" />
          </g>
        </g>
      </g>
    </g>
  </g>
  <g
     id="g1121"
     transform="matrix(1.0926219,0,0,1.0926219,54.61999,-58.471357)"
     style="fill:#00e400;fill-opacity:1;stroke-width:0;stroke-miterlimit:4;stroke-dasharray:none;stroke:none">
    <g
       transform="translate(7.5122768,11.008557)"
       id="g1104"
       style="fill:#00e400;fill-opacity:1;stroke-width:0;stroke-miterlimit:4;stroke-dasharray:none;stroke:none">
      <ellipse
         cx="-44.025654"
         cy="188.08179"
         rx="0.46042603"
         ry="0.62605745"
         style="color:#000000;display:inline;overflow:visible;visibility:visible;fill:#00e400;fill-opacity:1;fill-rule:evenodd;stroke:none;stroke-width:0;stroke-linecap:butt;stroke-linejoin:miter;stroke-miterlimit:4;stroke-dasharray:none;stroke-dashoffset:0;stroke-opacity:1;marker:none;marker-start:none;marker-mid:none;marker-end:none;enable-background:accumulate"
         id="ellipse1062"
         transform="rotate(-36.526885)" />
      <path
         sodipodi:nodetypes="sssssccc"
         inkscape:connector-curvature="0"
         d="m 77.819685,176.40632 c 0.450276,0.60793 0.271358,1.50364 -0.399628,2.00063 -0.670986,0.49699 -1.579953,0.40706 -2.030238,-0.20086 -0.450292,-0.60792 -0.271377,-1.50364 0.399616,-2.00064 0.670993,-0.49699 1.579968,-0.40706 2.03025,0.20087 z m -4.026387,3.20178 c 0,0 5.935568,1.18691 6.046763,-4.77523 -5.250406,-1.35779 -6.426463,4.28866 -6.046763,4.77523 z"
         style="color:#000000;display:inline;overflow:visible;visibility:visible;fill:#00e400;fill-opacity:1;fill-rule:evenodd;stroke:none;stroke-width:0;stroke-linecap:butt;stroke-linejoin:miter;stroke-miterlimit:4;stroke-dasharray:none;stroke-dashoffset:0;stroke-opacity:1;marker:none;marker-start:none;marker-mid:none;marker-end:none;enable-background:accumulate"
         id="path1064" />
    </g>
  </g>
  <g
     id="g1152"
     transform="matrix(1.0926219,0,0,1.0926219,186.44497,-146.16109)"
     style="fill:#00e400;fill-opacity:1;stroke-width:0;stroke-miterlimit:4;stroke-dasharray:none;stroke:none">
    <g
       transform="rotate(180,30.184347,231.36805)"
       id="g1092"
       style="fill:#00e400;fill-opacity:1;stroke-width:0;stroke-miterlimit:4;stroke-dasharray:none;stroke:none">
      <ellipse
         ry="0.53513104"
         rx="0.33072916"
         cy="154.03288"
         cx="92.834549"
         id="ellipse1068"
         style="color:#000000;display:inline;overflow:visible;visibility:visible;fill:#00e400;fill-opacity:1;fill-rule:evenodd;stroke:none;stroke-width:0;stroke-linecap:butt;stroke-linejoin:miter;stroke-miterlimit:4;stroke-dasharray:none;stroke-dashoffset:0;stroke-opacity:1;marker:none;marker-start:none;marker-mid:none;marker-end:none;enable-background:accumulate"
         transform="rotate(13.171632)" />
      <path
         id="path1070"
         style="color:#000000;display:inline;overflow:visible;visibility:visible;fill:#00e400;fill-opacity:1;fill-rule:evenodd;stroke:none;stroke-width:0;stroke-linecap:butt;stroke-linejoin:miter;stroke-miterlimit:4;stroke-dasharray:none;stroke-dashoffset:0;stroke-opacity:1;marker:none;marker-start:none;marker-mid:none;marker-end:none;enable-background:accumulate"
         d="m 57.038028,170.57499 c -0.205133,0.87656 -1.030524,1.4329 -1.84356,1.24263 -0.813037,-0.19027 -1.305838,-1.05511 -1.100699,-1.93166 0.205133,-0.87656 1.030525,-1.4329 1.843562,-1.24263 0.813036,0.19027 1.305836,1.05511 1.100697,1.93166 z m -5.11183,-1.17206 c 0,0 2.361801,6.50232 7.185281,1.85683 0.08987,-5.85129 -6.277127,-6.02428 -7.185281,-1.85683 z"
         inkscape:connector-curvature="0"
         sodipodi:nodetypes="cscscccc" />
    </g>
  </g>
  <g
     id="g1116"
     transform="matrix(1.0926219,0,0,1.0926219,143.77893,-72.163807)"
     style="fill:#00e400;fill-opacity:1;stroke-width:0;stroke-miterlimit:4;stroke-dasharray:none;stroke:none">
    <ellipse
       cx="-40.051296"
       cy="222.45619"
       rx="0.46042603"
       ry="0.62605745"
       style="color:#000000;display:inline;overflow:visible;visibility:visible;fill:#00e400;fill-opacity:1;fill-rule:evenodd;stroke:none;stroke-width:0;stroke-linecap:butt;stroke-linejoin:miter;stroke-miterlimit:4;stroke-dasharray:none;stroke-dashoffset:0;stroke-opacity:1;marker:none;marker-start:none;marker-mid:none;marker-end:none;enable-background:accumulate"
       id="ellipse1106"
       transform="rotate(-36.526885)" />
    <path
       sodipodi:nodetypes="sssssccc"
       inkscape:connector-curvature="0"
       d="m 101.69001,202.41304 c 0.40305,0.75647 0.0572,1.37786 -0.77251,1.38791 -0.82968,0.0101 -1.829056,-0.59504 -2.232119,-1.3515 -0.403056,-0.75647 -0.05721,-1.37787 0.772495,-1.38793 0.829734,-0.01 1.829074,0.59505 2.232134,1.35152 z m -5.014638,0.23826 c 0,0 6.427868,4.43738 7.525488,-0.33093 -5.6356,-4.17477 -7.869623,-0.28583 -7.525488,0.33093 z"
       style="color:#000000;display:inline;overflow:visible;visibility:visible;fill:#00e400;fill-opacity:1;fill-rule:evenodd;stroke:none;stroke-width:0;stroke-linecap:butt;stroke-linejoin:miter;stroke-miterlimit:4;stroke-dasharray:none;stroke-dashoffset:0;stroke-opacity:1;marker:none;marker-start:none;marker-mid:none;marker-end:none;enable-background:accumulate"
       id="path1108" />
  </g>
  <g
     id="g1165"
     transform="matrix(0.66979408,-0.79885754,0.48986107,0.54706623,147.14978,73.212358)"
     style="fill:#00e400;fill-opacity:1;stroke-width:0;stroke-miterlimit:4;stroke-dasharray:none;stroke:none">
    <g
       id="g1163"
       transform="translate(10.110863,15.024554)"
       style="fill:#00e400;fill-opacity:1;stroke-width:0;stroke-miterlimit:4;stroke-dasharray:none;stroke:none">
      <ellipse
         transform="rotate(13.171632)"
         style="color:#000000;display:inline;overflow:visible;visibility:visible;fill:#00e400;fill-opacity:1;fill-rule:evenodd;stroke:none;stroke-width:0;stroke-linecap:butt;stroke-linejoin:miter;stroke-miterlimit:4;stroke-dasharray:none;stroke-dashoffset:0;stroke-opacity:1;marker:none;marker-start:none;marker-mid:none;marker-end:none;enable-background:accumulate"
         id="ellipse1159"
         cx="92.834549"
         cy="154.03288"
         rx="0.33072916"
         ry="0.53513104" />
      <path
         sodipodi:nodetypes="cscscccc"
         inkscape:connector-curvature="0"
         d="m 57.038028,170.57499 c -0.205133,0.87656 -1.030524,1.4329 -1.84356,1.24263 -0.813037,-0.19027 -1.305838,-1.05511 -1.100699,-1.93166 0.205133,-0.87656 1.030525,-1.4329 1.843562,-1.24263 0.813036,0.19027 1.305836,1.05511 1.100697,1.93166 z m -5.11183,-1.17206 c 0,0 2.361801,6.50232 7.185281,1.85683 0.08987,-5.85129 -6.277127,-6.02428 -7.185281,-1.85683 z"
         style="color:#000000;display:inline;overflow:visible;visibility:visible;fill:#00e400;fill-opacity:1;fill-rule:evenodd;stroke:none;stroke-width:0;stroke-linecap:butt;stroke-linejoin:miter;stroke-miterlimit:4;stroke-dasharray:none;stroke-dashoffset:0;stroke-opacity:1;marker:none;marker-start:none;marker-mid:none;marker-end:none;enable-background:accumulate"
         id="path1161" />
    </g>
  </g>
  <path
     id="path2287"
     style="color:#000000;display:inline;overflow:visible;visibility:visible;fill:#00e400;fill-opacity:1;fill-rule:evenodd;stroke:none;stroke-width:0;stroke-linecap:butt;stroke-linejoin:miter;stroke-miterlimit:4;stroke-dasharray:none;stroke-dashoffset:0;stroke-opacity:1;marker:none;marker-start:none;marker-mid:none;marker-end:none;enable-background:accumulate"
     d="m 133.93193,127.64658 c 0.19687,-0.18732 0.4225,-0.24943 0.50396,-0.13883 0.0815,0.11065 -0.0121,0.35213 -0.20899,0.53946 -0.19687,0.18727 -0.69222,0.29079 -0.77367,0.18015 -0.0431,-0.0585 -0.0785,-0.24937 0.007,-0.25816 0.10038,-0.0102 0.22117,-0.0571 0.4716,-0.32264 z m 1.23463,-1.69379 c 0,-0.3618 0.19061,-0.65511 0.42573,-0.65511 0.23513,0 0.42572,0.29331 0.42572,0.65511 0,0.36184 -0.45955,0.9796 -0.69466,0.9796 -0.12443,0 -0.23639,-0.0821 -0.31423,-0.21313 -0.0692,-0.11649 0.1916,-0.28446 0.15744,-0.76647 z m -0.21422,-2.01639 c 0,-0.28673 -0.36835,-0.8407 -0.0845,-0.88142 0.67312,-0.0966 0.90557,0.59469 0.90557,0.88142 0,0.28675 -0.23245,0.51919 -0.51919,0.51919 -0.28675,0 -0.30187,-0.23244 -0.30187,-0.51919 z m -1.75594,-2.044 c 0,-0.32391 0.27801,-0.58647 0.62096,-0.58647 0.34295,0 0.62097,0.26256 0.62097,0.58647 0,0.3239 -0.31185,0.73498 -0.62097,0.58645 -0.2439,-0.11718 -0.38114,-0.54633 -0.62096,-0.58645 z m -9.86645,-2.9151 c 0,-0.37152 0.28574,-0.67271 0.63823,-0.67271 0.35249,0 0.6382,0.30119 0.6382,0.67271 0,0.37156 -0.18755,0.55745 -0.54003,0.55745 -0.16366,0 -0.31292,-0.0649 -0.42588,-0.17167 -0.13032,-0.12314 -0.31052,-0.18674 -0.31052,-0.38578 z m 2.38568,0.72498 c 0,-0.31436 0.32984,-0.51797 0.61566,-0.51797 0.28578,0 0.51749,0.25484 0.51749,0.56919 0,0.31438 -0.29575,0.33019 -0.58155,0.33019 -0.28577,0 -0.5516,-0.067 -0.5516,-0.38141 z m 2.49581,0.25822 c 0,-0.40964 0.29344,-0.7417 0.65546,-0.7417 0.362,0 0.65545,0.33206 0.65545,0.7417 0,0.40963 -0.34895,0.51117 -0.71095,0.51117 -0.36201,0 -0.59996,-0.10154 -0.59996,-0.51117 z m 2.51834,0.53471 c 0,-0.4382 0.30891,-0.79345 0.68996,-0.79345 0.38106,0 1.0039,0.45185 1.0039,0.89004 0,0.43822 -0.67803,0.8944 -1.0039,0.69688 -0.30018,-0.18197 -0.52021,-0.73716 -0.68996,-0.79347 z m -2.96432,-3.30754 c 6.06338,0.0845 11.45176,4.75594 11.08645,8.99706 -0.52361,4.52091 -7.51981,6.50208 -9.355,2.20766 -0.42135,-1.03909 -0.0734,-1.66949 0.3293,-2.35401 0.24146,-0.41043 0.81388,-0.48801 0.88199,-0.47843 0.21088,0.0296 -0.3588,0.65331 -0.27319,0.90147 0.0856,0.24816 0.20613,0.58875 0.5621,0.9552 0.95188,0.97996 2.9382,0.40397 3.68346,-1.17089 1.09283,-2.30933 -1.84679,-4.25746 -3.9274,-4.50067 -4.92794,-0.576 -18.46118,-0.7872 -20.36697,-2.70541 -2.29211,-2.30705 -2.3692,-2.95162 -2.3692,-2.95162 l 0.0138,-5.51477 c 0,0 1.49068,3.77132 6.99944,5.6065 3.91952,0.87449 7.36661,0.86274 12.73522,1.00791 z"
     inkscape:connector-curvature="0"
     sodipodi:nodetypes="ccccscccscsccccssccscccsssscsscssscccscccccccccccscsssccccc" />
  <path
     sodipodi:nodetypes="sssssssssssssssssssssssssssssssssssssssssssssssssssssssccss"
     inkscape:connector-curvature="0"
     d="m 255.36139,166.97811 c -0.0533,-0.26647 0.24943,-0.4225 0.13883,-0.50396 -0.11065,-0.0815 -0.35214,0.0121 -0.53946,0.20899 -0.18728,0.19686 -0.29078,0.69221 -0.18015,0.77367 0.0585,0.0431 0.24937,0.0785 0.25816,-0.007 0.0102,-0.10038 0.39422,-0.11368 0.32264,-0.4716 z m 1.69379,-1.23463 c 0.3615,0.0146 0.65511,-0.19061 0.65511,-0.42573 0,-0.23513 -0.29331,-0.42572 -0.65511,-0.42572 -0.36184,0 -0.9796,0.45955 -0.9796,0.69466 0,0.12443 0.0821,0.23639 0.21313,0.31423 0.11649,0.0692 0.28364,-0.17698 0.76647,-0.15744 z m 2.01639,0.21422 c 0,0.28673 0.84069,0.36835 0.88142,0.0845 0.0966,-0.67312 -0.59469,-0.90557 -0.88142,-0.90557 -0.28675,0 -0.51919,0.23245 -0.51919,0.51919 0,0.28675 0.51919,0.0151 0.51919,0.30187 z m 2.044,1.75594 c 0.32391,0 0.58647,-0.27801 0.58647,-0.62096 0,-0.34295 -0.26256,-0.62097 -0.58647,-0.62097 -0.3239,0 -0.73498,0.31185 -0.58645,0.62097 0.11718,0.2439 0.54633,0.38114 0.58645,0.62096 z m 4.94098,9.81968 c 0.37152,0 0.67271,-0.28574 0.67271,-0.63823 0,-0.35249 -0.30119,-0.6382 -0.67271,-0.6382 -0.37156,0 -0.55745,0.18755 -0.55745,0.54003 0,0.16366 0.0649,0.31292 0.17167,0.42588 0.12314,0.13032 0.18674,0.31052 0.38578,0.31052 z m -2.22169,-2.33891 c 0.31436,0 0.51797,-0.32984 0.51797,-0.61566 0,-0.28578 -0.25484,-0.51749 -0.56919,-0.51749 -0.31438,0 -0.33019,0.29575 -0.33019,0.58155 0,0.28577 0.067,0.5516 0.38141,0.5516 z m -0.78739,-2.49581 c 0.40964,0 0.7417,-0.29344 0.7417,-0.65546 0,-0.362 -0.33206,-0.65545 -0.7417,-0.65545 -0.40963,0 -0.51117,0.34895 -0.51117,0.71095 0,0.36201 0.10154,0.59996 0.51117,0.59996 z m -0.53471,-2.51834 c 0.41446,0.14227 0.79345,-0.30891 0.79345,-0.68996 0,-0.38106 -0.45185,-1.0039 -0.89004,-1.0039 -0.43822,0 -0.89441,0.67804 -0.69688,1.0039 0.18196,0.30019 0.62431,0.6319 0.79347,0.68996 z m 2.6995,-0.16941 c -1.13615,-6.02121 -4.15394,-8.38237 -8.38902,-7.95272 -4.52789,0.45936 -6.50867,7.5353 -2.20766,9.355 1.03264,0.4369 1.66949,0.0734 2.35401,-0.3293 0.41043,-0.24146 0.48801,-0.81388 0.47843,-0.88199 -0.0296,-0.21088 -0.65331,0.3588 -0.90147,0.27319 -0.24816,-0.0856 -0.58875,-0.20613 -0.9552,-0.5621 -0.97996,-0.95188 -0.40397,-2.9382 1.17089,-3.68346 2.30933,-1.09283 4.52592,1.83278 4.50067,3.9274 -0.0771,6.39746 5.31707,9.15729 8.69224,9.18842 4.54441,0.0419 3.76508,1.86851 3.76508,1.86851 L 279.235,181.2 c 0.3074,-0.2077 -2.86466,-7.34025 -6.70059,-5.75039 -2.616,1.08425 -6.45757,-0.85676 -7.32215,-5.43876 z"
     style="color:#000000;display:inline;overflow:visible;visibility:visible;fill:#00e400;fill-opacity:1;fill-rule:evenodd;stroke:none;stroke-width:0;stroke-linecap:butt;stroke-linejoin:miter;stroke-miterlimit:4;stroke-dasharray:none;stroke-dashoffset:0;stroke-opacity:1;marker:none;marker-start:none;marker-mid:none;marker-end:none;enable-background:accumulate"
     id="path10022" />
  <path
     style="color:#000000;display:inline;overflow:visible;visibility:visible;fill:none;fill-rule:evenodd;stroke:#000000;stroke-width:1;stroke-linecap:butt;stroke-linejoin:miter;stroke-miterlimit:4;stroke-dasharray:none;stroke-dashoffset:0;stroke-opacity:1;marker:none;marker-start:none;marker-mid:none;marker-end:none;enable-background:accumulate"
     d="m 148.87184,185.53324 c 0,10.95959 8.8845,19.84409 19.84409,19.84409 10.95959,0 19.84409,-8.8845 19.84409,-19.84409 h 2.48754 v 0 h 5.09 v 0 h 5.02499 l -2e-5,1.97228 h -3.2 v 4.91 h 3.2 v 5.21727 h -3.2 v 4.91 h 3.2 v 5.21727 h -3.2 v 4.91 h 3.2 v 5.21727 h -3.2 v 4.91 h 3.2 v 5.21728 h -3.2 v 4.91 h 3.2 v 5.21727 h -3.2 v 4.91 h 3.2 v 5.21727 h -3.2 v 4.91 h 3.2 v 5.21728 h -3.2 v 4.91 h 3.2 v 5.21727 h -3.2 v 4.91 h 3.2 v 5.21727 h -3.2 v 4.91 h 3.2 v 1.97227 h -5.025 v 3.2 h -5.09 v -3.2 h -4.98 v 3.2 h -5.09 v -3.2 h -4.98 v 3.2 h -5.09 v -3.2 h -4.98 v 3.2 h -5.09 v -3.2 h -4.98 v 3.2 h -5.09 v -3.2 h -4.98 v 3.2 h -5.09 v -3.2 h -4.98 v 3.2 h -5.09 v -3.2 h -4.98 v 3.2 h -5.09 v -3.2 h -4.98 v 3.2 h -5.09 v -3.2 h -4.98 v 3.2 h -5.09003 v -3.2 h -4.979997 v 3.2 h -5.09 v -3.2 h -4.98 v 3.2 h -5.09 v -3.2 h -4.98 v 3.2 h -5.09 v -3.2 h -4.98 v 3.2 h -5.09 v -3.2 h -4.98 v 3.2 h -5.09 v -3.2 h -4.98 v 3.2 h -5.09 v -3.2 h -4.98 v 3.2 h -5.09 v -3.2 h -4.98 v 3.2 h -5.09 v -3.2 h -4.98 v 3.2 H 9.7875003 v -3.2 H 4.7625002 v -1.97227 h 3.2000001 v -4.91 H 4.7625002 v -5.21727 h 3.2000001 v -4.91 H 4.7625002 v -5.21727 h 3.2000001 v -4.91 H 4.7625002 v -5.21728 h 3.2000001 v -4.91 H 4.7625002 v -5.21727 h 3.2000001 v -4.91 H 4.7625002 v -5.21727 h 3.2000001 v -4.91 H 4.7625002 v -5.21728 h 3.2000001 v -4.91 H 4.7625002 v -5.21727 h 3.2000001 v -4.91 H 4.7625002 v -5.21727 h 3.2000001 v -4.91 H 4.7625002 v -5.21727 h 3.2000001 v -4.91 H 4.7625002 v -1.97228 l 5.0250001,0 v 0 h 5.0900027 v 0 h 4.98 0.0072 c 0.0072,10.95959 8.891673,19.84409 19.851263,19.84409 10.95959,0 19.84409,-8.8845 19.84409,-19.84409 h 0.577474 v 0 h 5.09 v 0 h 3.934973 v 49.955 h 3.2 v -49.955 h 6.135027 -3.2 4.98 v 0 h 4.094319 c 0,10.95959 8.8845,19.84409 19.844081,19.84409 10.95959,0 19.84409,-8.8845 19.84409,-19.84409 l 9.50251,0.0157 0,49.93925 h 3.2 v -49.91385 l 12.10931,-0.0411"
     id="path10335"
     inkscape:connector-curvature="0"
     sodipodi:nodetypes="cscccccccccccccccccccccccccccccccccccccccccccccccccccccccccccccccccccccccccccccccccccccccccccccccccccccccccccccccccccccccccccccccccccccccccccccccccccccccccccccccccccccccccccsccccccccccccccscccccc" />
  <path
     id="path10350"
     d="m 306.81125,108.97992 v 3.20032 h -1.88206 c -1e-4,20.68716 0,41.90337 0,62.59053 0,4.09211 3.31727,7.40937 7.40937,7.40937 h 92.59072 v -1.93012 h 3.19982 v -5.09013 h -3.19982 v -5.08496 h 3.19982 v -5.09013 h -3.19982 v -4.00493 h -50.28324 v -3.19981 h 53.48306 v -2.96984 h -3.19982 v -5.08496 h 3.19982 v -5.09013 h -3.19982 v -5.08497 h 3.19982 v -2.97036 h -53.48306 v -3.19981 h 50.28324 v -4.00492 h 3.19982 v -5.09013 h -3.19982 v -5.08497 h 3.19982 v -5.09013 h -3.19982 v -1.9296 h -1.88256 v -3.20032 h -5.08963 v 3.20032 h -5.0374 v -3.20032 h -5.09014 v 3.20032 h -5.03743 v -3.20032 h -5.0896 v 3.20032 h -5.03743 v -3.20032 h -5.09011 v 3.20032 h -5.03742 v -3.20032 h -5.08961 v 3.20032 h -5.03743 v -3.20032 h -5.09013 v 3.20032 h -5.0369 v -3.20032 h -5.09013 v 3.20032 h -5.03741 v -3.20032 h -5.09013 v 3.20032 h -5.0369 v -3.20032 h -5.09013 v 3.20032 h -5.03743 v -3.20032 z"
     style="fill:none;stroke:#000000;stroke-width:1"
     inkscape:connector-curvature="0" />
  <path
     sodipodi:nodetypes="cscccccccccccccccccccccccccccccccccccccccccccccccccccccccccccccccccccccccccccccccccccccccccccccccccccccccccccccccccccccccccccccccccccccccccccccccccccccccccccccccccccccccccccsccccccccccccccscccccc"
     inkscape:connector-curvature="0"
     id="path10352"
     d="m 344.66363,185.53324 c 0,10.95959 8.8845,19.84409 19.84409,19.84409 10.95959,0 19.84409,-8.8845 19.84409,-19.84409 h 2.48754 v 0 h 5.09 v 0 h 5.02499 l -2e-5,1.97228 h -3.2 v 4.91 h 3.2 v 5.21727 h -3.2 v 4.91 h 3.2 v 5.21727 h -3.2 v 4.91 h 3.2 v 5.21727 h -3.2 v 4.91 h 3.2 v 5.21728 h -3.2 v 4.91 h 3.2 v 5.21727 h -3.2 v 4.91 h 3.2 v 5.21727 h -3.2 v 4.91 h 3.2 v 5.21728 h -3.2 v 4.91 h 3.2 v 5.21727 h -3.2 v 4.91 h 3.2 v 5.21727 h -3.2 v 4.91 h 3.2 v 1.97227 h -5.025 v 3.2 h -5.09 v -3.2 h -4.98 v 3.2 h -5.09 v -3.2 h -4.98 v 3.2 h -5.09 v -3.2 h -4.98 v 3.2 h -5.09 v -3.2 h -4.98 v 3.2 h -5.09 v -3.2 h -4.98 v 3.2 h -5.09 v -3.2 h -4.98 v 3.2 h -5.09 v -3.2 h -4.98 v 3.2 h -5.09 v -3.2 h -4.98 v 3.2 h -5.09 v -3.2 h -4.98 v 3.2 h -5.09003 v -3.2 h -4.98 v 3.2 h -5.09 v -3.2 h -4.98001 v 3.2 h -5.09 v -3.2 h -4.98 v 3.2 h -5.09001 v -3.2 h -4.98 v 3.2 h -5.09 v -3.2 h -4.98 v 3.2 h -5.09001 v -3.2 h -4.98 v 3.2 h -5.09 v -3.2 h -4.98001 v 3.2 h -5.09 v -3.2 h -4.98 v 3.2 h -5.09001 v -3.2 h -4.98 v 3.2 h -5.09 v -3.2 h -5.025 v -1.97227 h 3.2 v -4.91 h -3.2 v -5.21727 h 3.2 v -4.91 h -3.2 v -5.21727 h 3.2 v -4.91 h -3.2 v -5.21728 h 3.2 v -4.91 h -3.2 v -5.21727 h 3.2 v -4.91 h -3.2 v -5.21727 h 3.2 v -4.91 h -3.2 v -5.21728 h 3.2 v -4.91 h -3.2 v -5.21727 h 3.2 v -4.91 h -3.2 v -5.21727 h 3.2 v -4.91 h -3.2 v -5.21727 h 3.2 v -4.91 h -3.2 v -1.97228 h 5.025 v 0 h 5.09 v 0 h 4.98 0.007 c 0.007,10.95959 8.89168,19.84409 19.85128,19.84409 10.9596,0 19.8441,-8.8845 19.8441,-19.84409 h 0.57748 v 0 h 5.09 v 0 h 3.93497 v 49.955 h 3.2 v -49.955 h 6.13503 -3.2 4.98001 v 0 h 4.09432 c 0,10.95959 8.8845,19.84409 19.84409,19.84409 10.95959,0 19.84409,-8.8845 19.84409,-19.84409 l 9.50251,0.0157 v 49.93925 h 3.2 v -49.91385 l 12.10931,-0.0411"
     style="color:#000000;display:inline;overflow:visible;visibility:visible;fill:none;fill-rule:evenodd;stroke:#000000;stroke-width:1;stroke-linecap:butt;stroke-linejoin:miter;stroke-miterlimit:4;stroke-dasharray:none;stroke-dashoffset:0;stroke-opacity:1;marker:none;marker-start:none;marker-mid:none;marker-end:none;enable-background:accumulate" />
  <g
     transform="rotate(-180,56.387012,188.9516)"
     id="g10390">
    <path
       id="path10388"
       transform="matrix(0.26458333,0,0,0.26458333,-0.07593011,192.45785)"
       d="m 46.152344,15.117188 c -15.417562,0 -27.916016,12.498453 -27.916016,27.916015 v 52.210938 h 7.113281 v 12.093749 h -7.113281 v 67.49023 12.63672 h 7.113281 v 12.09375 h -7.113281 v 14.12305 19.23828 19.61524 19.23828 7.6914 h 7.113281 v 12.09375 L 49.837891,381.7793 389.07422,291.55859 v -12.09375 l 7.11523,0.10938 v -7.1836 h 12.09375 v -19.23828 h -12.09375 v -19.21875 h 12.09375 v -19.23828 h -12.09375 v -15.13672 h -7.11523 v -12.09375 h 7.11523 v 8.01172 h 12.09375 v -19.23633 h -12.09375 v -19.2207 H 408.2832 V 137.7832 H 396.18945 V 118.56445 H 408.2832 V 99.326172 h -12.09375 v 8.011718 h -7.11523 V 95.244141 h 7.11523 V 80.107422 H 408.2832 V 60.869141 H 396.18945 V 41.650391 H 408.2832 V 22.412109 H 396.18945 V 15.117188 H 389.07422 369.83789 350.79883 331.56055 312.52148 293.28516 274.24609 255.00781 235.96875 216.73242 197.69336 178.45508 159.41797 140.17969 121.14062 101.90234 82.865234 63.626953 Z M 44.587891,95.244141 H 63.626953 V 107.33789 H 44.587891 Z m 38.277343,0 H 101.90234 V 107.33789 H 82.865234 Z m 38.275386,0 h 19.03907 v 12.093749 h -19.03907 z m 38.27735,0 h 19.03711 v 12.093749 h -19.03711 z m 38.27539,0 h 19.03906 v 12.093749 h -19.03906 z m 38.27539,0 h 19.03906 v 12.093749 h -19.03906 z m 38.27734,0 h 19.03907 v 12.093749 h -19.03907 z m 38.27539,0 h 19.03907 v 12.093749 h -19.03907 z m 38.27735,0 h 19.03906 V 107.33789 H 350.79883 Z M 44.587891,187.46484 h 19.039062 v 12.09375 H 44.587891 Z m 38.277343,0 h 19.037106 v 12.09375 H 82.865234 Z m 38.275386,0 h 19.03907 v 12.09375 h -19.03907 z m 38.27735,0 h 19.03711 v 12.09375 h -19.03711 z m 38.27539,0 h 19.03906 v 12.09375 h -19.03906 z m 38.27539,0 h 19.03906 v 12.09375 h -19.03906 z m 38.27734,0 h 19.03907 v 12.09375 h -19.03907 z m 38.27539,0 h 19.03907 v 12.09375 h -19.03907 z m 38.27735,0 h 19.03906 v 12.09375 h -19.03906 z m -306.210939,92 h 19.039062 v 12.09375 H 44.587891 Z m 38.277343,0 h 19.037106 v 12.09375 H 82.865234 Z m 38.275386,0 h 19.03907 v 12.09375 h -19.03907 z m 38.27735,0 h 19.03711 v 12.09375 h -19.03711 z m 38.27539,0 h 19.03906 v 12.09375 h -19.03906 z m 38.27539,0 h 19.03906 v 12.09375 h -19.03906 z m 38.27734,0 h 19.03907 v 12.09375 h -19.03907 z m 38.27539,0 h 19.03907 v 12.09375 h -19.03907 z m 38.27735,0 h 19.03906 v 12.09375 h -19.03906 z"
       style="fill:none;stroke:#000000;stroke-width:3.77952766"
       inkscape:connector-curvature="0" />
  </g>
</svg>
