<?xml version="1.0" encoding="UTF-8" standalone="no"?>
<!-- Created with Inkscape (http://www.inkscape.org/) -->

<svg
   xmlns:dc="http://purl.org/dc/elements/1.1/"
   xmlns:cc="http://creativecommons.org/ns#"
   xmlns:rdf="http://www.w3.org/1999/02/22-rdf-syntax-ns#"
   xmlns:svg="http://www.w3.org/2000/svg"
   xmlns="http://www.w3.org/2000/svg"
   xmlns:sodipodi="http://sodipodi.sourceforge.net/DTD/sodipodi-0.dtd"
   xmlns:inkscape="http://www.inkscape.org/namespaces/inkscape"
   id="svg5602"
   version="1.1"
   viewBox="0 0 500 300"
   height="300mm"
   width="500mm"
   inkscape:version=""
   sodipodi:docname="itemcard-holder.svg">
  <sodipodi:namedview
     inkscape:window-maximized="1"
     inkscape:window-y="0"
     inkscape:window-x="18"
     inkscape:window-height="1076"
     inkscape:window-width="1880"
     showgrid="false"
     inkscape:current-layer="svg5602"
     inkscape:document-units="mm"
     inkscape:cy="438.71627"
     inkscape:cx="707.61501"
     inkscape:zoom="0.70710678"
     inkscape:pageshadow="2"
     inkscape:pageopacity="0.0"
     borderopacity="1.0"
     bordercolor="#666666"
     pagecolor="#ffffff"
     id="base"
     inkscape:measure-start="0,0"
     inkscape:measure-end="0,0"
     showguides="true"
     inkscape:guide-bbox="true"
     inkscape:object-paths="true" />
  <defs
     id="defs5596" />
  <metadata
     id="metadata5599">
    <rdf:RDF>
      <cc:Work
         rdf:about="">
        <dc:format>image/svg+xml</dc:format>
        <dc:type
           rdf:resource="http://purl.org/dc/dcmitype/StillImage" />
        <dc:title />
      </cc:Work>
    </rdf:RDF>
  </metadata>
  <g
     id="layer1"
     inkscape:groupmode="layer"
     inkscape:label="Layer 1"
     transform="translate(0,3)" />
  <g
     id="g11301"
     inkscape:groupmode="layer"
     inkscape:label="newlayer"
     transform="translate(0,3)" />
  <path
     style="fill:none;stroke:#000000;stroke-width:3.77952766"
     d="M 27.90625 26.457031 L 27.90625 34.185547 L 40 34.185547 L 40 52.744141 L 27.90625 52.744141 L 27.90625 72.736328 L 40 72.736328 L 40 91.294922 L 27.90625 91.294922 L 27.90625 111.28906 L 40 111.28906 L 40 129.8457 L 27.90625 129.8457 L 27.90625 149.83984 L 40 149.83984 L 40 168.39648 L 27.90625 168.39648 L 27.90625 188.39062 L 40 188.39062 L 40 206.94727 L 27.90625 206.94727 L 27.90625 226.94141 L 40 226.94141 L 40 245.5 L 27.90625 245.5 L 27.90625 253.22852 L 47.683594 253.22852 L 47.683594 265.32227 L 66.921875 265.32227 L 66.921875 253.22852 L 86.53125 253.22852 L 86.53125 265.32227 L 105.76953 265.32227 L 105.76953 253.22852 L 125.37891 253.22852 L 125.37891 265.32227 L 144.61719 265.32227 L 144.61719 253.22852 L 164.22461 253.22852 L 164.22461 265.32227 L 183.46289 265.32227 L 183.46289 253.22852 L 203.07227 253.22852 L 203.07227 265.32227 L 222.31055 265.32227 L 222.31055 253.22852 L 241.91992 253.22852 L 241.91992 265.32227 L 261.15625 265.32227 L 261.15625 253.22852 L 280.76562 253.22852 L 280.76562 265.32227 L 300.00391 265.32227 L 300.00391 253.22852 L 319.61328 253.22852 L 319.61328 265.32227 L 338.85156 265.32227 L 338.85156 253.22852 L 358.46094 253.22852 L 358.46094 265.32227 L 377.69727 265.32227 L 377.69727 253.22852 L 397.30664 253.22852 L 397.30664 265.32227 L 416.54492 265.32227 L 416.54492 253.22852 L 436.1543 253.22852 L 436.1543 265.32227 L 455.39258 265.32227 L 455.39258 253.22852 L 475.00195 253.22852 L 475.00195 265.32227 L 494.23828 265.32227 L 494.23828 253.22852 L 513.84766 253.22852 L 513.84766 265.32227 L 533.08594 265.32227 L 533.08594 253.22852 L 552.69531 253.22852 L 552.69531 265.32227 L 571.93359 265.32227 L 571.93359 253.22852 L 591.54297 253.22852 L 591.54297 265.32227 L 610.7793 265.32227 L 610.7793 253.22852 L 630.38867 253.22852 L 630.38867 265.32227 L 649.62695 265.32227 L 649.62695 253.22852 L 669.23633 253.22852 L 669.23633 265.32227 L 688.47461 265.32227 L 688.47461 253.22852 L 708.08398 253.22852 L 708.08398 265.32227 L 727.32031 265.32227 L 727.32031 253.22852 L 746.92969 253.22852 L 746.92969 265.32227 L 766.16797 265.32227 L 766.16797 253.22852 L 785.77734 253.22852 L 785.77734 265.32227 L 805.01562 265.32227 L 805.01562 253.22852 L 824.62305 253.22852 L 824.62305 265.32227 L 843.86133 265.32227 L 843.86133 253.22852 L 863.4707 253.22852 L 863.4707 265.32227 L 882.70898 265.32227 L 882.70898 253.22852 L 902.48828 253.22852 L 902.48828 245.5 L 890.39258 245.5 L 890.39258 226.94141 L 902.48828 226.94141 L 902.48828 206.94727 L 890.39258 206.94727 L 890.39258 188.39062 L 902.48828 188.39062 L 902.48828 168.39648 L 890.39258 168.39648 L 890.39258 149.83984 L 902.48828 149.83984 L 902.48828 129.8457 L 890.39258 129.8457 L 890.39258 111.28906 L 902.48828 111.28906 L 902.48828 91.294922 L 890.39258 91.294922 L 890.39258 72.736328 L 902.48828 72.736328 L 902.48828 52.744141 L 890.39258 52.744141 L 890.39258 34.185547 L 902.48828 34.185547 L 902.48828 26.457031 L 27.90625 26.457031 z M 200.40234 34.185547 L 212.49805 34.185547 L 212.49805 52.744141 L 200.40234 52.744141 L 200.40234 34.185547 z M 372.90039 34.185547 L 384.99414 34.185547 L 384.99414 52.744141 L 372.90039 52.744141 L 372.90039 34.185547 z M 545.39844 34.185547 L 557.49219 34.185547 L 557.49219 52.744141 L 545.39844 52.744141 L 545.39844 34.185547 z M 717.89648 34.185547 L 729.99023 34.185547 L 729.99023 52.744141 L 717.89648 52.744141 L 717.89648 34.185547 z M 200.40234 72.736328 L 212.49805 72.736328 L 212.49805 91.294922 L 200.40234 91.294922 L 200.40234 72.736328 z M 372.90039 72.736328 L 384.99414 72.736328 L 384.99414 91.294922 L 372.90039 91.294922 L 372.90039 72.736328 z M 545.39844 72.736328 L 557.49219 72.736328 L 557.49219 91.294922 L 545.39844 91.294922 L 545.39844 72.736328 z M 717.89648 72.736328 L 729.99023 72.736328 L 729.99023 91.294922 L 717.89648 91.294922 L 717.89648 72.736328 z M 200.40234 111.28906 L 212.49805 111.28906 L 212.49805 129.8457 L 200.40234 129.8457 L 200.40234 111.28906 z M 372.90039 111.28906 L 384.99414 111.28906 L 384.99414 129.8457 L 372.90039 129.8457 L 372.90039 111.28906 z M 545.39844 111.28906 L 557.49219 111.28906 L 557.49219 129.8457 L 545.39844 129.8457 L 545.39844 111.28906 z M 717.89648 111.28906 L 729.99023 111.28906 L 729.99023 129.8457 L 717.89648 129.8457 L 717.89648 111.28906 z M 200.40234 149.83984 L 212.49805 149.83984 L 212.49805 168.39648 L 200.40234 168.39648 L 200.40234 149.83984 z M 372.90039 149.83984 L 384.99414 149.83984 L 384.99414 168.39648 L 372.90039 168.39648 L 372.90039 149.83984 z M 545.39844 149.83984 L 557.49219 149.83984 L 557.49219 168.39648 L 545.39844 168.39648 L 545.39844 149.83984 z M 717.89648 149.83984 L 729.99023 149.83984 L 729.99023 168.39648 L 717.89648 168.39648 L 717.89648 149.83984 z M 200.40234 188.39062 L 212.49805 188.39062 L 212.49805 206.94727 L 200.40234 206.94727 L 200.40234 188.39062 z M 372.90039 188.39062 L 384.99414 188.39062 L 384.99414 206.94727 L 372.90039 206.94727 L 372.90039 188.39062 z M 545.39844 188.39062 L 557.49219 188.39062 L 557.49219 206.94727 L 545.39844 206.94727 L 545.39844 188.39062 z M 717.89648 188.39062 L 729.99023 188.39062 L 729.99023 206.94727 L 717.89648 206.94727 L 717.89648 188.39062 z M 200.40234 226.94141 L 212.49805 226.94141 L 212.49805 245.5 L 200.40234 245.5 L 200.40234 226.94141 z M 372.90039 226.94141 L 384.99414 226.94141 L 384.99414 245.5 L 372.90039 245.5 L 372.90039 226.94141 z M 545.39844 226.94141 L 557.49219 226.94141 L 557.49219 245.5 L 545.39844 245.5 L 545.39844 226.94141 z M 717.89648 226.94141 L 729.99023 226.94141 L 729.99023 245.5 L 717.89648 245.5 L 717.89648 226.94141 z "
     transform="scale(0.26458333)"
     id="path11303" />
  <path
     style="fill:none;stroke:#000000;stroke-width:3.77952766"
     d="M 27.90625 268.3457 L 27.90625 288.07617 L 40 288.07617 L 40 306.63281 L 27.90625 306.63281 L 27.90625 326.5332 L 40 326.5332 L 40 345.08984 L 27.90625 345.08984 L 27.90625 364.98828 L 40 364.98828 L 40 383.54688 L 27.90625 383.54688 L 27.90625 403.44531 L 40 403.44531 L 40 422.00391 L 27.90625 422.00391 L 27.90625 441.90234 L 40 441.90234 L 40 460.45898 L 27.90625 460.45898 L 27.90625 480.35938 L 40 480.35938 L 40 498.91602 L 27.90625 498.91602 L 27.90625 518.81641 L 40 518.81641 L 40 537.37305 L 27.90625 537.37305 L 27.90625 545.00781 L 50.099609 545.00781 C 50.099609 506.54144 81.283654 475.35742 119.75 475.35742 C 158.21635 475.35742 189.39844 506.54144 189.39844 545.00781 L 222.59961 545.00781 C 222.59961 506.54144 253.78363 475.35742 292.25 475.35742 C 330.71637 475.35742 361.89844 506.54144 361.89844 545.00781 L 395.09961 545.00781 C 395.09961 506.54144 426.28363 475.35742 464.75 475.35742 C 503.21637 475.35742 534.39844 506.54144 534.39844 545.00781 L 567.59961 545.00781 C 567.59961 506.54144 598.78363 475.35742 637.25 475.35742 C 675.71637 475.35742 706.89844 506.54144 706.89844 545.00781 L 740.09961 545.00781 C 740.09961 506.54144 771.28363 475.35742 809.75 475.35742 C 848.21637 475.35742 879.40039 506.54144 879.40039 545.00781 L 902.48828 545.00781 L 902.48828 537.37305 L 890.39258 537.37305 L 890.39258 518.81641 L 902.48828 518.81641 L 902.48828 498.91602 L 890.39258 498.91602 L 890.39258 480.35938 L 902.48828 480.35938 L 902.48828 460.45898 L 890.39258 460.45898 L 890.39258 441.90234 L 902.48828 441.90234 L 902.48828 422.00391 L 890.39258 422.00391 L 890.39258 403.44531 L 902.48828 403.44531 L 902.48828 383.54688 L 890.39258 383.54688 L 890.39258 364.98828 L 902.48828 364.98828 L 902.48828 345.08984 L 890.39258 345.08984 L 890.39258 326.5332 L 902.48828 326.5332 L 902.48828 306.63281 L 890.39258 306.63281 L 890.39258 288.07617 L 902.48828 288.07617 L 902.48828 268.3457 L 882.36914 268.3457 L 882.36914 280.44141 L 863.81055 280.44141 L 863.81055 268.3457 L 843.52148 268.3457 L 843.52148 280.44141 L 824.96484 280.44141 L 824.96484 268.3457 L 804.67383 268.3457 L 804.67383 280.44141 L 786.11719 280.44141 L 786.11719 268.3457 L 765.82812 268.3457 L 765.82812 280.44141 L 747.26953 280.44141 L 747.26953 268.3457 L 726.98047 268.3457 L 726.98047 280.44141 L 708.42383 280.44141 L 708.42383 268.3457 L 688.13281 268.3457 L 688.13281 280.44141 L 669.57617 280.44141 L 669.57617 268.3457 L 649.28711 268.3457 L 649.28711 280.44141 L 630.72852 280.44141 L 630.72852 268.3457 L 610.43945 268.3457 L 610.43945 280.44141 L 591.88281 280.44141 L 591.88281 268.3457 L 571.5918 268.3457 L 571.5918 280.44141 L 553.03516 280.44141 L 553.03516 268.3457 L 532.74609 268.3457 L 532.74609 280.44141 L 514.1875 280.44141 L 514.1875 268.3457 L 493.89844 268.3457 L 493.89844 280.44141 L 475.3418 280.44141 L 475.3418 268.3457 L 455.05273 268.3457 L 455.05273 280.44141 L 436.49414 280.44141 L 436.49414 268.3457 L 416.20508 268.3457 L 416.20508 280.44141 L 397.64648 280.44141 L 397.64648 268.3457 L 377.35742 268.3457 L 377.35742 280.44141 L 358.80078 280.44141 L 358.80078 268.3457 L 338.51172 268.3457 L 338.51172 280.44141 L 319.95312 280.44141 L 319.95312 268.3457 L 299.66406 268.3457 L 299.66406 280.44141 L 281.10742 280.44141 L 281.10742 268.3457 L 260.81641 268.3457 L 260.81641 280.44141 L 242.25977 280.44141 L 242.25977 268.3457 L 221.9707 268.3457 L 221.9707 280.44141 L 203.41211 280.44141 L 203.41211 268.3457 L 183.12305 268.3457 L 183.12305 280.44141 L 164.56641 280.44141 L 164.56641 268.3457 L 144.27539 268.3457 L 144.27539 280.44141 L 125.71875 280.44141 L 125.71875 268.3457 L 105.42969 268.3457 L 105.42969 280.44141 L 86.871094 280.44141 L 86.871094 268.3457 L 66.582031 268.3457 L 66.582031 280.44141 L 48.025391 280.44141 L 48.025391 268.3457 L 27.90625 268.3457 z M 200.40234 288.07617 L 212.49805 288.07617 L 212.49805 306.63281 L 200.40234 306.63281 L 200.40234 288.07617 z M 372.90039 288.07617 L 384.99414 288.07617 L 384.99414 306.63281 L 372.90039 306.63281 L 372.90039 288.07617 z M 545.39844 288.07617 L 557.49219 288.07617 L 557.49219 306.63281 L 545.39844 306.63281 L 545.39844 288.07617 z M 717.89648 288.07617 L 729.99023 288.07617 L 729.99023 306.63281 L 717.89648 306.63281 L 717.89648 288.07617 z M 200.40234 326.5332 L 212.49805 326.5332 L 212.49805 345.08984 L 200.40234 345.08984 L 200.40234 326.5332 z M 372.90039 326.5332 L 384.99414 326.5332 L 384.99414 345.08984 L 372.90039 345.08984 L 372.90039 326.5332 z M 545.39844 326.5332 L 557.49219 326.5332 L 557.49219 345.08984 L 545.39844 345.08984 L 545.39844 326.5332 z M 717.89648 326.5332 L 729.99023 326.5332 L 729.99023 345.08984 L 717.89648 345.08984 L 717.89648 326.5332 z M 200.40234 364.98828 L 212.49805 364.98828 L 212.49805 383.54688 L 200.40234 383.54688 L 200.40234 364.98828 z M 372.90039 364.98828 L 384.99414 364.98828 L 384.99414 383.54688 L 372.90039 383.54688 L 372.90039 364.98828 z M 545.39844 364.98828 L 557.49219 364.98828 L 557.49219 383.54688 L 545.39844 383.54688 L 545.39844 364.98828 z M 717.89648 364.98828 L 729.99023 364.98828 L 729.99023 383.54688 L 717.89648 383.54688 L 717.89648 364.98828 z M 200.40234 403.44531 L 212.49805 403.44531 L 212.49805 422.00391 L 200.40234 422.00391 L 200.40234 403.44531 z M 372.90039 403.44531 L 384.99414 403.44531 L 384.99414 422.00391 L 372.90039 422.00391 L 372.90039 403.44531 z M 545.39844 403.44531 L 557.49219 403.44531 L 557.49219 422.00391 L 545.39844 422.00391 L 545.39844 403.44531 z M 717.89648 403.44531 L 729.99023 403.44531 L 729.99023 422.00391 L 717.89648 422.00391 L 717.89648 403.44531 z M 200.40234 441.90234 L 212.49805 441.90234 L 212.49805 460.45898 L 200.40234 460.45898 L 200.40234 441.90234 z M 372.90039 441.90234 L 384.99414 441.90234 L 384.99414 460.45898 L 372.90039 460.45898 L 372.90039 441.90234 z M 545.39844 441.90234 L 557.49219 441.90234 L 557.49219 460.45898 L 545.39844 460.45898 L 545.39844 441.90234 z M 717.89648 441.90234 L 729.99023 441.90234 L 729.99023 460.45898 L 717.89648 460.45898 L 717.89648 441.90234 z M 200.40234 480.35938 L 212.49805 480.35938 L 212.49805 498.91602 L 200.40234 498.91602 L 200.40234 480.35938 z M 372.90039 480.35938 L 384.99414 480.35938 L 384.99414 498.91602 L 372.90039 498.91602 L 372.90039 480.35938 z M 545.39844 480.35938 L 557.49219 480.35938 L 557.49219 498.91602 L 545.39844 498.91602 L 545.39844 480.35938 z M 717.89648 480.35938 L 729.99023 480.35938 L 729.99023 498.91602 L 717.89648 498.91602 L 717.89648 480.35938 z M 200.40234 518.81641 L 212.49805 518.81641 L 212.49805 537.37305 L 200.40234 537.37305 L 200.40234 518.81641 z M 372.90039 518.81641 L 384.99414 518.81641 L 384.99414 537.37305 L 372.90039 537.37305 L 372.90039 518.81641 z M 545.39844 518.81641 L 557.49219 518.81641 L 557.49219 537.37305 L 545.39844 537.37305 L 545.39844 518.81641 z M 717.89648 518.81641 L 729.99023 518.81641 L 729.99023 537.37305 L 717.89648 537.37305 L 717.89648 518.81641 z "
     transform="scale(0.26458333)"
     id="path11399" />
  <path
     style="color:#000000;font-style:normal;font-variant:normal;font-weight:normal;font-stretch:normal;font-size:medium;line-height:normal;font-family:sans-serif;font-variant-ligatures:normal;font-variant-position:normal;font-variant-caps:normal;font-variant-numeric:normal;font-variant-alternates:normal;font-feature-settings:normal;text-indent:0;text-align:start;text-decoration:none;text-decoration-line:none;text-decoration-style:solid;text-decoration-color:#000000;letter-spacing:normal;word-spacing:normal;text-transform:none;writing-mode:lr-tb;direction:ltr;text-orientation:mixed;dominant-baseline:auto;baseline-shift:baseline;text-anchor:start;white-space:normal;shape-padding:0;clip-rule:nonzero;display:inline;overflow:visible;visibility:visible;opacity:1;isolation:auto;mix-blend-mode:normal;color-interpolation:sRGB;color-interpolation-filters:linearRGB;solid-color:#000000;solid-opacity:1;vector-effect:none;fill:#3f4a9f;fill-opacity:0.98363635;fill-rule:nonzero;stroke:none;stroke-width:2.38899994;stroke-linecap:butt;stroke-linejoin:miter;stroke-miterlimit:4;stroke-dasharray:none;stroke-dashoffset:0;stroke-opacity:1;color-rendering:auto;image-rendering:auto;shape-rendering:auto;text-rendering:auto;enable-background:accumulate"
     d="m 167.72828,93.295409 c -0.98014,0.08319 -1.96702,0.360963 -2.9082,0.847657 -1.88366,0.974082 -3.16698,2.842912 -3.7207,4.916015 -0.55373,2.073109 -0.37338,4.428519 0.93164,6.351569 0.24693,0.36387 0.50464,0.5568 0.77148,0.81836 -1.39911,0.6252 -2.63345,1.48306 -3.51367,2.60742 -1.27116,1.62374 -2.06368,3.51026 -2.53711,5.13281 -0.32526,1.11473 -0.48677,2.27266 0.12109,3.28711 0.60787,1.01445 1.61294,1.61342 3.16407,2.46289 4.70779,2.57816 10.33086,2.52298 15.39062,0.25781 l 0.0469,-0.0215 0.0469,-0.0254 c 1.87184,-1.04481 2.99065,-1.57866 3.83008,-2.34961 0.41972,-0.38548 0.77047,-0.901 0.9082,-1.46875 0.13773,-0.56775 0.0893,-1.10536 -0.006,-1.65625 -0.83304,-4.82078 -4.22854,-7.22154 -6.20507,-8.27149 0.8752,-0.98929 1.58528,-2.08068 1.85547,-3.35156 0.36024,-1.6945 0.065,-3.55922 -0.88868,-5.464845 l -0.004,-0.0078 -0.002,-0.0059 c -1.45445,-2.81257 -4.34081,-4.308166 -7.28125,-4.058594 z m 0.22657,2.341797 c 2.01311,-0.210094 3.88509,0.800302 4.92578,2.804688 0.76557,1.532386 0.91936,2.794706 0.68554,3.894536 -0.23414,1.10135 -0.87592,2.10065 -1.94921,3.02539 l -0.16407,0.14258 -0.97851,1.79297 1.36914,0.44336 c 0,0 5.10486,1.62452 6.05469,7.12109 0.0698,0.40407 0.0573,0.61023 0.0391,0.68555 -0.0183,0.0753 -0.0163,0.10368 -0.20117,0.27343 -0.36326,0.33362 -1.48332,0.96277 -3.32032,1.98828 -4.4661,1.98839 -9.24795,1.99845 -13.23242,-0.18359 -1.4634,-0.80143 -2.11689,-1.35595 -2.26172,-1.59766 -0.14483,-0.2417 -0.15333,-0.44146 0.12305,-1.38867 0.40914,-1.4022 1.11669,-3.0421 2.125,-4.33008 1.00831,-1.28797 2.25766,-2.2106 3.89648,-2.44726 l 1.02344,-0.14844 v -1.0332 c 0,-0.52155 -0.19499,-0.70669 -0.29883,-0.8418 -0.10383,-0.13511 -0.18971,-0.21646 -0.27539,-0.29687 -0.17134,-0.16082 -0.34431,-0.30198 -0.52734,-0.45899 -0.36605,-0.31401 -0.7568,-0.68406 -0.98047,-1.01367 -0.84755,-1.24892 -1.00341,-2.88079 -0.59961,-4.39258 0.4038,-1.511792 1.37172,-2.823603 2.50977,-3.412111 0.67741,-0.350301 1.36503,-0.556813 2.03711,-0.626953 z"
     id="path11614"
     inkscape:connector-curvature="0" />
  <path
     style="fill:#3f4a9f;fill-opacity:0.98363635;stroke-width:0.4407846"
     d="m 59.393931,117.70024 c -0.79608,-0.93457 -0.80762,-1.30023 -0.25941,-8.21499 0.46417,-5.85478 0.19584,-7.09017 0.76231,-7.30224 0.38511,-0.14411 1.41019,-0.72244 1.65262,-1.04455 0.24243,-0.32208 1.63091,-0.95992 3.08549,-1.417415 1.45459,-0.457482 3.65954,-1.275762 4.89989,-1.818382 2.53214,-1.10777 4.35248,-0.94081 4.79055,0.43938 0.26705,0.84141 0.2899,0.84041 1.1825,-0.0522 0.77583,-0.77584 1.2442,-0.86797 3.17314,-0.62409 1.24462,0.15744 3.31984,0.4046 4.61159,0.54941 2.12709,0.23845 2.41547,0.40339 3.05695,1.748582 0.38955,0.816915 0.9468,1.485315 1.23832,1.485315 0.66497,0 8.12238,12.59628 8.12238,13.71945 0,0.77889 -0.47895,0.82645 -8.32351,0.82645 -7.95278,0 -8.33375,0.0393 -8.55403,0.88156 -0.18786,0.71841 -0.60124,0.88157 -2.23343,0.88157 -1.35337,0 -2.12726,-0.22224 -2.3864,-0.68531 -0.34152,-0.61026 -1.11421,-0.62628 -7.05639,-0.14643 -2.26341,-0.37211 -4.68113,0.66321 -7.76257,0.7738 z m 11.4039,-4.13233 c 2.31853,-0.75268 2.79268,-0.79956 3.24788,-0.65508 1.8018,0.378 1.86017,1.64987 2.12496,1.35853 0.21451,-0.23603 -0.002,-1.40495 -0.22181,-3.20746 -0.31137,-2.5563 -1.02074,-2.83308 -3.45512,-1.88184 -1.15991,0.45326 -3.34439,1.24667 -4.8544,1.76316 -0.59268,0.20271 -1.62076,0.55444 -3.08975,0.73151 -0.39005,0.047 -0.28436,0.28806 -0.29629,0.51707 -0.017,0.32608 -0.0508,0.70643 -0.19559,1.14123 -0.11861,0.35657 -0.25703,0.42918 -0.54794,0.72011 -0.29408,0.29407 -1.85446,1.01305 -1.41219,1.01965 5.35052,0.0797 5.94204,-0.61148 8.70025,-1.50688 z m -7.16892,-3.99593 c -0.0596,-2.34863 -0.19483,-7.53079 -0.13577,-8.42969 0.0718,-1.09308 -1.41013,-0.1556 -1.53311,0.75574 -0.12579,0.93199 -0.21373,2.09029 -0.20759,4.63821 0.007,2.72515 -0.48694,6.92903 -0.22373,7.69748 0.18719,0.54651 1.5796,-0.69853 1.75861,-0.93271 0.3731,-0.48816 0.43634,8e-4 0.34166,-3.72903 z m 28.11429,2.16258 c -0.2889,-0.7396 -0.31211,-1.40212 -0.70972,-1.69739 -0.38755,-0.28782 -1.14956,-0.21766 -1.4316,-0.21763 -0.40055,5e-5 -2.96913,-0.9669 -5.07871,-1.5875 -2.26773,-0.66717 -4.59966,-1.01834 -5.15972,-0.97795 -0.56008,0.0403 -1.20599,0.49846 -1.50498,1.02712 -0.38,0.6719 -0.55055,2.7711 -0.55055,2.7711 l 0.007,2.82679 1.72409,-1.1065 c 1.39354,-0.89437 5.47833,-0.20578 8.18828,0.49081 2.1445,0.55122 5.17091,0.53627 5.17091,0.22441 z m -30.5865,-9.21901 c -0.03,-0.11478 -0.82888,-0.59438 -0.94488,0.19052 -0.31277,2.11645 -0.96863,13.28383 -0.96863,13.9028 0,0.48711 -0.0382,0.80036 0.44935,0.72451 0.22228,-0.0346 0.50491,-0.16594 1.58802,-0.2762 2.65184,-0.27015 3.05063,-0.39207 4.35122,-0.48841 2.11721,-0.15676 2.96582,-0.21514 3.52797,-0.27437 0.56218,-0.0593 1.75666,-0.27587 4.77041,-0.6516 1.06658,-0.13295 0.43428,1.28423 0.73151,1.38667 1.48355,0.51133 2.41893,0.29889 3.62545,-0.005 0.44708,-0.11262 0.0996,-1.38877 0.47475,-1.39771 2.78461,-0.0662 7.93585,-0.26217 10.10565,-0.0655 0.63133,0.0573 6.60104,-0.13961 6.34865,-0.65057 -0.97195,-1.96771 -4.4787,-8.5397 -5.78144,-10.08903 -0.25742,-0.30612 -1.91762,-2.9903 -1.96638,-2.82997 -0.12595,0.41435 5.34815,10.06206 5.5836,11.1146 0.1536,0.6868 -0.15909,0.93946 -0.35343,0.97173 -1.18646,0.19697 -4.28181,0.11778 -4.57447,0.0632 -1.74208,-0.32458 -2.35351,-0.44245 -2.28954,-0.51535 0.12578,-0.14327 -4.42968,-0.71841 -6.44757,0.12461 -1.76187,0.73601 -2.33098,1.79191 -2.37046,1.80174 -0.68122,0.16957 -1.09318,-0.12861 -1.09481,-0.1963 -0.015,-0.59143 0.0532,-0.66089 -0.5966,-1.07684 -0.56597,-0.36235 -1.42118,-0.62766 -2.42733,-0.42929 -0.37683,0.0743 -7.24607,2.03977 -9.07135,2.03842 -1.47973,-8.3e-4 -3.33436,-0.0826 -3.319,-0.14128 0.11096,-0.42426 0.76033,-12.80715 0.64937,-13.23141 z m 7.85942,6.71424 c 1.73766,-0.76402 3.70439,-1.40866 4.37054,-1.43256 1.38889,-0.0498 2.46602,0.62695 1.84371,-3.20302 -0.94134,-5.793437 -1.70572,-7.862577 -5.96277,-5.880807 -1.29684,0.60371 -3.4,1.493157 -3.85598,1.495517 -0.7123,0.003 -1.30221,0.98485 -1.06746,2.40504 0.15027,0.90911 0.23605,3.36648 0.23871,5.12411 0.003,1.99577 -0.34175,2.93512 0.28517,3.27439 0,0 2.41044,-1.01866 4.14808,-1.78267 z m 18.52531,-5.07928 c -1.93275,-3.68668 -2.05915,-5.188747 -2.78466,-5.077727 -0.48903,0.0748 -2.79813,-0.10912 -4.23,-0.51093 -2.06173,-0.5785 -3.36117,-0.56716 -4.12687,-0.15744 -0.84203,0.45065 -1.02697,1.29775 -0.77528,2.900237 0.36748,2.3397 1.19223,6.06434 1.41958,6.06434 0.0961,0 0.98778,-1.20015 1.62214,-1.27546 2.45456,-0.29141 4.16187,0.47248 7.87317,2.00588 1.21215,0.50082 3.56215,1.08838 3.84471,1.1016 0.28257,0.0133 -1.54004,-2.56564 -2.84279,-5.05057 z"
     id="path11627"
     inkscape:connector-curvature="0"
     sodipodi:nodetypes="cccccccccscssscsccccscssccssscsscsscsccccscczsccscccsscssszsssssssssssssssssscsscscccccccsccsccsccs" />
  <path
     style="fill:#3f4a9f;fill-opacity:0.98363635;stroke-width:0.33839309"
     d="m 201.37475,118.81203 c -0.4532,-0.48431 -0.25852,-1.18553 0.33207,-1.19619 0.55182,-0.0105 0.55171,-0.0283 -0.002,-0.36349 -0.61532,-0.25935 -1.14047,-0.0465 -1.11387,-0.75438 0.0323,-0.66593 0.28387,-0.79747 1.93322,-1.01132 1.04278,-0.13522 2.47655,-0.55341 3.18617,-0.92933 1.37435,-0.72806 3.38582,-2.86927 3.38582,-3.6042 0,-0.66488 -3.18197,-1.5742 -6.72738,-1.9225 -3.50401,-0.34425 -4.346,-0.7267 -4.9686,-2.25688 -0.53919,-1.32515 -0.50944,-5.11911 0.0538,-6.865016 0.6401,-1.984073 2.52515,-4.006674 3.7342,-4.006674 0.99373,0 4.0871,1.761158 8.29974,4.7253 l 2.2182,1.56079 1.07267,-1.26863 c 1.35605,-1.603773 3.88509,-2.948473 5.5453,-2.948473 1.9253,0 4.19724,0.938153 5.76049,2.378683 1.41081,1.30007 1.55215,2.34862 0.25914,1.92247 -0.67474,-0.29714 -0.80735,-0.16564 -0.63622,0.48288 0.29285,1.10965 -0.62266,1.18733 -1.80783,0.10677 -2.23947,-2.0418 -4.74442,-2.15881 -6.01118,-0.28083 -0.47947,0.71082 -0.43239,0.73062 3.08493,1.29784 5.60891,0.90451 8.05485,1.41514 8.05485,1.68159 0,0.13532 0.35684,0.17519 0.79298,0.0886 2.16077,-0.42891 3.31029,1.61631 3.12458,5.55922 -0.21257,4.5128 -1.86775,7.24563 -4.38843,7.24563 -0.66724,0 -3.36659,-1.21703 -7.41876,-3.34484 -3.50344,-1.83967 -6.44905,-3.34486 -6.54582,-3.34486 -0.0968,0 -0.17591,0.317 -0.17591,0.70444 0,1.07087 -2.75054,3.8953 -5.01264,5.14728 -1.99053,1.10169 -5.4711,1.79221 -6.0289,1.19609 z m 4.65162,-1.03366 c 2.48557,-0.95478 3.03506,-1.90705 4.1413,-2.92645 1.57485,-1.45127 1.97256,-2.6836 1.79327,-2.95412 -0.18421,-0.27796 -1.9619,-1.24149 -2.40128,-0.73861 -0.1299,0.14866 -0.28137,1.7731 -2.68981,3.40494 -1.83668,1.24445 -2.49951,1.23177 -4.49315,1.59958 -1.32954,0.2453 -1.39813,0.0335 -1.09029,0.37891 0.15775,0.17705 1.51112,0.32232 1.72083,0.33073 0.31962,0.013 0.36624,0.0742 0.36624,0.34922 0,0.27506 -1.11061,0.5726 -1.43024,0.77429 -0.36633,0.23116 -0.11038,0.59902 0.3327,0.55876 0.90786,-0.0825 2.32864,-0.10562 3.75043,-0.77725 z m 20.13086,-4.00499 c 0,-1.02911 0.89563,-2.41313 2.45885,-1.51207 1.43983,0.82992 1.10302,-0.0181 1.10302,-1.01358 0,-2.40089 -0.24835,-3.33267 -2.03041,-3.38636 -2.65932,-0.0801 -3.28561,8.19427 -1.50713,8.26845 0.18249,0.008 -0.0243,-2.00035 -0.0243,-2.35644 z m -17.06019,-4.52225 c -0.24607,-1.15036 -0.0644,-2.30452 -0.0872,-3.49749 -1.30782,-0.50287 -4.98849,-1.91755 -6.31265,-2.55335 -2.17969,-1.04662 -3.29704,-1.21993 -3.29704,-2.12573 0,-1.184836 0.64823,-3.055135 1.71267,-3.461368 0.2707,-0.103404 2.20593,-0.486839 0.0738,0.705478 h -5e-5 c -0.68621,0.38375 -0.62358,1.629124 -0.62358,1.81113 0,0.32553 8.2502,4.64238 8.94722,4.69558 0.19647,0.015 0.35676,-0.90836 0.75341,-1.34678 0,0 0.23523,-0.40035 0.63694,-0.43998 0.68564,-0.0676 2.13885,0.54632 2.13885,0.54632 0.9261,0.31976 0.34754,0.74912 -0.1938,1.351 -0.38271,0.26027 -0.75271,0.88361 -0.67841,1.19102 0.0626,0.25911 2.34669,0.98902 2.67316,1.12566 1.4432,0.60403 7.98297,2.04999 8.91041,2.15006 0.23282,0.015 0.63769,-1.01781 0.82281,-1.52342 0.18512,-0.50561 0.88766,-1.34287 1.24091,-1.661 0.61205,-0.55122 -0.4973,-0.5051 -4.04887,-1.22594 -2.04968,-0.41601 -4.28785,-0.82552 -5.38369,-0.96325 -0.39291,-0.0494 -3.87526,-0.74519 -4.51534,-1.21087 -0.64006,-0.46569 -3.49103,-2.26928 -3.49103,-2.26928 -1.14103,-0.777756 -2.87511,-1.87719 -3.85352,-2.469767 l -2.59414,-1.445304 c -0.93011,-0.380957 -1.44128,0.06258 -2.53739,1.226805 -1.79582,1.90735 -2.11348,5.676136 -1.21856,8.341916 0.4879,1.45332 0.93718,1.65082 4.43935,1.95162 1.63894,0.14078 3.73103,0.53371 4.64906,0.87321 0.91804,0.33949 1.66915,0.6288 1.66915,0.64292 0,0.009 3.41403,1.89847 3.41717,1.49662 l 5.98089,2.8174 c 3.7825,1.93888 7.26673,3.758 7.65304,3.7631 0.38632,0.005 1.71731,0.097 2.15731,-0.30379 0.43576,-0.39694 1.43938,-1.67771 1.85379,-3.13585 0.73061,-2.57072 0.60414,-5.93606 0.0842,-6.8192 h 3e-5 c -0.66705,-1.13312 -1.25472,-1.48244 -1.97394,-1.48658 -0.71921,-0.003 -2.32333,1.43443 -2.96697,2.52701 -0.23536,0.45802 -0.51633,2.43869 -1.00862,2.34806 -1.93825,-0.3569 -4.3341,-1.26523 -4.3341,-1.26523 -3.15059,-1.0072 -5.03589,-1.66671 -5.35552,-1.75826 -0.37225,-0.10666 -1.95287,-1.11566 -2.60267,-0.96191 -0.20649,0.0489 -0.14829,1.08034 -0.14557,1.38683 0,0 0.2006,1.73575 -0.0392,1.78876 -0.82648,0.18282 -2.55241,-0.81615 -2.55241,-0.81615 z m 7.76515,-8.24804 c 1.26772,-0.65131 2.61771,-0.26736 3.92677,0.27025 0.8059,0.33098 2.38777,2.3828 2.39343,1.80649 0,-0.28886 -0.39734,-1.76614 -0.20392,-1.76614 0.18005,0 1.7781,0.7082 1.80965,0.61563 0.17218,-0.5051 -3.16312,-2.92745 -4.80619,-3.31223 -1.57414,-0.368663 -3.70864,-0.161807 -5.27677,1.231994 -0.67206,0.597346 -2.16238,2.004776 -2.24367,2.327026 -0.0427,0.16908 1.01301,0.48783 1.58514,0.70615 0.25855,0.0986 0.54695,0.34798 0.79514,0.19324 0.63764,-1.2015 1.28707,-1.70514 2.02042,-2.07241 z"
     id="path11640"
     inkscape:connector-curvature="0"
     sodipodi:nodetypes="ccccccssccscccsccsccssccscssscccsssssscscsccssssscccssccccccsscssccscczcccccsscccssscccscccscsccsccsccsscc" />
  <path
     style="font-size:12px;fill:#3f4a9f;fill-opacity:0.98363635;fill-rule:evenodd;stroke-width:0.07713844pt"
     id="path1195"
     d="m 12.699939,92.363334 c 1.43334,3.48095 4.7413,8.690736 7.60055,11.939596 l 0.31338,-1.17154 c -1.36093,-1.70994 -2.70782,-4.143356 -3.50017,-6.069836 2.30337,1.12618 6.1044,2.21399 7.05336,2.45156 3.19552,0.864636 7.80653,1.578956 11.17784,1.759726 0.87813,0.93867 1.30033,1.91934 1.83927,2.81314 l 0.69425,-0.58818 c -0.52519,-0.69515 -1.55465,-2.28255 -2.74806,-3.738806 -1.244,-1.58031 -4.01711,-4.77099 -7.09674,-6.94729 -1.66514,1.92132 -2.57477,3.06011 -3.83764,5.29122 l 1.6633,0.31096 c 0.31441,-0.56644 0.6846,-1.16253 1.05342,-1.71392 l 0.92324,0.35436 -0.20729,-1.35717 c 0.0919,-0.12068 0.18681,-0.25201 0.27239,-0.35675 2.6344,1.37845 4.96723,3.21813 6.75685,5.057386 -6.64294,0.0239 -15.35898,-2.558986 -21.95795,-8.034456 z m 5.95894,6.29161 1.74286,2.822786 0.75209,-0.28204 z m 31.935342,0.97386 c -5.38812,0.417686 -7.33222,1.016566 -13.361842,1.017286 l 0.42186,0.63638 c 1.754182,0.24302 3.576892,0.48311 5.018822,0.57854 -1.33077,0.79847 -3.905982,2.41085 -5.001952,3.06143 -1.95214,1.11959 -5.41048,3.21778 -8.11641,5.51782 -2.46648,-1.33312 -4.36274,-3.06391 -6.564,-4.88142 l -0.1808,0.8196 c 2.10606,2.60664 5.51655,5.19667 9.67606,7.87535 4.17738,2.60169 9.117932,4.35382 12.848382,4.77293 -1.83622,-5.2583 -3.29589,-9.25635 -5.13213,-12.92069 l -1.492152,0.56408 c 1.528612,3.17745 3.021262,6.25611 3.970242,9.36268 -1.09882,-0.0579 -2.54104,-0.52983 -3.813547,-0.91361 1.194947,0.77197 2.163547,1.09056 2.986717,1.58857 -1.99642,-0.34612 -5.443942,-1.79713 -7.378782,-3.00839 l 3.48328,1.08716 c -1.5414,-0.9133 -2.76287,-1.64956 -4.24503,-2.79626 -0.25244,0.19594 -0.4978,0.46674 -0.75692,0.83888 -0.54516,-0.17817 -2.27795,-1.6088 -2.61789,-1.83204 2.56092,-2.06965 4.96655,-3.71717 7.45592,-5.07667 2.434582,-1.35096 8.143962,-4.23511 12.800172,-6.291626 z m -27.367292,0.29651 c -0.61633,0.957866 -1.74038,3.963306 -2.26595,5.406936 -1.40611,3.81105 -2.25735,11.05203 -1.49455,16.65708 0.25873,0.0683 0.79951,0.51265 1.05823,0.58095 2.8066,-3.89647 4.86796,-6.75625 7.71387,-9.48803 l -1.01486,-0.88227 c -1.85519,1.54106 -4.30692,3.99159 -6.33017,6.44589 -0.11485,-1.35636 0.0391,-3.05036 0.23142,-4.44511 -0.43517,0.53777 -0.87036,1.65154 -1.07512,2.30451 -0.0512,-1.60046 0.24317,-3.16251 0.53756,-4.68616 0.21691,0.38922 0.48416,0.6729 0.71352,0.96423 -0.0557,-1.8585 0.40298,-6.8995 0.64846,-7.81992 0.34698,-1.41149 1.19642,-3.22795 1.8248,-4.6235 z m 5.40933,0.988346 c 0.55382,0.85383 0.83796,2.28579 0.37607,3.15062 -0.21224,0.3796 -0.2105,0.75842 -0.0554,1.1161 l 0.80754,-0.87986 -0.35195,1.51866 c 0.33134,0.33384 0.78036,0.63323 1.29208,0.87986 -0.0321,-0.64764 -0.29199,-0.89906 0.23624,-1.4584 0.43434,-0.42122 1.27157,-0.74262 0.0458,-1.64642 -0.35116,-0.26926 -0.58625,-0.9655 -0.7979,-1.36438 -0.48586,-0.96274 -1.13019,-1.17109 -1.55242,-1.31618 z m 3.85693,1.19565 c -0.52739,0.009 -1.04758,0.0434 -1.49456,0.0747 l 0.2049,0.58817 c 0.85317,-0.0841 3.46278,0.15239 3.36999,0.77621 -0.085,0.61437 -2.22151,1.80531 -3.44471,2.05621 l 0.0578,0.38811 c 1.53698,-0.29799 4.57956,-1.70424 4.56323,-2.63477 -0.0186,-1.09012 -1.67454,-1.27616 -3.2567,-1.24867 z m -3.99914,0.6388 c -1.53698,0.29797 -4.82401,1.37418 -4.79946,2.30451 0.0247,0.8889 3.19859,1.11363 4.75125,1.17636 l -0.29892,-0.77621 c -0.85317,0.0841 -3.28342,-0.29027 -3.27597,-0.58817 0.008,-0.32943 2.45775,-1.47747 3.68095,-1.72839 z m -4.14138,7.90427 -0.56408,0.0458 -0.0482,1.93087 z m 15.150472,0.0458 c -0.250937,0.12546 -0.501167,0.25059 -0.752092,0.37605 1.270352,1.14489 2.069722,2.29018 3.104832,3.43507 -0.59597,-1.27035 -1.70972,-3.01127 -2.35274,-3.81112 z m -3.104812,0.56649 c -0.23526,0.25093 -0.47105,0.50116 -0.7063,0.75209 1.61539,0.53325 3.325305,1.53603 4.705442,2.30451 -1.00373,-0.92532 -2.524902,-2.22539 -3.999142,-3.0566 z"
     inkscape:connector-curvature="0" />
  <path
     id="path11659"
     style="color:#000000;font-style:normal;font-variant:normal;font-weight:normal;font-stretch:normal;font-size:medium;line-height:normal;font-family:sans-serif;font-variant-ligatures:normal;font-variant-position:normal;font-variant-caps:normal;font-variant-numeric:normal;font-variant-alternates:normal;font-feature-settings:normal;text-indent:0;text-align:start;text-decoration:none;text-decoration-line:none;text-decoration-style:solid;text-decoration-color:#000000;letter-spacing:normal;word-spacing:normal;text-transform:none;writing-mode:lr-tb;direction:ltr;text-orientation:mixed;dominant-baseline:auto;baseline-shift:baseline;text-anchor:start;white-space:normal;shape-padding:0;clip-rule:nonzero;display:inline;overflow:visible;visibility:visible;opacity:1;isolation:auto;mix-blend-mode:normal;color-interpolation:sRGB;color-interpolation-filters:linearRGB;solid-color:#000000;solid-opacity:1;vector-effect:none;fill:#3f4a9f;fill-opacity:0.98363635;fill-rule:evenodd;stroke:none;stroke-width:1.09000003;stroke-linecap:butt;stroke-linejoin:miter;stroke-miterlimit:4;stroke-dasharray:none;stroke-dashoffset:0;stroke-opacity:1;marker:none;color-rendering:auto;image-rendering:auto;shape-rendering:auto;text-rendering:auto;enable-background:accumulate"
     d="m 114.79913,93.564856 -0.35156,0.4961 c -0.0246,-0.0137 -0.0476,-0.0264 -0.0781,-0.041 -0.0175,-0.008 -0.0348,-0.0176 -0.0742,-0.0312 -0.0197,-0.007 -0.043,-0.0169 -0.0937,-0.0254 -0.0254,-0.004 -0.10883,-0.006 -0.10937,-0.006 -5.5e-4,2e-5 -0.22819,0.0565 -0.22852,0.0566 -1.6e-4,9e-5 -0.11495,0.0779 -0.11523,0.0781 -2.8e-4,2.4e-4 -0.0262,0.0222 -0.0332,0.0293 -0.014,0.0143 -0.0199,0.0229 -0.0254,0.0293 -0.011,0.0127 -0.0168,0.019 -0.0234,0.0273 -0.0133,0.0166 -0.0251,0.0338 -0.041,0.0547 -0.0318,0.0417 -0.0742,0.0965 -0.12304,0.16211 -0.0976,0.13121 -0.22348,0.30487 -0.34961,0.47657 -0.25227,0.34339 -0.50196,0.68359 -0.50196,0.68359 l -0.30859,0.42187 0.32031,0.25586 -1.16797,1.54883 4.40625,3.177744 -0.29687,0.41015 4.25195,3.05665 0.0117,0.008 c 0,0 0.0285,0.0216 0.0527,0.0762 0.0242,0.0546 0.0822,0.11337 -0.12109,0.41406 l -0.0176,0.0273 -0.0156,0.0293 c -0.0986,0.19322 -0.27908,0.43119 -0.4375,0.74805 -0.15843,0.31686 -0.2799,0.75389 -0.16602,1.22461 0.0765,0.31604 0.1559,0.62246 0.39844,0.89648 0.24254,0.27402 0.56242,0.50813 1.23437,1.04883 1.3565,1.09154 1.67774,1.28125 1.67774,1.28125 l -0.0312,-0.0195 c 0,0 0.14562,0.11002 0.2207,0.26953 0.0751,0.15951 0.15498,0.30647 -0.20898,0.73828 -0.59506,0.706 -0.98131,1.83402 -1.29102,2.83398 -0.30284,0.9778 -0.48008,1.77959 -0.48828,1.81641 l -0.43555,1.30664 c -0.0764,0.0268 -0.0765,7.6e-4 -0.16992,0.0586 -0.14496,0.0897 -0.38558,0.32698 -0.35937,0.66015 0.0262,0.33317 0.22874,0.50575 0.42578,0.64649 0.67308,0.48077 1.93164,1.02929 1.93164,1.02929 l 3.3457,1.80078 0.0664,0.0176 c 0,0 0.99079,0.22753 1.53711,-0.5625 0.26673,-0.37634 0.51558,-0.97683 0.74609,-1.71094 0.23158,-0.73753 0.41848,-1.54563 0.33789,-2.26367 v 0.12891 c 0.10902,-0.86205 0.74392,-3.77393 0.81836,-4.06055 -0.0171,0.0657 0.10738,-0.16183 0.3125,-0.30273 0.20512,-0.14091 0.46757,-0.23332 0.63281,-0.23242 0.47685,0.003 1.02232,0.25311 1.4375,0.61328 l 0.2168,0.1875 0.27539,-0.0703 c 0.24799,-0.0639 0.44884,-0.26229 0.53906,-0.45117 0.0902,-0.18887 0.10986,-0.37082 0.10547,-0.54492 -0.009,-0.3482 -0.11629,-0.68682 -0.32617,-0.99023 -0.4199,-0.60794 -0.66038,-0.74571 -0.8418,-0.88477 -3.8e-4,-0.0904 -0.0143,-0.24019 0.084,-0.47656 0.12446,-0.29944 0.29282,-0.5687 0.98633,-0.61914 v -0.002 c 0.0949,-0.007 0.079,0.003 0.0742,0 -0.005,-0.003 0.013,0.0136 0.084,0.0957 0.071,0.0821 0.22296,0.25711 0.48633,0.32031 0.26336,0.0632 0.5135,-0.0122 0.74218,-0.12891 0.13793,-0.0704 0.30147,-0.19877 0.37696,-0.4082 0.0755,-0.20943 0.0249,-0.42684 -0.041,-0.55859 -0.13184,-0.2635 -0.29611,-0.36911 -0.46289,-0.48828 -0.307,-0.21938 -0.63759,-0.37602 -0.81836,-0.46485 l 0.0391,-0.0293 -0.041,-0.95704 -0.26563,-0.14843 c 0,0 -0.2486,-0.13977 -0.5039,-0.28321 -0.10941,-0.0615 -0.21409,-0.11974 -0.30664,-0.17187 -0.001,-0.0853 -0.002,-0.17969 -0.002,-0.17969 l 0.006,-0.28711 -0.96484,-0.6914 -0.36914,0.18554 -13.61328,-9.482434 0.28906,-0.38867 z m 0.28125,1.48438 0.40234,0.26172 -0.26757,0.35937 15.07031,10.498064 0.33203,-0.16797 c 0.002,0.0596 0.003,0.11935 0.0117,0.18555 0.005,0.0415 0.0114,0.0835 0.0293,0.14648 0.0179,0.063 -0.0224,0.18044 0.25977,0.34961 0.0555,0.0333 0.098,0.0562 0.19922,0.11328 0.10119,0.0571 0.23149,0.12932 0.35937,0.20118 0.0952,0.0535 0.10666,0.0601 0.1875,0.10546 -0.0501,0.0734 -0.077,0.042 -0.11328,0.1543 -0.062,0.19212 -0.0472,0.49138 0.0996,0.71094 0.0573,0.0858 0.16578,0.11367 0.24219,0.17578 -0.78883,0.19365 -1.34083,0.6633 -1.54492,1.1543 -0.23908,0.57519 -0.1875,1.11523 -0.1875,1.11523 l 0.0234,0.26953 0.22851,0.14453 c 0,0 0.34273,0.2051 0.80274,0.8711 0.0206,0.0299 0.0216,0.0748 0.0391,0.11523 -0.44157,-0.24584 -0.85249,-0.56509 -1.38477,-0.56836 -0.48572,-0.003 -0.91038,0.18651 -1.25586,0.42383 -0.34547,0.23732 -0.63535,0.48416 -0.75,0.92578 -0.12472,0.48025 -0.71242,3.14535 -0.8457,4.19922 l -0.008,0.0645 0.008,0.0645 c 0.0452,0.40301 -0.0872,1.15286 -0.29492,1.81445 -0.20774,0.66159 -0.5162,1.29985 -0.59766,1.41406 l -0.002,0.002 -0.004,0.004 c -0.13005,0.18806 -0.32868,0.12292 -0.35547,0.11524 l -3.23242,-1.73828 -0.0176,-0.008 c 0,0 -0.79883,-0.40512 -1.35547,-0.71484 l 0.5625,-1.6875 0.006,-0.0273 c 0,0 0.18168,-0.81937 0.47657,-1.77149 0.29488,-0.95212 0.74647,-2.05268 1.08398,-2.45312 0.56862,-0.67464 0.58262,-1.43419 0.36133,-1.9043 -0.22129,-0.47011 -0.60352,-0.71289 -0.60352,-0.71289 l -0.0156,-0.0117 -0.0156,-0.008 c 0,0 -0.194,-0.10635 -1.53515,-1.18555 -0.67689,-0.54467 -1.00096,-0.806 -1.10352,-0.92188 -0.10256,-0.11587 -0.0707,-0.0924 -0.15234,-0.42968 -0.0442,-0.18262 -0.0157,-0.29084 0.0801,-0.48242 0.0884,-0.1769 0.25101,-0.40387 0.40039,-0.68164 0.36034,-0.53297 0.37439,-1.10085 0.21289,-1.46485 -0.1615,-0.364 -0.45899,-0.55273 -0.45899,-0.55273 l -3.33007,-2.39454 0.29687,-0.41016 -4.38867,-3.164064 1.13672,-1.50586 -0.33203,-0.26563 c 0.0813,-0.11105 0.0939,-0.12968 0.18945,-0.25976 0.0804,-0.10951 0.15005,-0.20256 0.22266,-0.30078 0.0114,0.007 0.0547,0.0332 0.0547,0.0332 l 0.4375,0.27539 z m 7.21094,9.921894 c -0.37678,0 -0.70779,0.18423 -0.94922,0.4375 -0.24143,0.25326 -0.40625,0.58649 -0.40625,0.95507 0,0.34698 0.1077,0.71553 0.39844,0.96289 0.0318,0.0271 0.0387,0.032 0.0859,0.0703 0.0473,0.0383 0.11343,0.0912 0.19141,0.15429 0.15596,0.12612 0.36101,0.29136 0.56641,0.45703 0.20539,0.16568 0.41172,0.33127 0.56836,0.45704 0.0783,0.0629 0.14331,0.11599 0.1914,0.15429 0.024,0.0191 0.0437,0.0352 0.0586,0.0469 0.0149,0.0117 -0.0157,-0.006 0.0508,0.0371 0.18611,0.11983 0.33958,0.13354 0.51953,0.16601 0.17994,0.0325 0.34756,0.0527 0.48437,0.0527 h 0.004 0.002 c 0.3428,-0.004 0.6647,-0.15237 0.87696,-0.40625 0.21225,-0.25389 0.32255,-0.58903 0.36328,-0.97461 l 0.002,-0.0176 v -0.0176 c 0,-0.0704 0.0156,-0.21235 -0.004,-0.375 -0.01,-0.0813 -0.0281,-0.17386 -0.0859,-0.27539 -0.0579,-0.10153 -0.17737,-0.209 -0.31641,-0.24414 l -0.25195,-0.0625 -0.13086,0.22266 c -0.0409,0.07 -0.0355,0.0619 -0.0801,0.0996 -0.0446,0.0377 -0.14346,0.10955 -0.30859,0.24414 -0.19015,0.15495 -0.38923,0.26156 -0.48438,0.23828 0.056,0.0137 -0.13892,-0.0816 -0.26758,-0.1875 -0.0386,-0.0318 -0.0697,-0.0598 -0.10351,-0.0898 0.30604,-0.0867 0.64947,-0.14757 0.76172,-0.39257 0.16281,-0.35539 0.0263,-0.79671 -0.3086,-1.01758 l -0.62695,-0.41211 c -0.19753,-0.13028 -0.46234,-0.2832 -0.80078,-0.2832 z m 0,0.68945 c 0.12772,0 0.25854,0.0622 0.42187,0.16992 l 0.62696,0.41211 c 0.086,0.0567 0.0853,0.0983 0.0605,0.15234 -0.0248,0.0541 -0.12154,0.17211 -0.46875,0.16797 -0.0712,-8.5e-4 -0.11922,0.009 -0.18359,0.0332 -0.0644,0.0242 -0.14566,0.0647 -0.21485,0.15624 -0.0692,0.0916 -0.10089,0.23917 -0.0781,0.35547 0.0228,0.11631 0.0779,0.20238 0.14453,0.28321 0.0517,0.0627 0.0734,0.0793 0.12891,0.13086 0.0555,0.0515 0.12612,0.11434 0.20312,0.17773 0.15402,0.12677 0.2812,0.26261 0.54102,0.32617 0.4978,0.1218 0.86786,-0.20103 1.07617,-0.37109 -0.0409,0.16375 -0.0806,0.34143 -0.14453,0.41797 -0.0923,0.11041 -0.18477,0.15795 -0.35742,0.16015 -0.052,-3.2e-4 -0.21318,-0.015 -0.35742,-0.041 -0.14481,-0.0261 -0.30447,-0.0926 -0.26758,-0.0684 0,0 -0.002,0 -0.002,0 -0.0125,-0.01 -0.0299,-0.0248 -0.0527,-0.043 -0.0467,-0.0372 -0.11151,-0.0917 -0.18945,-0.1543 -0.15588,-0.12516 -0.36125,-0.28959 -0.56641,-0.45507 -0.20516,-0.16549 -0.41071,-0.33113 -0.56641,-0.45704 -0.0778,-0.063 -0.14254,-0.11627 -0.18945,-0.15429 -0.0469,-0.038 -0.0982,-0.079 -0.0742,-0.0586 -0.11362,-0.0967 -0.15625,-0.21195 -0.15625,-0.4375 0,-0.14938 0.0819,-0.33897 0.2168,-0.48047 0.13488,-0.14149 0.30803,-0.22265 0.44922,-0.22265 z m 0.79101,1.50976 c -0.038,0.0488 -0.072,0.0648 -0.0918,0.0723 -0.0202,0.008 -0.0256,0.0103 -0.0684,0.01 0.0764,9.1e-4 0.0889,-0.0737 0.16015,-0.082 z" />
  <path
     style="color:#000000;font-style:normal;font-variant:normal;font-weight:normal;font-stretch:normal;font-size:medium;line-height:normal;font-family:sans-serif;font-variant-ligatures:normal;font-variant-position:normal;font-variant-caps:normal;font-variant-numeric:normal;font-variant-alternates:normal;font-feature-settings:normal;text-indent:0;text-align:start;text-decoration:none;text-decoration-line:none;text-decoration-style:solid;text-decoration-color:#000000;letter-spacing:normal;word-spacing:normal;text-transform:none;writing-mode:lr-tb;direction:ltr;text-orientation:mixed;dominant-baseline:auto;baseline-shift:baseline;text-anchor:start;white-space:normal;shape-padding:0;clip-rule:nonzero;display:inline;overflow:visible;visibility:visible;opacity:1;isolation:auto;mix-blend-mode:normal;color-interpolation:sRGB;color-interpolation-filters:linearRGB;solid-color:#000000;solid-opacity:1;vector-effect:none;fill:#3f4a9f;fill-opacity:0.98363635;fill-rule:nonzero;stroke:none;stroke-width:2.38899994;stroke-linecap:butt;stroke-linejoin:miter;stroke-miterlimit:4;stroke-dasharray:none;stroke-dashoffset:0;stroke-opacity:1;color-rendering:auto;image-rendering:auto;shape-rendering:auto;text-rendering:auto;enable-background:accumulate"
     d="m 76.612321,21.420143 c -0.98014,0.0832 -1.96702,0.360957 -2.9082,0.847644 -1.88366,0.974084 -3.16698,2.842905 -3.7207,4.915993 -0.55373,2.073088 -0.37338,4.428483 0.93164,6.351524 0.24693,0.363867 0.50464,0.556797 0.77148,0.818354 -1.39911,0.625197 -2.63345,1.483051 -3.51367,2.607405 -1.27116,1.623731 -2.06368,3.510242 -2.53711,5.132783 -0.32526,1.114724 -0.48677,2.272655 0.12109,3.287105 0.60787,1.01445 1.61294,1.61342 3.16407,2.46289 4.70779,2.57816 10.33086,2.52298 15.39062,0.25781 l 0.0469,-0.0215 0.0469,-0.0254 c 1.87184,-1.04481 2.99065,-1.57866 3.83008,-2.34961 0.41972,-0.38548 0.77047,-0.901 0.9082,-1.46875 0.13773,-0.56775 0.0893,-1.105361 -0.006,-1.656248 -0.83304,-4.820753 -4.22854,-7.221501 -6.20507,-8.271445 0.8752,-0.989284 1.58528,-2.080668 1.85547,-3.351539 0.36024,-1.694491 0.065,-3.559202 -0.88868,-5.46481 l -0.004,-0.008 -0.002,-0.006 c -1.45445,-2.812555 -4.34081,-4.308136 -7.28125,-4.058566 z m 0.22657,2.341775 c 2.01311,-0.210087 3.88509,0.800307 4.92578,2.804675 0.76557,1.532371 0.91936,2.794685 0.68554,3.894509 -0.23414,1.101344 -0.87592,2.100638 -1.94921,3.025372 l -0.16407,0.14258 -0.97851,1.792958 1.36914,0.443357 c 0,0 5.10486,1.624511 6.05469,7.121051 0.0698,0.404071 0.0573,0.610231 0.0391,0.685551 -0.0183,0.0753 -0.0163,0.10368 -0.20117,0.27343 -0.36326,0.33362 -1.48332,0.96277 -3.32032,1.98828 -4.4661,1.98839 -9.24795,1.99845 -13.23242,-0.18359 -1.4634,-0.80143 -2.11689,-1.35595 -2.26172,-1.59766 -0.14483,-0.2417 -0.15333,-0.44146 0.12305,-1.388671 0.40914,-1.402191 1.11669,-3.042082 2.125,-4.330053 1.00831,-1.287964 2.25766,-2.210588 3.89648,-2.447248 l 1.02344,-0.14844 v -1.033194 c 0,-0.521547 -0.19499,-0.706684 -0.29883,-0.841794 -0.10383,-0.13511 -0.18971,-0.21646 -0.27539,-0.296867 -0.17134,-0.16082 -0.34431,-0.30198 -0.52734,-0.45899 -0.36605,-0.314007 -0.7568,-0.684054 -0.98047,-1.013664 -0.84755,-1.248911 -1.00341,-2.880772 -0.59961,-4.392553 0.4038,-1.511774 1.37172,-2.823585 2.50977,-3.412082 0.67741,-0.350297 1.36503,-0.556817 2.03711,-0.626957 z"
     id="path11686"
     inkscape:connector-curvature="0" />
  <path
     style="fill:#3f4a9f;fill-opacity:0.98363635;stroke-width:0.4407846"
     d="m 150.83508,45.824692 c -0.79608,-0.934571 -0.80762,-1.300231 -0.25941,-8.214952 0.46417,-5.854747 0.19584,-7.090128 0.76231,-7.302198 0.38511,-0.14411 1.41019,-0.722437 1.65262,-1.044534 0.24243,-0.322077 1.63091,-0.959914 3.08549,-1.417401 1.45459,-0.457477 3.65954,-1.275754 4.89989,-1.818371 2.53214,-1.107764 4.35248,-0.940804 4.79055,0.439377 0.26705,0.841407 0.2899,0.840407 1.1825,-0.0522 0.77583,-0.775834 1.2442,-0.867964 3.17314,-0.624084 1.24462,0.157437 3.31984,0.404597 4.61159,0.549407 2.12709,0.238447 2.41547,0.403387 3.05695,1.748568 0.38955,0.816907 0.9468,1.485291 1.23832,1.485291 0.66497,0 8.12238,12.596211 8.12238,13.719375 0,0.778884 -0.47895,0.826444 -8.32351,0.826444 -7.95278,0 -8.33375,0.0393 -8.55403,0.881558 -0.18786,0.71841 -0.60124,0.88157 -2.23343,0.88157 -1.35337,0 -2.12726,-0.22224 -2.3864,-0.68531 -0.34152,-0.610261 -1.11421,-0.626281 -7.05639,-0.14643 -2.26341,-0.372111 -4.68113,0.66321 -7.76257,0.7738 z m 11.4039,-4.132313 c 2.31853,-0.752677 2.79268,-0.799557 3.24788,-0.655077 1.8018,0.377997 1.86017,1.649861 2.12496,1.358521 0.21451,-0.236027 -0.002,-1.404941 -0.22181,-3.207442 -0.31137,-2.556285 -1.02074,-2.833062 -3.45512,-1.881828 -1.15991,0.453257 -3.34439,1.246661 -4.8544,1.763151 -0.59268,0.202707 -1.62076,0.554434 -3.08975,0.731504 -0.39005,0.047 -0.28436,0.28806 -0.29629,0.517067 -0.017,0.32608 -0.0508,0.706427 -0.19559,1.141224 -0.11861,0.356567 -0.25703,0.429177 -0.54794,0.720107 -0.29408,0.294067 -1.85446,1.013044 -1.41219,1.019644 5.35052,0.0797 5.94204,-0.611477 8.70025,-1.506871 z m -7.16892,-3.995909 c -0.0596,-2.348615 -0.19483,-7.530748 -0.13577,-8.429632 0.0718,-1.093074 -1.41013,-0.1556 -1.53311,0.755727 -0.12579,0.931984 -0.21373,2.090278 -0.20759,4.638183 0.007,2.725135 -0.48694,6.928991 -0.22373,7.697435 0.18719,0.546507 1.5796,-0.698524 1.75861,-0.932704 0.3731,-0.488157 0.43634,8e-4 0.34166,-3.729009 z m 28.11429,2.162568 c -0.2889,-0.739597 -0.31211,-1.402111 -0.70972,-1.697381 -0.38755,-0.287817 -1.14956,-0.217657 -1.4316,-0.217627 -0.40055,5e-5 -2.96913,-0.966897 -5.07871,-1.587491 -2.26773,-0.667167 -4.59966,-1.018334 -5.15972,-0.977947 -0.56008,0.0403 -1.20599,0.49846 -1.50498,1.027117 -0.38,0.671894 -0.55055,2.771082 -0.55055,2.771082 l 0.007,2.826775 1.72409,-1.106494 c 1.39354,-0.894364 5.47833,-0.20578 8.18828,0.490807 2.1445,0.551217 5.17091,0.536267 5.17091,0.22441 z m -30.5865,-9.218959 c -0.03,-0.114777 -0.82888,-0.594374 -0.94488,0.19052 -0.31277,2.116438 -0.96863,13.283755 -0.96863,13.902722 0,0.487111 -0.0382,0.800361 0.44935,0.724511 0.22228,-0.0346 0.50491,-0.16594 1.58802,-0.2762 2.65184,-0.27015 3.05063,-0.392071 4.35122,-0.488411 2.11721,-0.15676 2.96582,-0.21514 3.52797,-0.27437 0.56218,-0.0593 1.75666,-0.275867 4.77041,-0.651594 1.06658,-0.13295 0.43428,1.284225 0.73151,1.386665 1.48355,0.51133 2.41893,0.29889 3.62545,-0.005 0.44708,-0.11262 0.0996,-1.388765 0.47475,-1.397705 2.78461,-0.0662 7.93585,-0.26217 10.10565,-0.0655 0.63133,0.0573 6.60104,-0.13961 6.34865,-0.650567 -0.97195,-1.967698 -4.4787,-8.539652 -5.78144,-10.088973 -0.25742,-0.306117 -1.91762,-2.990282 -1.96638,-2.829955 -0.12595,0.41435 5.34815,10.062003 5.5836,11.114537 0.1536,0.686797 -0.15909,0.939457 -0.35343,0.971727 -1.18646,0.196967 -4.28181,0.117777 -4.57447,0.0632 -1.74208,-0.324577 -2.35351,-0.442447 -2.28954,-0.515347 0.12578,-0.14327 -4.42968,-0.718407 -6.44757,0.12461 -1.76187,0.736007 -2.33098,1.791901 -2.37046,1.801731 -0.68122,0.169567 -1.09318,-0.12861 -1.09481,-0.1963 -0.015,-0.591427 0.0532,-0.660887 -0.5966,-1.076834 -0.56597,-0.362347 -1.42118,-0.627657 -2.42733,-0.429287 -0.37683,0.0743 -7.24607,2.039758 -9.07135,2.038408 -1.47973,-8.3e-4 -3.33436,-0.0826 -3.319,-0.14128 0.11096,-0.424257 0.76033,-12.807078 0.64937,-13.231338 z m 7.85942,6.714204 c 1.73766,-0.764017 3.70439,-1.408654 4.37054,-1.432554 1.38889,-0.0498 2.46602,0.626947 1.84371,-3.202999 -0.94134,-5.79339 -1.70572,-7.862518 -5.96277,-5.880757 -1.29684,0.603704 -3.4,1.493141 -3.85598,1.495501 -0.7123,0.003 -1.30221,0.984844 -1.06746,2.405015 0.15027,0.909107 0.23605,3.366462 0.23871,5.124083 0.003,1.995758 -0.34175,2.935102 0.28517,3.274369 0,0 2.41044,-1.018654 4.14808,-1.782658 z m 18.52531,-5.079253 c -1.93275,-3.686649 -2.05915,-5.1887 -2.78466,-5.07768 -0.48903,0.0748 -2.79813,-0.10912 -4.23,-0.510927 -2.06173,-0.578497 -3.36117,-0.567157 -4.12687,-0.15744 -0.84203,0.450647 -1.02697,1.297744 -0.77528,2.900205 0.36748,2.339685 1.19223,6.064304 1.41958,6.064304 0.0961,0 0.98778,-1.200141 1.62214,-1.275451 2.45456,-0.29141 4.16187,0.472477 7.87317,2.005868 1.21215,0.500817 3.56215,1.088374 3.84471,1.101594 0.28257,0.0133 -1.54004,-2.565625 -2.84279,-5.050543 z"
     id="path11688"
     inkscape:connector-curvature="0"
     sodipodi:nodetypes="cccccccccscssscsccccscssccssscsscsscsccccscczsccscccsscssszsssssssssssssssssscsscscccccccsccsccsccs" />
  <path
     style="fill:#3f4a9f;fill-opacity:0.98363635;stroke-width:0.33839309"
     d="m 18.980171,46.936503 c -0.4532,-0.48431 -0.25852,-1.18553 0.33207,-1.19619 0.55182,-0.0105 0.55171,-0.0283 -0.002,-0.36349 -0.61532,-0.25935 -1.14047,-0.0465 -1.11387,-0.75438 0.0323,-0.66593 0.28387,-0.79747 1.93322,-1.01132 1.04278,-0.13522 2.47656,-0.55341 3.18618,-0.92933 1.37435,-0.72806 3.38582,-2.869262 3.38582,-3.604189 0,-0.664877 -3.18197,-1.574191 -6.72739,-1.922488 -3.50401,-0.344247 -4.346,-0.726697 -4.9686,-2.256868 -0.53919,-1.325141 -0.50944,-5.11908 0.0538,-6.864981 0.6401,-1.984068 2.52515,-4.006656 3.7342,-4.006656 0.99373,0 4.08711,1.761148 8.29975,4.725283 l 2.2182,1.560781 1.07267,-1.268624 c 1.35605,-1.603771 3.88509,-2.948462 5.5453,-2.948462 1.9253,0 4.19724,0.938144 5.7605,2.378675 1.41082,1.300064 1.55216,2.348608 0.25914,1.922461 -0.67474,-0.29714 -0.80735,-0.16564 -0.63622,0.482877 0.29285,1.109644 -0.62266,1.187321 -1.80784,0.10677 -2.23947,-2.041791 -4.74442,-2.158798 -6.01118,-0.28083 -0.47947,0.710817 -0.43239,0.730617 3.08493,1.297834 5.60892,0.904504 8.05488,1.415131 8.05488,1.681578 0,0.13532 0.35684,0.17519 0.79298,0.0886 2.16078,-0.428907 3.31031,1.616301 3.1246,5.55919 -0.21257,4.512789 -1.86776,7.245619 -4.38845,7.245619 -0.66725,0 -3.36661,-1.21703 -7.41879,-3.34484 -3.50344,-1.839671 -6.44905,-3.344852 -6.54582,-3.344852 -0.0968,0 -0.17591,0.316997 -0.17591,0.704434 0,1.070868 -2.75054,3.895298 -5.01264,5.147278 -1.99053,1.10169 -5.47111,1.79221 -6.02891,1.19609 z m 4.65163,-1.03366 c 2.48557,-0.95478 3.03506,-1.90705 4.1413,-2.92645 1.57485,-1.451271 1.97256,-2.683595 1.79327,-2.954115 -0.18421,-0.277957 -1.9619,-1.241481 -2.40128,-0.738604 -0.1299,0.14866 -0.28137,1.773088 -2.68981,3.404929 -1.83668,1.24445 -2.49952,1.23177 -4.49316,1.59958 -1.32954,0.2453 -1.39813,0.0335 -1.09029,0.37891 0.15775,0.17705 1.51112,0.32232 1.72083,0.33073 0.31962,0.013 0.36624,0.0742 0.36624,0.34922 0,0.27506 -1.11061,0.5726 -1.43024,0.77429 -0.36633,0.23116 -0.11038,0.59902 0.3327,0.55876 0.90786,-0.0825 2.32864,-0.10562 3.75044,-0.77725 z m 20.13088,-4.00499 c 0,-1.029108 0.89564,-2.413122 2.45887,-1.512065 1.43983,0.829914 1.10302,-0.0181 1.10302,-1.013574 0,-2.400878 -0.24835,-3.332652 -2.03042,-3.386342 -2.65933,-0.0801 -3.28563,8.194241 -1.50714,8.268421 0.18249,0.008 -0.0243,-2.00035 -0.0243,-2.35644 z m -17.06021,-4.52223 c -0.24607,-1.150351 -0.0644,-2.304505 -0.0872,-3.497469 -1.30782,-0.502867 -4.9885,-1.917538 -6.31266,-2.553335 -2.17969,-1.046614 -3.29704,-1.219924 -3.29704,-2.125718 0,-1.184834 0.64823,-3.055122 1.71267,-3.461362 0.2707,-0.103397 2.20593,-0.486837 0.0738,0.705477 h -5e-5 c -0.68621,0.383747 -0.62358,1.629121 -0.62358,1.811131 0,0.325527 8.25021,4.642353 8.94723,4.695553 0.19647,0.015 0.35676,-0.908354 0.75341,-1.346774 0,0 0.23523,-0.400347 0.63694,-0.439977 0.68564,-0.0676 2.13885,0.546317 2.13885,0.546317 0.9261,0.31976 0.34754,0.749117 -0.1938,1.350994 -0.38271,0.260267 -0.75271,0.883604 -0.67841,1.191011 0.0626,0.25911 2.34669,0.989014 2.67316,1.125654 1.4432,0.604027 7.98297,2.049978 8.91042,2.150048 0.23282,0.015 0.63769,-1.017804 0.82281,-1.523411 0.18512,-0.505607 0.88767,-1.342861 1.24092,-1.660991 0.61205,-0.551217 -0.4973,-0.505097 -4.04889,-1.225934 -2.04968,-0.416007 -4.28785,-0.825514 -5.38369,-0.963244 -0.39291,-0.0494 -3.87526,-0.745184 -4.51534,-1.210861 -0.64006,-0.46569 -3.49103,-2.269268 -3.49103,-2.269268 -1.14103,-0.777757 -2.87511,-1.877191 -3.85353,-2.469765 l -2.59414,-1.445294 c -0.93011,-0.380957 -1.44128,0.0626 -2.53739,1.226804 -1.79582,1.907338 -2.11348,5.676107 -1.21856,8.341872 0.4879,1.453311 0.93718,1.650811 4.43935,1.951611 1.63894,0.140777 3.73104,0.533704 4.64907,0.873204 0.91804,0.339487 1.66915,0.628797 1.66915,0.642917 0,0.009 3.41403,1.898458 3.41717,1.496611 l 5.98089,2.817389 c 3.7825,1.93888 7.26675,3.758 7.65306,3.7631 0.38632,0.005 1.71732,0.097 2.15733,-0.30379 0.43576,-0.39694 1.43938,-1.67771 1.85379,-3.13585 0.73062,-2.570712 0.60415,-5.936034 0.0842,-6.819168 h 3e-5 c -0.66705,-1.133114 -1.25472,-1.482431 -1.97395,-1.486571 -0.71921,-0.003 -2.32334,1.434421 -2.96698,2.526995 -0.23537,0.458017 -0.51634,2.438675 -1.00863,2.348045 -1.93826,-0.356897 -4.33411,-1.265221 -4.33411,-1.265221 -3.15059,-1.007194 -5.03589,-1.666701 -5.35552,-1.758251 -0.37225,-0.10666 -1.95287,-1.115654 -2.60267,-0.961904 -0.20649,0.0489 -0.14829,1.080334 -0.14557,1.386821 0,0 0.2006,1.735741 -0.0392,1.788751 -0.82648,0.18282 -2.55241,-0.816147 -2.55241,-0.816147 z m 7.76515,-8.247992 c 1.26772,-0.651307 2.61771,-0.267357 3.92677,0.27025 0.8059,0.330977 2.38778,2.382785 2.39344,1.806478 0,-0.288857 -0.39735,-1.766131 -0.20392,-1.766131 0.18005,0 1.7781,0.708197 1.80965,0.615627 0.17219,-0.505097 -3.16313,-2.927442 -4.8062,-3.312219 -1.57414,-0.36866 -3.70864,-0.16181 -5.27677,1.231991 -0.67206,0.597347 -2.16238,2.004768 -2.24367,2.327018 -0.0427,0.169077 1.01301,0.487827 1.58514,0.706144 0.25855,0.0986 0.54695,0.34798 0.79514,0.19324 0.63764,-1.201494 1.28707,-1.705131 2.02042,-2.072398 z"
     id="path11690"
     inkscape:connector-curvature="0"
     sodipodi:nodetypes="ccccccssccscccsccsccssccscssscccsssssscscsccssssscccssccccccsscssccscczcccccsscccssscccscccscsccsccsccsscc" />
  <path
     style="font-size:12px;fill:#3f4a9f;fill-opacity:0.98363635;fill-rule:evenodd;stroke-width:0.07713844pt"
     id="path11692"
     d="m 195.41968,20.487916 c 1.43334,3.480932 4.7413,8.690682 7.60055,11.939524 l 0.31338,-1.171534 c -1.36093,-1.709931 -2.70782,-4.143326 -3.50017,-6.069797 2.30337,1.126174 6.1044,2.213978 7.05336,2.451548 3.19552,0.864624 7.80653,1.578941 11.17784,1.759708 0.87813,0.938667 1.30033,1.919331 1.83927,2.813125 l 0.69425,-0.588177 c -0.52519,-0.695147 -1.55465,-2.282538 -2.74806,-3.738779 -1.244,-1.580301 -4.01711,-4.770963 -7.09674,-6.947251 -1.66514,1.921311 -2.57477,3.060095 -3.83764,5.29119 l 1.6633,0.31096 c 0.31441,-0.566437 0.6846,-1.162524 1.05342,-1.713911 l 0.92324,0.354357 -0.20729,-1.357161 c 0.0919,-0.12068 0.18681,-0.25201 0.27239,-0.356747 2.6344,1.378441 4.96723,3.218109 6.75685,5.05735 -6.64294,0.0239 -15.35898,-2.558965 -21.95795,-8.034405 z m 5.95894,6.291574 1.74286,2.822765 0.75209,-0.28204 z m 31.93534,0.973854 c -5.38812,0.41768 -7.33222,1.016557 -13.36184,1.017274 l 0.42186,0.636377 c 1.75418,0.24302 3.57689,0.483107 5.01882,0.578537 -1.33077,0.798467 -3.90598,2.410838 -5.00195,3.061412 -1.95214,1.119584 -5.41048,3.217762 -8.11641,5.51779 -2.46648,-1.333111 -4.36274,-3.063892 -6.564,-4.881393 l -0.1808,0.819597 c 2.10606,2.606625 5.51655,5.19664 9.67606,7.875305 4.17738,2.601688 9.11793,4.353818 12.84838,4.772928 -1.83622,-5.258295 -3.29589,-9.256324 -5.13213,-12.920643 l -1.49215,0.564077 c 1.52861,3.177432 3.02126,6.256074 3.97024,9.362636 -1.09882,-0.0579 -2.54104,-0.52983 -3.81355,-0.91361 1.19495,0.77197 2.16355,1.09056 2.98672,1.58857 -1.99642,-0.34612 -5.44394,-1.797131 -7.37878,-3.008385 l 3.48328,1.087154 c -1.5414,-0.913294 -2.76287,-1.649551 -4.24503,-2.796245 -0.25244,0.19594 -0.4978,0.466737 -0.75692,0.838874 -0.54516,-0.178167 -2.27795,-1.608788 -2.61789,-1.832028 2.56092,-2.069638 4.96655,-3.717149 7.45592,-5.07664 2.43458,-1.350954 8.14396,-4.235086 12.80017,-6.291587 z m -27.36729,0.29651 c -0.61633,0.957854 -1.74038,3.963276 -2.26595,5.4069 -1.40611,3.811026 -2.25735,11.051977 -1.49455,16.657027 0.25873,0.0683 0.79951,0.51265 1.05823,0.58095 2.8066,-3.89647 4.86796,-6.75625 7.71387,-9.488022 l -1.01486,-0.882264 c -1.85519,1.541051 -4.30692,3.991576 -6.33017,6.445876 -0.11485,-1.35636 0.0391,-3.05036 0.23142,-4.445108 -0.43517,0.537767 -0.87036,1.651538 -1.07512,2.304508 -0.0512,-1.600461 0.24317,-3.162502 0.53756,-4.686146 0.21691,0.38922 0.48416,0.672897 0.71352,0.964227 -0.0557,-1.858491 0.40298,-6.899461 0.64846,-7.819878 0.34698,-1.411481 1.19642,-3.227932 1.8248,-4.623473 z m 5.40933,0.988334 c 0.55382,0.853824 0.83796,2.285778 0.37607,3.150602 -0.21224,0.379597 -0.2105,0.758417 -0.0554,1.116094 l 0.80754,-0.879854 -0.35195,1.518651 c 0.33134,0.333837 0.78036,0.633227 1.29208,0.879854 -0.0321,-0.647637 -0.29199,-0.899054 0.23624,-1.458391 0.43434,-0.421217 1.27157,-0.742617 0.0458,-1.646411 -0.35116,-0.26926 -0.58625,-0.965494 -0.7979,-1.364371 -0.48586,-0.962737 -1.13019,-1.171084 -1.55242,-1.316174 z m 3.85693,1.195644 c -0.52739,0.009 -1.04758,0.0434 -1.49456,0.0747 l 0.2049,0.588164 c 0.85317,-0.0841 3.46278,0.15239 3.36999,0.776207 -0.085,0.614367 -2.22151,1.805301 -3.44471,2.056198 l 0.0578,0.388107 c 1.53698,-0.297987 4.57956,-1.704228 4.56323,-2.634755 -0.0186,-1.090114 -1.67454,-1.276151 -3.2567,-1.248661 z m -3.99914,0.638797 c -1.53698,0.297967 -4.82401,1.374171 -4.79946,2.304495 0.0247,0.888894 3.19859,1.113624 4.75125,1.176354 l -0.29892,-0.776207 c -0.85317,0.0841 -3.28342,-0.290267 -3.27597,-0.588164 0.008,-0.32943 2.45775,-1.477464 3.68095,-1.728381 z m -4.14138,7.904225 -0.56408,0.0458 -0.0482,1.930858 z m 15.15047,0.0458 c -0.25094,0.125457 -0.50117,0.250587 -0.75209,0.376047 1.27035,1.144884 2.06972,2.290165 3.10483,3.435049 -0.59597,-1.270341 -1.70972,-3.011252 -2.35274,-3.811096 z m -3.10481,0.566484 c -0.23526,0.25093 -0.47105,0.501157 -0.7063,0.752087 1.61539,0.533247 3.3253,1.536021 4.70544,2.304498 -1.00373,-0.925317 -2.5249,-2.225378 -3.99914,-3.056585 z"
     inkscape:connector-curvature="0" />
  <path
     id="path11694"
     style="color:#000000;font-style:normal;font-variant:normal;font-weight:normal;font-stretch:normal;font-size:medium;line-height:normal;font-family:sans-serif;font-variant-ligatures:normal;font-variant-position:normal;font-variant-caps:normal;font-variant-numeric:normal;font-variant-alternates:normal;font-feature-settings:normal;text-indent:0;text-align:start;text-decoration:none;text-decoration-line:none;text-decoration-style:solid;text-decoration-color:#000000;letter-spacing:normal;word-spacing:normal;text-transform:none;writing-mode:lr-tb;direction:ltr;text-orientation:mixed;dominant-baseline:auto;baseline-shift:baseline;text-anchor:start;white-space:normal;shape-padding:0;clip-rule:nonzero;display:inline;overflow:visible;visibility:visible;opacity:1;isolation:auto;mix-blend-mode:normal;color-interpolation:sRGB;color-interpolation-filters:linearRGB;solid-color:#000000;solid-opacity:1;vector-effect:none;fill:#3f4a9f;fill-opacity:0.98363635;fill-rule:evenodd;stroke:none;stroke-width:1.09000003;stroke-linecap:butt;stroke-linejoin:miter;stroke-miterlimit:4;stroke-dasharray:none;stroke-dashoffset:0;stroke-opacity:1;marker:none;color-rendering:auto;image-rendering:auto;shape-rendering:auto;text-rendering:auto;enable-background:accumulate"
     d="m 114.96172,21.689438 -0.35156,0.496097 c -0.0246,-0.0137 -0.0476,-0.0264 -0.0781,-0.041 -0.0175,-0.008 -0.0348,-0.0176 -0.0742,-0.0312 -0.0197,-0.007 -0.043,-0.0169 -0.0937,-0.0254 -0.0254,-0.004 -0.10883,-0.006 -0.10937,-0.006 -5.5e-4,2e-5 -0.22819,0.0565 -0.22852,0.0566 -1.6e-4,9e-5 -0.11495,0.0779 -0.11523,0.0781 -2.8e-4,2.4e-4 -0.0262,0.0222 -0.0332,0.0293 -0.014,0.0143 -0.0199,0.0229 -0.0254,0.0293 -0.011,0.0127 -0.0168,0.019 -0.0234,0.0273 -0.0133,0.0166 -0.0251,0.0338 -0.041,0.0547 -0.0318,0.0417 -0.0742,0.0965 -0.12304,0.16211 -0.0976,0.131207 -0.22348,0.304867 -0.34961,0.476567 -0.25227,0.343387 -0.50196,0.683584 -0.50196,0.683584 l -0.30859,0.42187 0.32031,0.255857 -1.16797,1.548821 4.40625,3.177722 -0.29687,0.410147 4.25195,3.056635 0.0117,0.008 c 0,0 0.0285,0.0216 0.0527,0.0762 0.0242,0.0546 0.0822,0.113367 -0.12109,0.414057 l -0.0176,0.0273 -0.0156,0.0293 c -0.0986,0.193217 -0.27908,0.431187 -0.4375,0.748044 -0.15843,0.31686 -0.2799,0.753887 -0.16602,1.224604 0.0765,0.316037 0.1559,0.622457 0.39844,0.896474 0.24254,0.27402 0.56242,0.508127 1.23437,1.048824 1.3565,1.091534 1.67774,1.281244 1.67774,1.281244 l -0.0312,-0.0195 c 0,0 0.14562,0.11002 0.2207,0.269527 0.0751,0.15951 0.15498,0.30647 -0.20898,0.738277 -0.59506,0.705997 -0.98131,1.834008 -1.29102,2.833965 -0.30284,0.977794 -0.48008,1.779582 -0.48828,1.816402 l -0.43555,1.30664 c -0.0764,0.0268 -0.0765,7.6e-4 -0.16992,0.0586 -0.14496,0.0897 -0.38558,0.32698 -0.35937,0.66015 0.0262,0.33317 0.22874,0.50575 0.42578,0.64649 0.67308,0.48077 1.93164,1.02929 1.93164,1.02929 l 3.3457,1.80078 0.0664,0.0176 c 0,0 0.99079,0.22753 1.53711,-0.5625 0.26673,-0.37634 0.51558,-0.97683 0.74609,-1.71094 0.23158,-0.73753 0.41848,-1.54563 0.33789,-2.26367 v 0.12891 c 0.10902,-0.86205 0.74392,-3.773919 0.81836,-4.060536 -0.0171,0.0657 0.10738,-0.16183 0.3125,-0.30273 0.20512,-0.140907 0.46757,-0.233317 0.63281,-0.232417 0.47685,0.003 1.02232,0.253107 1.4375,0.613277 l 0.2168,0.187497 0.27539,-0.0703 c 0.24799,-0.0639 0.44884,-0.262287 0.53906,-0.451167 0.0902,-0.188867 0.10986,-0.370817 0.10547,-0.544917 -0.009,-0.348197 -0.11629,-0.686814 -0.32617,-0.990224 -0.4199,-0.607937 -0.66038,-0.745704 -0.8418,-0.884764 -3.8e-4,-0.0904 -0.0143,-0.24019 0.084,-0.476557 0.12446,-0.29944 0.29282,-0.568697 0.98633,-0.619137 v -0.002 c 0.0949,-0.007 0.079,0.003 0.0742,0 -0.005,-0.003 0.013,0.0136 0.084,0.0957 0.071,0.0821 0.22296,0.257107 0.48633,0.320307 0.26336,0.0632 0.5135,-0.0122 0.74218,-0.12891 0.13793,-0.0704 0.30147,-0.198767 0.37696,-0.408197 0.0755,-0.209427 0.0249,-0.426837 -0.041,-0.558587 -0.13184,-0.263497 -0.29611,-0.369107 -0.46289,-0.488277 -0.307,-0.21938 -0.63759,-0.376017 -0.81836,-0.464847 l 0.0391,-0.0293 -0.041,-0.957034 -0.26563,-0.14843 c 0,0 -0.2486,-0.13977 -0.5039,-0.283207 -0.10941,-0.0615 -0.21409,-0.11974 -0.30664,-0.17187 -0.001,-0.0853 -0.002,-0.17969 -0.002,-0.17969 l 0.006,-0.287107 -0.96484,-0.691397 -0.36914,0.18554 -13.61328,-9.482376 0.28906,-0.38867 z m 0.28125,1.484371 0.40234,0.26172 -0.26757,0.359367 15.07031,10.498 0.33203,-0.167967 c 0.002,0.0596 0.003,0.11935 0.0117,0.185547 0.005,0.0415 0.0114,0.0835 0.0293,0.14648 0.0179,0.063 -0.0224,0.18044 0.25977,0.349607 0.0555,0.0333 0.098,0.0562 0.19922,0.11328 0.10119,0.0571 0.23149,0.12932 0.35937,0.20118 0.0952,0.0535 0.10666,0.0601 0.1875,0.10546 -0.0501,0.0734 -0.077,0.042 -0.11328,0.154297 -0.062,0.19212 -0.0472,0.491377 0.0996,0.710937 0.0573,0.0858 0.16578,0.11367 0.24219,0.17578 -0.78883,0.193647 -1.34083,0.663294 -1.54492,1.154291 -0.23908,0.575187 -0.1875,1.115224 -0.1875,1.115224 l 0.0234,0.26953 0.22851,0.14453 c 0,0 0.34273,0.205097 0.80274,0.871094 0.0206,0.0299 0.0216,0.0748 0.0391,0.11523 -0.44157,-0.24584 -0.85249,-0.565087 -1.38477,-0.568357 -0.48572,-0.003 -0.91038,0.186507 -1.25586,0.423827 -0.34547,0.23732 -0.63535,0.484157 -0.75,0.925774 -0.12472,0.480247 -0.71242,3.145336 -0.8457,4.199206 l -0.008,0.0645 0.008,0.0645 c 0.0452,0.40301 -0.0872,1.15286 -0.29492,1.81445 -0.20774,0.66159 -0.5162,1.29985 -0.59766,1.41406 l -0.002,0.002 -0.004,0.004 c -0.13005,0.18806 -0.32868,0.12292 -0.35547,0.11524 l -3.23242,-1.73828 -0.0176,-0.008 c 0,0 -0.79883,-0.40512 -1.35547,-0.71484 l 0.5625,-1.6875 0.006,-0.0273 c 0,0 0.18168,-0.819371 0.47657,-1.771485 0.29488,-0.952114 0.74647,-2.052668 1.08398,-2.453105 0.56862,-0.674637 0.58262,-1.434184 0.36133,-1.904291 -0.22129,-0.470107 -0.60352,-0.712884 -0.60352,-0.712884 l -0.0156,-0.0117 -0.0156,-0.008 c 0,0 -0.194,-0.10635 -1.53515,-1.185544 -0.67689,-0.544667 -1.00096,-0.805997 -1.10352,-0.921874 -0.10256,-0.11587 -0.0707,-0.0924 -0.15234,-0.42968 -0.0442,-0.182617 -0.0157,-0.290837 0.0801,-0.482417 0.0884,-0.176897 0.25101,-0.403867 0.40039,-0.681634 0.36034,-0.532967 0.37439,-1.100844 0.21289,-1.464844 -0.1615,-0.363997 -0.45899,-0.552727 -0.45899,-0.552727 l -3.33007,-2.394525 0.29687,-0.410157 -4.38867,-3.164042 1.13672,-1.505851 -0.33203,-0.26563 c 0.0813,-0.11105 0.0939,-0.12968 0.18945,-0.259757 0.0804,-0.10951 0.15005,-0.20256 0.22266,-0.30078 0.0114,0.007 0.0547,0.0332 0.0547,0.0332 l 0.4375,0.27539 z m 7.21094,9.921836 c -0.37678,0 -0.70779,0.184227 -0.94922,0.437497 -0.24143,0.253257 -0.40625,0.586487 -0.40625,0.955064 0,0.346977 0.1077,0.715527 0.39844,0.962884 0.0318,0.0271 0.0387,0.032 0.0859,0.0703 0.0473,0.0383 0.11343,0.0912 0.19141,0.15429 0.15596,0.12612 0.36101,0.291357 0.56641,0.457027 0.20539,0.16568 0.41172,0.331267 0.56836,0.457037 0.0783,0.0629 0.14331,0.11599 0.1914,0.15429 0.024,0.0191 0.0437,0.0352 0.0586,0.0469 0.0149,0.0117 -0.0157,-0.006 0.0508,0.0371 0.18611,0.119827 0.33958,0.133537 0.51953,0.166007 0.17994,0.0325 0.34756,0.0527 0.48437,0.0527 h 0.004 0.002 c 0.3428,-0.004 0.6647,-0.15237 0.87696,-0.406247 0.21225,-0.25389 0.32255,-0.589027 0.36328,-0.974604 l 0.002,-0.0176 v -0.0176 c 0,-0.0704 0.0156,-0.21235 -0.004,-0.374997 -0.01,-0.0813 -0.0281,-0.17386 -0.0859,-0.27539 -0.0579,-0.10153 -0.17737,-0.208997 -0.31641,-0.244137 l -0.25195,-0.0625 -0.13086,0.222657 c -0.0409,0.07 -0.0355,0.0619 -0.0801,0.0996 -0.0446,0.0377 -0.14346,0.10955 -0.30859,0.24414 -0.19015,0.154947 -0.38923,0.261557 -0.48438,0.238277 0.056,0.0137 -0.13892,-0.0816 -0.26758,-0.187497 -0.0386,-0.0318 -0.0697,-0.0598 -0.10351,-0.0898 0.30604,-0.0867 0.64947,-0.14757 0.76172,-0.39257 0.16281,-0.355387 0.0263,-0.796704 -0.3086,-1.017574 l -0.62695,-0.412107 c -0.19753,-0.13028 -0.46234,-0.283197 -0.80078,-0.283197 z m 0,0.689444 c 0.12772,0 0.25854,0.0622 0.42187,0.16992 l 0.62696,0.412107 c 0.086,0.0567 0.0853,0.0983 0.0605,0.15234 -0.0248,0.0541 -0.12154,0.17211 -0.46875,0.16797 -0.0712,-8.5e-4 -0.11922,0.009 -0.18359,0.0332 -0.0644,0.0242 -0.14566,0.0647 -0.21485,0.156237 -0.0692,0.0916 -0.10089,0.23917 -0.0781,0.35547 0.0228,0.116307 0.0779,0.202377 0.14453,0.283207 0.0517,0.0627 0.0734,0.0793 0.12891,0.13086 0.0555,0.0515 0.12612,0.11434 0.20312,0.17773 0.15402,0.126767 0.2812,0.262607 0.54102,0.326167 0.4978,0.1218 0.86786,-0.20103 1.07617,-0.371087 -0.0409,0.163747 -0.0806,0.341427 -0.14453,0.417967 -0.0923,0.11041 -0.18477,0.15795 -0.35742,0.16015 -0.052,-3.2e-4 -0.21318,-0.015 -0.35742,-0.041 -0.14481,-0.0261 -0.30447,-0.0926 -0.26758,-0.0684 0,0 -0.002,0 -0.002,0 -0.0125,-0.01 -0.0299,-0.0248 -0.0527,-0.043 -0.0467,-0.0372 -0.11151,-0.0917 -0.18945,-0.1543 -0.15588,-0.12516 -0.36125,-0.289587 -0.56641,-0.455067 -0.20516,-0.16549 -0.41071,-0.331127 -0.56641,-0.457037 -0.0778,-0.063 -0.14254,-0.11627 -0.18945,-0.15429 -0.0469,-0.038 -0.0982,-0.079 -0.0742,-0.0586 -0.11362,-0.0967 -0.15625,-0.211947 -0.15625,-0.437497 0,-0.14938 0.0819,-0.338967 0.2168,-0.480467 0.13488,-0.14149 0.30803,-0.22265 0.44922,-0.22265 z m 0.79101,1.509754 c -0.038,0.0488 -0.072,0.0648 -0.0918,0.0723 -0.0202,0.008 -0.0256,0.0103 -0.0684,0.01 0.0764,9.1e-4 0.0889,-0.0737 0.16015,-0.082 z"
     inkscape:connector-curvature="0" />
  <path
     id="path3053"
     style="fill:none;fill-opacity:1;stroke:#000000;stroke-width:1"
     d="m 14.05503,218.43336 c 17.53021,0 35.06042,0 52.59063,0 v -1.93 h 3.2 v -5.09 h -3.2 v -5.085 h 3.2 v -5.09 h -3.2 v -5.085 h 3.2 v -5.09 h -3.2 v -5.085 h 3.2 v -5.09 h -3.2 v -5.085 h 3.2 v -5.09 h -3.2 v -5.085 h 3.2 v -5.09 h -3.2 v -5.085 h 3.2 v -5.09 h -3.2 v -1.93 h -1.955 v -3.2 h -5.09 v 3.2 h -5.11 v -3.2 h -5.09 v 3.2 h -5.11 v -3.2 h -5.09 v 3.2 h -5.11 v -3.2 h -5.09 v 3.2 h -5.11 v -3.2 h -5.09 v 3.2 h -5.11 v -3.2 h -5.09 v 3.2 h -1.955 c 0,20.86354 0,41.72709 0,62.59063 0,4.0921 3.31727,7.40937 7.40937,7.40937 z"
     inkscape:connector-curvature="0"
     sodipodi:nodetypes="cccccccccccccccccccccccccccccccccccccccccccccccccccccccccc" />
  <path
     style="fill:none;fill-opacity:1;stroke:#000000;stroke-width:3.77952766"
     d="M 530.58203 547.22266 L 530.58203 554.61133 L 518.48828 554.61133 L 518.48828 573.84961 L 530.58203 573.84961 L 530.58203 593.16211 L 518.48828 593.16211 L 518.48828 612.40039 L 530.58203 612.40039 L 530.58203 631.71484 L 518.48828 631.71484 L 518.48828 650.95117 L 530.58203 650.95117 L 530.58203 670.26562 L 518.48828 670.26562 L 518.48828 689.50391 L 530.58203 689.50391 L 530.58203 708.81641 L 518.48828 708.81641 L 518.48828 728.05469 L 530.58203 728.05469 L 530.58203 747.36719 L 518.48828 747.36719 L 518.48828 766.60547 L 530.58203 766.60547 L 530.58203 773.95703 L 537.50586 773.95703 L 537.50195 795.29883 L 770.73828 857.79492 L 787.48438 795.29883 L 787.48438 773.95703 L 795.15039 773.95703 L 795.15039 766.60547 L 795.15039 747.36719 L 795.15039 728.05469 L 795.15039 708.81641 L 795.15039 575.26367 C 795.15039 559.79747 782.61269 547.25977 767.14648 547.25977 L 634.0293 547.22266 L 614.79102 547.22266 L 595.57227 547.22266 L 576.33398 547.22266 L 557.11523 547.22266 L 537.87695 547.22266 L 530.58203 547.22266 z M 557.4043 773.95703 L 575.96289 773.95703 L 575.96289 786.05273 L 557.4043 786.05273 L 557.4043 773.95703 z M 595.86133 773.95703 L 614.41797 773.95703 L 614.41797 786.05273 L 595.86133 786.05273 L 595.86133 773.95703 z M 634.31836 773.95703 L 652.875 773.95703 L 652.875 786.05273 L 634.31836 786.05273 L 634.31836 773.95703 z M 672.77539 773.95703 L 691.33203 773.95703 L 691.33203 786.05273 L 672.77539 786.05273 L 672.77539 773.95703 z M 711.23047 773.95703 L 729.78906 773.95703 L 729.78906 786.05273 L 711.23047 786.05273 L 711.23047 773.95703 z M 749.6875 773.95703 L 768.24609 773.95703 L 768.24609 786.05273 L 749.6875 786.05273 L 749.6875 773.95703 z "
     transform="scale(0.26458333)"
     id="path11932" />
  <path
     sodipodi:nodetypes="cccccccccccccccccccccccccccccccccccccccccccccccccccccccccc"
     inkscape:connector-curvature="0"
     d="m 15.113371,293.04591 c 17.530208,0 35.060419,0 52.59063,0 v -1.93 h 3.199997 v -5.09 h -3.199997 v -5.085 h 3.199997 v -5.09 h -3.199997 v -5.085 h 3.199997 v -5.09 h -3.199997 v -5.085 h 3.199997 v -5.09 h -3.199997 v -5.085 h 3.199997 v -5.09 h -3.199997 v -5.085 h 3.199997 v -5.09 h -3.199997 v -5.085 h 3.199997 v -5.09 h -3.199997 v -1.93 h -1.955 v -3.2 h -5.089997 v 3.2 h -5.110007 v -3.2 H 50.459 v 3.2 h -5.109997 v -3.2 h -5.090007 v 3.2 h -5.109997 v -3.2 h -5.090007 v 3.2 h -5.109997 v -3.2 h -5.089997 v 3.2 h -5.109997 v -3.2 H 9.6589943 v 3.2 h -1.955 c 0,20.86354 0,41.72709 0,62.59063 0,4.0921 3.3172767,7.40937 7.4093767,7.40937 z"
     style="fill:none;fill-opacity:1;stroke:#000000;stroke-width:1"
     id="path11940" />
  <path
     sodipodi:nodetypes="cccccccccccccccccccccccccccccccccccccccccccccccccccccccccc"
     inkscape:connector-curvature="0"
     d="m 78.613368,218.43336 c 17.53021,0 35.060432,0 52.590652,0 v -1.93 h 3.2 v -5.09 h -3.2 v -5.085 h 3.2 v -5.09 h -3.2 v -5.085 h 3.2 v -5.09 h -3.2 v -5.085 h 3.2 v -5.09 h -3.2 v -5.085 h 3.2 v -5.09 h -3.2 v -5.085 h 3.2 v -5.09 h -3.2 v -5.085 h 3.2 v -5.09 h -3.2 v -1.93 h -1.955 v -3.2 h -5.09 v 3.2 h -5.11001 v -3.2 h -5.09 v 3.2 h -5.11 v -3.2 H 103.759 v 3.2 h -5.110002 v -3.2 h -5.09 v 3.2 h -5.11 v -3.2 h -5.09 v 3.2 h -5.11 v -3.2 h -5.09 v 3.2 h -1.955 c 0,20.86354 0,41.72709 0,62.59063 0,4.0921 3.31727,7.40937 7.40937,7.40937 z"
     style="fill:none;fill-opacity:1;stroke:#000000;stroke-width:1"
     id="path11942" />
  <path
     id="path11944"
     style="fill:none;fill-opacity:1;stroke:#000000;stroke-width:1"
     d="m 79.671709,293.04591 c 17.530208,0 35.060431,0 52.590651,0 v -1.93 h 3.2 v -5.09 h -3.2 v -5.085 h 3.2 v -5.09 h -3.2 v -5.085 h 3.2 v -5.09 h -3.2 v -5.085 h 3.2 v -5.09 h -3.2 v -5.085 h 3.2 v -5.09 h -3.2 v -5.085 h 3.2 v -5.09 h -3.2 v -5.085 h 3.2 v -5.09 h -3.2 v -1.93 h -1.955 v -3.2 h -5.09 v 3.2 h -5.11001 v -3.2 h -5.09 v 3.2 h -5.11 v -3.2 h -5.09001 v 3.2 h -5.110003 v -3.2 H 94.61733 v 3.2 h -5.109997 v -3.2 h -5.089997 v 3.2 h -5.109997 v -3.2 h -5.090007 v 3.2 h -1.955 c 0,20.86354 0,41.72709 0,62.59063 0,4.0921 3.317277,7.40937 7.409377,7.40937 z"
     inkscape:connector-curvature="0"
     sodipodi:nodetypes="cccccccccccccccccccccccccccccccccccccccccccccccccccccccccc" />
  <path
     id="path943"
     d="m 207.18366,293.63315 v -1.95491 h 3.19981 v -5.09013 h -3.19981 v -5.10977 h 3.19981 v -5.09013 h -3.19981 v -5.11028 h 3.19981 v -5.08961 h -3.19981 v -5.11028 h 3.19981 v -5.09013 h -3.19981 v -5.10977 h 3.19981 v -5.09013 h -3.19981 v -5.10976 h 3.19981 v -5.09013 h -3.19981 v -1.9451 h -1.83193 l 0.001,-5.64668 -61.71045,-16.53543 -4.43074,16.53543 v 5.64668 h -2.0283 v 1.9451 5.09013 5.10976 5.09013 35.33583 c 0,4.0921 3.31727,7.40937 7.40937,7.40937 l 35.22059,0.01 h 5.09013 5.08496 5.09013 5.08496 5.09013 z m -7.09672,-59.99013 h -4.9103 v -3.20032 h 4.9103 z m -10.17509,0 h -4.90978 v -3.20032 h 4.90978 z m -10.17509,0 h -4.90978 v -3.20032 h 4.90978 z m -10.17509,0 h -4.90978 v -3.20032 h 4.90978 z m -10.17457,0 h -4.9103 v -3.20032 h 4.9103 z m -10.17509,0 h -4.9103 v -3.20032 h 4.9103 z"
     style="fill:none;fill-opacity:1;stroke:#000000;stroke-width:1"
     inkscape:connector-curvature="0" />
</svg>
