<?xml version="1.0" encoding="UTF-8" standalone="no"?>
<!-- Created with Inkscape (http://www.inkscape.org/) -->

<svg
   xmlns:dc="http://purl.org/dc/elements/1.1/"
   xmlns:cc="http://creativecommons.org/ns#"
   xmlns:rdf="http://www.w3.org/1999/02/22-rdf-syntax-ns#"
   xmlns:svg="http://www.w3.org/2000/svg"
   xmlns="http://www.w3.org/2000/svg"
   xmlns:sodipodi="http://sodipodi.sourceforge.net/DTD/sodipodi-0.dtd"
   xmlns:inkscape="http://www.inkscape.org/namespaces/inkscape"
   width="210mm"
   height="297mm"
   viewBox="0 0 210 297"
   version="1.1"
   id="svg1048"
   inkscape:version=""
   sodipodi:docname="mythons-otherworld-high.svg">
  <defs
     id="defs1042" />
  <sodipodi:namedview
     id="base"
     pagecolor="#ffffff"
     bordercolor="#666666"
     borderopacity="1.0"
     inkscape:pageopacity="0.0"
     inkscape:pageshadow="2"
     inkscape:zoom="1.4"
     inkscape:cx="398.47402"
     inkscape:cy="281.39121"
     inkscape:document-units="mm"
     inkscape:current-layer="layer1"
     showgrid="false"
     inkscape:window-width="1880"
     inkscape:window-height="1076"
     inkscape:window-x="18"
     inkscape:window-y="0"
     inkscape:window-maximized="1"
     inkscape:measure-start="290.1,1057.63"
     inkscape:measure-end="309.187,679.676" />
  <metadata
     id="metadata1045">
    <rdf:RDF>
      <cc:Work
         rdf:about="">
        <dc:format>image/svg+xml</dc:format>
        <dc:type
           rdf:resource="http://purl.org/dc/dcmitype/StillImage" />
        <dc:title />
      </cc:Work>
    </rdf:RDF>
  </metadata>
  <g
     inkscape:label="Layer 1"
     inkscape:groupmode="layer"
     id="layer1">
    <path
       style="fill:none;stroke:#000000;stroke-width:1"
       d="m 129.28983,186.13431 v 3.20033 h -6.52157 v 1.97197 h 3.19981 v 4.91029 h -3.19981 v 5.21726 h 3.19981 v 4.90977 h -3.19981 v 5.21726 h 3.19981 v 4.91029 h -3.19981 v 5.21725 h 3.19981 v 4.90978 h -3.19981 v 5.21725 h 3.19981 v 4.90978 h -3.19981 v 5.21777 h 3.19981 v 4.90978 h -3.19981 v 5.21724 h 3.19981 v 4.9098 h -3.19981 v 5.21724 h 3.19981 v 4.91029 h -3.19981 v 5.21727 h 3.19981 v 4.90977 h -3.19981 v 5.21725 h 3.19981 v 4.91027 h -3.19981 v 1.97199 h 6.52157 5.09013 0.33124 v -74.41406 c 0,-11.18772 9.06944,-20.25716 20.25716,-20.25716 11.18772,0 20.25716,9.06944 20.25716,20.25716 v 74.41406 h 0.33073 5.09013 6.52157 v -1.97199 h -3.19981 v -4.91027 h 3.19981 v -5.21725 h -3.19981 v -4.90977 h 3.19981 v -5.21727 h -3.19981 v -4.91029 h 3.19981 v -5.21724 h -3.19981 v -4.9098 h 3.19981 v -5.21724 h -3.19981 v -4.90978 h 3.19981 v -5.21777 h -3.19981 v -4.90978 h 3.19981 v -5.21725 h -3.19981 v -4.90978 h 3.19981 v -5.21725 h -3.19981 v -4.91029 h 3.19981 v -5.21726 h -3.19981 v -4.90977 h 3.19981 v -5.21726 h -3.19981 v -4.91029 h 3.19981 v -1.97197 h -6.52157 v -3.20033 h -5.09013 v 3.20033 h -6.4766 v -3.20033 h -5.08962 v 3.20033 h -6.47712 v -3.20033 h -5.08961 v 3.20033 h -6.47661 v -3.20033 h -5.09013 v 3.20033 h -6.4766 v -3.20033 z"
       id="path12975"
       inkscape:connector-curvature="0" />
    <g
       id="g1183"
       transform="translate(-639.0747,76.595694)">
      <path
         inkscape:connector-curvature="0"
         d="m 761.64104,6.3386084 h 6.52166 v 0 h 5.09 v 0 h 6.47667 v 0 h 5.09 v 0 h 6.47667 v 0 h 5.09 v 0 h 6.47666 v 0 h 5.09 v 0 h 6.47667 v 0 h 5.09 v 0 h 6.52167"
         style="fill:none;stroke:#000000;stroke-width:1"
         inkscape:label="part"
         id="path13009" />
      <path
         inkscape:connector-curvature="0"
         d="m 826.04104,6.3386084 v 1.9722727 h -3.2 v 4.9099999 h 3.2 v 5.217273 h -3.2 v 4.91 h 3.2 v 5.217273 h -3.2 v 4.91 h 3.2 v 5.217272 h -3.2 v 4.91 h 3.2 v 5.217273 h -3.2 v 4.91 h 3.2 v 5.217273 h -3.2 v 4.91 h 3.2 v 5.217273 h -3.2 v 4.91 h 3.2 v 5.217272 h -3.2 v 4.91 h 3.2 v 5.217273 h -3.2 v 4.91 h 3.2 v 5.217273 h -3.2 v 4.910004 h 3.2 v 1.97227"
         style="fill:none;stroke:#000000;stroke-width:1"
         inkscape:label="part"
         id="path13011" />
      <path
         inkscape:connector-curvature="0"
         d="m 826.04104,106.33861 h -6.52167 v 3.2 h -5.09 v -3.2 h -6.47667 v 3.2 h -5.09 v -3.2 h -6.47666 v 3.2 h -5.09 v -3.2 h -6.47667 v 3.2 h -5.09 v -3.2 h -6.47667 v 3.2 h -5.09 v -3.2 h -6.52166"
         style="fill:none;stroke:#000000;stroke-width:1"
         inkscape:label="part"
         id="path13013" />
      <path
         inkscape:connector-curvature="0"
         d="m 761.64104,106.33861 v -1.97227 h 3.2 v -4.910004 h -3.2 v -5.217273 h 3.2 v -4.91 h -3.2 V 84.11179 h 3.2 v -4.91 h -3.2 v -5.217272 h 3.2 v -4.91 h -3.2 v -5.217273 h 3.2 v -4.91 h -3.2 v -5.217273 h 3.2 v -4.91 h -3.2 v -5.217273 h 3.2 v -4.91 h -3.2 v -5.217272 h 3.2 v -4.91 h -3.2 v -5.217273 h 3.2 v -4.91 h -3.2 v -5.217273 h 3.2 V 8.3108811 h -3.2 V 6.3386084"
         style="fill:none;stroke:#000000;stroke-width:1"
         inkscape:label="part"
         id="path13015" />
    </g>
    <g
       id="g1216"
       transform="rotate(90,436.61061,-203.86138)">
      <path
         inkscape:connector-curvature="0"
         d="m 761.64104,110.33861 h 6.61166 v 3.2 h 4.91 v -3.2 h 6.65667 v 3.2 h 4.91 v -3.2 h 6.65667 v 3.2 h 4.91 v -3.2 h 6.65666 v 3.2 h 4.91 v -3.2 h 6.65667 v 3.2 h 4.91 v -3.2 h 6.61167"
         style="fill:none;stroke:#000000;stroke-width:1"
         inkscape:label="part"
         id="path12985" />
      <path
         inkscape:connector-curvature="0"
         d="m 826.04104,110.33861 v 5.185 h -3.2 v 4.91 h 3.2 v 5.23 h -3.2 v 4.91 h 3.2 v 5.23 h -3.2 v 4.91 h 3.2 v 5.23 h -3.2 v 4.91 h 3.2 v 5.23 h -3.2 v 4.91 h 3.2 v 5.23 h -3.2 v 4.91 h 3.2 v 5.23 h -3.2 v 4.91 h 3.2 v 5.23 h -3.2 v 4.91 h 3.2 v 5.23 h -3.2 v 4.91 h 3.2 v 5.185"
         style="fill:none;stroke:#000000;stroke-width:1"
         inkscape:label="part"
         id="path12987" />
      <path
         inkscape:connector-curvature="0"
         d="m 826.04104,206.73861 h -6.61167 v -3.2 h -4.91 v 3.2 h -6.65667 v -3.2 h -4.91 v 3.2 h -6.65666 v -3.2 h -4.91 v 3.2 h -6.65667 v -3.2 h -4.91 v 3.2 h -6.65667 v -3.2 h -4.91 v 3.2 h -6.61166"
         style="fill:none;stroke:#000000;stroke-width:1"
         inkscape:label="part"
         id="path12989" />
      <path
         inkscape:connector-curvature="0"
         d="m 761.64104,206.73861 v -5.185 h 3.2 v -4.91 h -3.2 v -5.23 h 3.2 v -4.91 h -3.2 v -5.23 h 3.2 v -4.91 h -3.2 v -5.23 h 3.2 v -4.91 h -3.2 v -5.23 h 3.2 v -4.91 h -3.2 v -5.23 h 3.2 v -4.91 h -3.2 v -5.23 h 3.2 v -4.91 h -3.2 v -5.23 h 3.2 v -4.91 h -3.2 v -5.23 h 3.2 v -4.91 h -3.2 v -5.185"
         style="fill:none;stroke:#000000;stroke-width:1"
         inkscape:label="part"
         id="path12991" />
      <circle
         r="15.709635"
         cy="158.5386"
         cx="793.84106"
         id="path13176"
         style="color:#000000;display:inline;overflow:visible;visibility:visible;fill:none;fill-rule:evenodd;stroke:#000000;stroke-width:1;stroke-linecap:butt;stroke-linejoin:miter;stroke-miterlimit:4;stroke-dasharray:none;stroke-dashoffset:0;stroke-opacity:1;marker:none;marker-start:none;marker-mid:none;marker-end:none;enable-background:accumulate" />
    </g>
    <path
       id="path12977"
       inkscape:label="part"
       style="fill:none;stroke:#000000;stroke-width:1"
       d="m 119.21062,17.16905 v 1.88227 h 3.2 v 5.09 h -3.2 v 5.03727 h 3.2 v 5.09 h -3.2 v 5.03728 h 3.2 v 5.09 h -3.2 v 5.03727 h 3.2 v 5.09 h -3.2 v 5.03727 h 3.2 v 5.09 h -3.2 v 5.03727 h 3.2 v 5.09 h -3.2 v 5.03728 h 3.2 v 5.09 h -3.2 v 5.03727 h 3.2 v 5.09 h -3.2 v 5.03727 h 3.2 v 5.09 h -3.2 v 5.03727 h 3.2 v 5.09 h -3.2 v 1.88228"
       inkscape:connector-curvature="0" />
    <path
       id="path12979"
       inkscape:label="part"
       style="fill:none;stroke:#000000;stroke-width:1"
       d="m 119.21062,117.16905 h -1.895 v 3.2 h -5.09 v -3.2 h -5.05 v 3.2 h -5.09 v -3.2 h -5.05 v 3.2 h -5.09 v -3.2 h -5.05 v 3.2 h -5.09 v -3.2 h -5.05 v 3.2 h -5.09 v -3.2 h -5.05 v 3.2 h -5.09 v -3.2 h -5.05 v 3.2 h -5.09 v -3.2 h -5.05 v 3.2 h -5.09 v -3.2 h -5.05 v 3.2 h -5.09 v -3.2 h -1.895"
       inkscape:connector-curvature="0" />
    <path
       id="path12981"
       inkscape:label="part"
       style="fill:none;stroke:#000000;stroke-width:1"
       d="m 29.21062,117.16905 v -1.88228 h -3.2 v -5.09 h 3.2 v -5.03727 h -3.2 v -5.09 h 3.2 v -5.03727 h -3.2 v -5.09 h 3.2 v -5.03727 h -3.2 v -5.09 h 3.2 v -5.03728 h -3.2 v -5.09 h 3.2 v -5.03727 h -3.2 v -5.09 h 3.2 l 0,-5.03727 h -3.2 v -5.09 h 3.2 v -5.03727 h -3.2 v -5.09 h 3.2 v -5.03728 h -3.2 v -5.09 h 3.2 v -5.03727 h -3.2 v -5.09 h 3.2 v -1.88227"
       inkscape:connector-curvature="0" />
    <path
       id="path12983"
       inkscape:label="part"
       style="fill:none;stroke:#000000;stroke-width:1"
       d="m 29.21062,17.16905 h 1.895 v 0 h 5.09 v 0 h 5.05 v 0 h 5.09 v 0 h 5.05 v 0 h 5.09 v 0 h 5.05 v 0 h 5.09 v 0 h 5.05 v 0 h 5.09 v 0 h 5.05 v 0 h 5.09 v 0 h 5.05 v 0 h 5.09 v 0 h 5.05 v 0 h 5.09 v 0 h 5.05 v 0 h 5.09 v 0 h 1.895"
       inkscape:connector-curvature="0" />
    <text
       xml:space="preserve"
       style="font-style:normal;font-variant:normal;font-weight:normal;font-stretch:normal;font-size:6.61458302px;line-height:125%;font-family:'Mythos Std';-inkscape-font-specification:'Mythos Std';text-align:center;letter-spacing:0px;word-spacing:0px;text-anchor:middle;fill:#000000;fill-opacity:1;stroke:none;stroke-width:0.26458332px;stroke-linecap:butt;stroke-linejoin:miter;stroke-opacity:1"
       x="139.47322"
       y="37.708332"
       id="text2811"><tspan
         sodipodi:role="line"
         id="tspan2809"
         x="139.47322"
         y="43.69453"
         style="stroke-width:0.26458332px" /></text>
    <g
       id="g1147"
       transform="matrix(1.0926219,0,0,1.0926219,-43.588469,-145.63251)">
      <g
         id="g1139">
        <g
           id="g1132">
          <g
             id="g1126">
            <g
               id="g1100"
               transform="translate(7.6540179,15.449777)">
              <ellipse
                 ry="0.53513104"
                 rx="0.33072916"
                 cy="176.80292"
                 cx="65.018646"
                 id="path1052"
                 style="color:#000000;display:inline;overflow:visible;visibility:visible;fill:#359635;fill-opacity:0.40182651;fill-rule:evenodd;stroke:#000000;stroke-width:0.26458332px;stroke-linecap:butt;stroke-linejoin:miter;stroke-miterlimit:4;stroke-dasharray:none;stroke-dashoffset:0;stroke-opacity:1;marker:none;marker-start:none;marker-mid:none;marker-end:none;enable-background:accumulate" />
              <path
                 inkscape:connector-curvature="0"
                 id="path1056"
                 style="color:#000000;display:inline;overflow:visible;visibility:visible;fill:#359635;fill-opacity:0.40182651;fill-rule:evenodd;stroke:#000000;stroke-width:0.26458332px;stroke-linecap:butt;stroke-linejoin:miter;stroke-miterlimit:4;stroke-dasharray:none;stroke-dashoffset:0;stroke-opacity:1;marker:none;marker-start:none;marker-mid:none;marker-end:none;enable-background:accumulate"
                 d="m 66.601419,176.94465 a 1.5119048,1.6300223 0 0 1 -1.511905,1.63002 1.5119048,1.6300223 0 0 1 -1.511905,-1.63002 1.5119048,1.6300223 0 0 1 1.511905,-1.63003 1.5119048,1.6300223 0 0 1 1.511905,1.63003 z m -5.244423,0.0236 c 0,0 4.063244,5.33891 7.701264,-0.28349 -3.410954,-5.01704 -7.716772,-0.45071 -7.701264,0.28349 z" />
            </g>
          </g>
        </g>
      </g>
    </g>
    <g
       id="g1157"
       transform="matrix(1.0926219,0,0,1.0926219,-21.349221,-167.56201)">
      <g
         transform="translate(-1.6063988,4.5357143)"
         id="g1096">
        <ellipse
           id="ellipse1058"
           style="color:#000000;display:inline;overflow:visible;visibility:visible;fill:#359635;fill-opacity:0.40182651;fill-rule:evenodd;stroke:#000000;stroke-width:0.24254693px;stroke-linecap:butt;stroke-linejoin:miter;stroke-miterlimit:4;stroke-dasharray:none;stroke-dashoffset:0;stroke-opacity:1;marker:none;marker-start:none;marker-mid:none;marker-end:none;enable-background:accumulate"
           ry="0.44970405"
           rx="0.33072916"
           cy="169.27914"
           cx="71.137138" />
        <path
           id="path1060"
           style="color:#000000;display:inline;overflow:visible;visibility:visible;fill:#359635;fill-opacity:0.40182651;fill-rule:evenodd;stroke:#000000;stroke-width:0.24254693px;stroke-linecap:butt;stroke-linejoin:miter;stroke-miterlimit:4;stroke-dasharray:none;stroke-dashoffset:0;stroke-opacity:1;marker:none;marker-start:none;marker-mid:none;marker-end:none;enable-background:accumulate"
           d="m 72.398629,168.99666 c -6e-6,0.75652 -0.676907,1.3698 -1.511905,1.3698 -0.834998,0 -1.511899,-0.61328 -1.511905,-1.3698 -7e-6,-0.75653 0.676898,-1.36982 1.511905,-1.36982 0.835006,0 1.511911,0.61329 1.511905,1.36982 z m -5.77359,0.0198 c 0,0 4.063244,4.48662 7.701264,-0.23824 -3.410954,-4.21613 -7.716772,-0.37876 -7.701264,0.23824 z"
           inkscape:connector-curvature="0"
           sodipodi:nodetypes="sssssccc" />
      </g>
    </g>
    <g
       id="g1121"
       transform="matrix(1.0926219,0,0,1.0926219,-44.845322,-111.16229)">
      <g
         transform="translate(7.5122768,11.008557)"
         id="g1104">
        <ellipse
           cx="-44.025654"
           cy="188.08179"
           rx="0.46042603"
           ry="0.62605745"
           style="color:#000000;display:inline;overflow:visible;visibility:visible;fill:#359635;fill-opacity:0.40182651;fill-rule:evenodd;stroke:#000000;stroke-width:0.33766276px;stroke-linecap:butt;stroke-linejoin:miter;stroke-miterlimit:4;stroke-dasharray:none;stroke-dashoffset:0;stroke-opacity:1;marker:none;marker-start:none;marker-mid:none;marker-end:none;enable-background:accumulate"
           id="ellipse1062"
           transform="rotate(-36.526885)" />
        <path
           sodipodi:nodetypes="sssssccc"
           inkscape:connector-curvature="0"
           d="m 77.819685,176.40632 c 0.450276,0.60793 0.271358,1.50364 -0.399628,2.00063 -0.670986,0.49699 -1.579953,0.40706 -2.030238,-0.20086 -0.450292,-0.60792 -0.271377,-1.50364 0.399616,-2.00064 0.670993,-0.49699 1.579968,-0.40706 2.03025,0.20087 z m -4.026387,3.20178 c 0,0 5.935568,1.18691 6.046763,-4.77523 -5.250406,-1.35779 -6.426463,4.28866 -6.046763,4.77523 z"
           style="color:#000000;display:inline;overflow:visible;visibility:visible;fill:#359635;fill-opacity:0.40182651;fill-rule:evenodd;stroke:#000000;stroke-width:0.24254693px;stroke-linecap:butt;stroke-linejoin:miter;stroke-miterlimit:4;stroke-dasharray:none;stroke-dashoffset:0;stroke-opacity:1;marker:none;marker-start:none;marker-mid:none;marker-end:none;enable-background:accumulate"
           id="path1064" />
      </g>
    </g>
    <g
       id="g1152"
       transform="matrix(1.0926219,0,0,1.0926219,36.97341,-127.14995)">
      <g
         transform="translate(10.110863,15.024554)"
         id="g1092">
        <ellipse
           ry="0.53513104"
           rx="0.33072916"
           cy="154.03288"
           cx="92.834549"
           id="ellipse1068"
           style="color:#000000;display:inline;overflow:visible;visibility:visible;fill:#359635;fill-opacity:0.40182651;fill-rule:evenodd;stroke:#000000;stroke-width:0.26458332px;stroke-linecap:butt;stroke-linejoin:miter;stroke-miterlimit:4;stroke-dasharray:none;stroke-dashoffset:0;stroke-opacity:1;marker:none;marker-start:none;marker-mid:none;marker-end:none;enable-background:accumulate"
           transform="rotate(13.171632)" />
        <path
           id="path1070"
           style="color:#000000;display:inline;overflow:visible;visibility:visible;fill:#359635;fill-opacity:0.40182651;fill-rule:evenodd;stroke:#000000;stroke-width:0.26458332px;stroke-linecap:butt;stroke-linejoin:miter;stroke-miterlimit:4;stroke-dasharray:none;stroke-dashoffset:0;stroke-opacity:1;marker:none;marker-start:none;marker-mid:none;marker-end:none;enable-background:accumulate"
           d="m 57.038028,170.57499 c -0.205133,0.87656 -1.030524,1.4329 -1.84356,1.24263 -0.813037,-0.19027 -1.305838,-1.05511 -1.100699,-1.93166 0.205133,-0.87656 1.030525,-1.4329 1.843562,-1.24263 0.813036,0.19027 1.305836,1.05511 1.100697,1.93166 z m -5.11183,-1.17206 c 0,0 2.361801,6.50232 7.185281,1.85683 0.08987,-5.85129 -6.277127,-6.02428 -7.185281,-1.85683 z"
           inkscape:connector-curvature="0"
           sodipodi:nodetypes="cscscccc" />
      </g>
    </g>
    <g
       id="g1116"
       transform="matrix(1.0926219,0,0,1.0926219,-7.544713,-166.12974)">
      <ellipse
         cx="-40.051296"
         cy="222.45619"
         rx="0.46042603"
         ry="0.62605745"
         style="color:#000000;display:inline;overflow:visible;visibility:visible;fill:#359635;fill-opacity:0.40182651;fill-rule:evenodd;stroke:#000000;stroke-width:0.33766276px;stroke-linecap:butt;stroke-linejoin:miter;stroke-miterlimit:4;stroke-dasharray:none;stroke-dashoffset:0;stroke-opacity:1;marker:none;marker-start:none;marker-mid:none;marker-end:none;enable-background:accumulate"
         id="ellipse1106"
         transform="rotate(-36.526885)" />
      <path
         sodipodi:nodetypes="sssssccc"
         inkscape:connector-curvature="0"
         d="m 101.69001,202.41304 c 0.40305,0.75647 0.0572,1.37786 -0.77251,1.38791 -0.82968,0.0101 -1.829056,-0.59504 -2.232119,-1.3515 -0.403056,-0.75647 -0.05721,-1.37787 0.772495,-1.38793 0.829734,-0.01 1.829074,0.59505 2.232134,1.35152 z m -5.014638,0.23826 c 0,0 6.427868,4.43738 7.525488,-0.33093 -5.6356,-4.17477 -7.869623,-0.28583 -7.525488,0.33093 z"
         style="color:#000000;display:inline;overflow:visible;visibility:visible;fill:#359635;fill-opacity:0.40182651;fill-rule:evenodd;stroke:#000000;stroke-width:0.24254693px;stroke-linecap:butt;stroke-linejoin:miter;stroke-miterlimit:4;stroke-dasharray:none;stroke-dashoffset:0;stroke-opacity:1;marker:none;marker-start:none;marker-mid:none;marker-end:none;enable-background:accumulate"
         id="path1108" />
    </g>
    <g
       id="g1165"
       transform="matrix(0.66979408,-0.79885754,0.48986107,0.54706623,-56.296777,57.033904)">
      <g
         id="g1163"
         transform="translate(10.110863,15.024554)">
        <ellipse
           transform="rotate(13.171632)"
           style="color:#000000;display:inline;overflow:visible;visibility:visible;fill:#359635;fill-opacity:0.40182651;fill-rule:evenodd;stroke:#000000;stroke-width:0.26458332px;stroke-linecap:butt;stroke-linejoin:miter;stroke-miterlimit:4;stroke-dasharray:none;stroke-dashoffset:0;stroke-opacity:1;marker:none;marker-start:none;marker-mid:none;marker-end:none;enable-background:accumulate"
           id="ellipse1159"
           cx="92.834549"
           cy="154.03288"
           rx="0.33072916"
           ry="0.53513104" />
        <path
           sodipodi:nodetypes="cscscccc"
           inkscape:connector-curvature="0"
           d="m 57.038028,170.57499 c -0.205133,0.87656 -1.030524,1.4329 -1.84356,1.24263 -0.813037,-0.19027 -1.305838,-1.05511 -1.100699,-1.93166 0.205133,-0.87656 1.030525,-1.4329 1.843562,-1.24263 0.813036,0.19027 1.305836,1.05511 1.100697,1.93166 z m -5.11183,-1.17206 c 0,0 2.361801,6.50232 7.185281,1.85683 0.08987,-5.85129 -6.277127,-6.02428 -7.185281,-1.85683 z"
           style="color:#000000;display:inline;overflow:visible;visibility:visible;fill:#359635;fill-opacity:0.40182651;fill-rule:evenodd;stroke:#000000;stroke-width:0.26458332px;stroke-linecap:butt;stroke-linejoin:miter;stroke-miterlimit:4;stroke-dasharray:none;stroke-dashoffset:0;stroke-opacity:1;marker:none;marker-start:none;marker-mid:none;marker-end:none;enable-background:accumulate"
           id="path1161-2" />
      </g>
    </g>
    <g
       id="g1173"
       transform="matrix(0.47384962,0.98452527,-0.98452527,0.47384962,240.46429,-151.38456)">
      <g
         id="g1171"
         transform="translate(7.5122768,11.008557)">
        <ellipse
           transform="rotate(-36.526885)"
           id="ellipse1167"
           style="color:#000000;display:inline;overflow:visible;visibility:visible;fill:#359635;fill-opacity:0.40182651;fill-rule:evenodd;stroke:#000000;stroke-width:0.33766276px;stroke-linecap:butt;stroke-linejoin:miter;stroke-miterlimit:4;stroke-dasharray:none;stroke-dashoffset:0;stroke-opacity:1;marker:none;marker-start:none;marker-mid:none;marker-end:none;enable-background:accumulate"
           ry="0.62605745"
           rx="0.46042603"
           cy="188.08179"
           cx="-44.025654" />
        <path
           id="path1169"
           style="color:#000000;display:inline;overflow:visible;visibility:visible;fill:#359635;fill-opacity:0.40182651;fill-rule:evenodd;stroke:#000000;stroke-width:0.24254693px;stroke-linecap:butt;stroke-linejoin:miter;stroke-miterlimit:4;stroke-dasharray:none;stroke-dashoffset:0;stroke-opacity:1;marker:none;marker-start:none;marker-mid:none;marker-end:none;enable-background:accumulate"
           d="m 77.819685,176.40632 c 0.450276,0.60793 0.271358,1.50364 -0.399628,2.00063 -0.670986,0.49699 -1.579953,0.40706 -2.030238,-0.20086 -0.450292,-0.60792 -0.271377,-1.50364 0.399616,-2.00064 0.670993,-0.49699 1.579968,-0.40706 2.03025,0.20087 z m -4.026387,3.20178 c 0,0 5.935568,1.18691 6.046763,-4.77523 -5.250406,-1.35779 -6.426463,4.28866 -6.046763,4.77523 z"
           inkscape:connector-curvature="0"
           sodipodi:nodetypes="sssssccc" />
      </g>
    </g>
    <path
       style="fill:#000000;stroke-width:0.07806767"
       d="m 32.546019,45.564428 c -0.05542,-0.220911 0.0934,-0.408839 0.323866,-0.408839 0.09661,0 0.321794,-0.131659 0.500513,-0.292751 0.321292,-0.28946 0.333592,-0.32082 1.093702,-2.79085 0.42281,-1.37402 1.23153,-3.98292 1.79717,-5.79749 1.04637,-3.35693 1.1748,-3.8624 1.1756,-4.62675 5.3e-4,-0.51335 -0.1288,-0.73178 -0.50722,-0.85664 -0.29216,-0.096 -0.36172,-0.29756 -0.16064,-0.46437 0.15482,-0.12851 3.68397,-0.12526 3.83913,0.003 0.1829,0.15184 0.13302,0.43764 -0.086,0.49263 -0.25352,0.0637 -0.32047,0.34266 -0.20506,0.85488 0.11896,0.52796 1.57688,3.28129 1.75587,3.31592 0.34082,0.0667 0.50832,-0.27613 1.17581,-2.4019 0.43823,-1.39571 0.51711,-1.72858 0.47543,-2.006689 l -0.0499,-0.333241 1.34079,-0.023 c 1.26028,-0.0213 1.34725,-0.0134 1.44849,0.13087 0.15949,0.22808 0.13587,0.43158 -0.0501,0.43158 -0.25458,0 -0.35629,0.32621 -0.25391,0.81417 0.0477,0.22721 0.89395,2.44685 1.88064,4.93237 0.9867,2.48568 2.01353,5.08139 2.28186,5.76841 0.52088,1.33363 0.84896,2.03915 1.11636,2.400781 0.21405,0.289579 0.60035,0.526738 0.85778,0.526738 0.12053,0 0.2355,0.0615 0.28355,0.150982 0.19179,0.35836 0.20128,0.35678 -1.97039,0.352499 -1.12802,-0.0021 -2.09406,-0.0302 -2.14674,-0.0633 -0.1348,-0.0839 -0.1221,-0.440301 0.0157,-0.440301 0.0613,0 0.18767,-0.0961 0.28085,-0.21472 0.13256,-0.167849 0.16136,-0.286721 0.13239,-0.54619 -0.0345,-0.30929 -4.51114,-11.73085 -4.68162,-11.94456 -0.22525,-0.2825 -0.28499,-0.13938 -1.26371,3.02505 -0.45816,1.48134 -0.869,2.80753 -0.913,2.94709 -0.0712,0.22584 -0.11163,0.25369 -0.36721,0.25369 -0.26345,0 -0.29483,-0.0239 -0.37943,-0.29276 -0.0507,-0.16096 -0.63478,-1.39935 -1.29792,-2.75184 -0.89511,-1.82566 -1.27871,-2.52873 -1.48917,-2.72915 l -0.28348,-0.27005 -0.166,0.166 c -0.11844,0.1185 -0.67614,1.81756 -1.94636,5.9299 -1.93721,6.271941 -1.90359,6.121081 -1.41636,6.34947 0.25975,0.121801 0.36327,0.290869 0.29192,0.477012 -0.033,0.0865 -0.28495,0.108529 -1.21518,0.108529 -1.153885,0 -1.174283,-0.003 -1.217932,-0.176781 z m 23.732391,-1.46653 c -0.0551,-0.1438 0.0289,-0.24306 0.23818,-0.28139 0.0814,-0.015 0.22185,-0.12622 0.31228,-0.24723 0.15335,-0.20542 0.16603,-0.33412 0.18849,-1.91271 0.0155,-1.08581 -0.007,-1.80462 -0.0635,-2.00544 -0.0916,-0.32792 -1.73218,-2.72836 -2.63568,-3.85659 -0.28916,-0.36115 -0.68972,-0.87447 -0.89013,-1.14083 -0.47511,-0.63133 -0.70017,-0.79997 -1.14391,-0.85688 -0.42478,-0.0546 -0.59104,-0.13 -0.62104,-0.28163 -0.0179,-0.0908 0.28365,-0.10622 1.82356,-0.0959 1.11379,0.007 1.87613,0.0436 1.92346,0.0908 0.10793,0.10774 0.005,0.24815 -0.1805,0.24815 -0.36428,0 -0.24588,0.36768 0.35193,1.09299 0.47495,0.57613 2.03857,2.64231 2.49726,3.29975 0.64483,0.92438 0.9224,0.9626 1.01547,0.13995 0.0753,-0.6655 0.43012,-1.3101 1.13212,-2.05672 0.72096,-0.76667 1.05135,-1.23744 1.30268,-1.8559 0.23473,-0.57779 0.23331,-0.7313 -0.01,-1.1582 -0.10785,-0.18868 -0.18002,-0.35899 -0.16043,-0.3786 0.0196,-0.0193 0.15979,0.005 0.31155,0.0555 0.32127,0.10557 0.67135,0.4867 0.67135,0.72998 0,0.29358 -0.67952,1.54941 -1.21157,2.23911 -0.28154,0.36505 -0.66644,0.86645 -0.85533,1.11444 -0.42698,0.56052 -0.66101,1.17116 -0.73971,1.93026 -0.0345,0.33269 -0.14953,0.79505 -0.26647,1.0711 -0.19438,0.45861 -0.20576,0.55672 -0.20576,1.77435 0,1.72123 0.0534,1.8605 0.80597,2.10431 0.0827,0.0264 0.13137,0.10285 0.11607,0.18292 -0.0241,0.12502 -0.18331,0.13863 -1.84226,0.15778 -1.59823,0.0184 -1.82163,0.006 -1.86344,-0.10216 z m 12.0491,0.0703 c -0.12231,-0.12227 -0.0366,-0.26661 0.22259,-0.3749 0.51042,-0.21323 0.50462,-0.15585 0.50462,-5.00012 0,-4.6474 -0.008,-4.75288 -0.39091,-4.9577 -0.11553,-0.0621 -0.57379,-0.0833 -1.43134,-0.0649 -1.22262,0.0252 -1.27702,0.0333 -1.76886,0.26736 -0.65434,0.31113 -0.96102,0.57554 -1.22043,1.05208 -0.18679,0.34321 -0.23808,0.38514 -0.4714,0.38514 h -0.26182 l 0.28609,-0.56604 c 0.15735,-0.31128 0.36163,-0.81184 0.45397,-1.11238 l 0.16788,-0.54652 0.30817,0.0279 c 0.4101,0.0372 10.30278,0.0381 10.65042,6.88e-4 l 0.27152,-0.0288 0.20705,0.59641 c 0.11386,0.32803 0.31664,0.81218 0.45059,1.07579 0.13397,0.26367 0.24357,0.49802 0.24357,0.5209 0,0.0229 -0.11196,0.0302 -0.2488,0.0171 -0.2082,-0.0204 -0.28891,-0.0928 -0.49457,-0.4441 -0.28168,-0.48092 -0.92827,-0.95675 -1.55427,-1.14382 -0.56862,-0.1699 -2.51987,-0.16123 -2.76763,0.0113 -0.39484,0.27663 -0.39946,0.33315 -0.39946,4.90398 0,5.068481 -0.0433,4.795871 0.80596,5.07096 0.0827,0.0267 0.13137,0.10286 0.11608,0.18298 -0.0241,0.12498 -0.18253,0.13862 -1.82596,0.15771 -0.98978,0.0105 -1.82367,-0.003 -1.85306,-0.0319 z m 9.31466,-0.12841 c 0,-0.13453 0.063,-0.19745 0.25372,-0.25368 0.17345,-0.0514 0.2969,-0.16109 0.39022,-0.34799 0.12506,-0.25027 0.1365,-0.63908 0.1365,-4.64494 0,-4.00588 -0.0115,-4.39477 -0.1365,-4.64507 -0.0946,-0.18938 -0.22034,-0.3002 -0.40974,-0.36105 -0.18234,-0.0591 -0.28154,-0.14311 -0.29818,-0.25372 -0.0248,-0.16513 -0.0166,-0.16594 1.80672,-0.16594 1.4594,0 1.83984,0.0214 1.87183,0.10407 0.0563,0.1467 -0.0251,0.23623 -0.2967,0.32657 -0.37228,0.12385 -0.50717,0.48863 -0.50731,1.37174 -1.8e-4,1.05564 -0.0885,1.00753 1.84803,1.00753 1.90681,0 1.82102,0.0475 1.82102,-1.00406 0,-0.71509 -0.11203,-1.17527 -0.31701,-1.30195 -0.0543,-0.033 -0.20719,-0.0838 -0.33974,-0.11022 -0.18448,-0.0375 -0.24102,-0.091 -0.24102,-0.22738 v -0.17819 l 1.79437,0.008 c 0.98694,0.004 1.82245,0.036 1.85664,0.0707 0.0973,0.0967 -0.0229,0.32267 -0.17174,0.32267 -0.0732,0 -0.21937,0.0907 -0.32346,0.20145 l -0.18927,0.2015 v 4.58363 c 0,4.23909 0.009,4.59934 0.13703,4.7927 0.0748,0.11508 0.25103,0.23864 0.39032,0.27471 0.17594,0.0452 0.25338,0.11191 0.25338,0.21681 0,0.14524 -0.0716,0.15121 -1.83461,0.15121 -1.73961,0 -1.83459,-0.007 -1.83459,-0.14586 0,-0.0973 0.09,-0.17505 0.27323,-0.23434 0.18912,-0.0614 0.31527,-0.17243 0.40974,-0.36147 0.12314,-0.24653 0.1365,-0.57983 0.13661,-3.40593 8e-5,-2.81645 -0.0129,-3.14338 -0.12875,-3.23983 -0.0971,-0.0812 -0.50342,-0.11306 -1.64595,-0.13132 -1.28077,-0.0205 -1.54644,-0.004 -1.70571,0.0987 l -0.18864,0.12368 v 3.03312 c 0,1.66821 0.0219,3.14239 0.0485,3.27596 0.0638,0.31899 0.36398,0.63533 0.60293,0.63533 0.18861,0 0.32666,0.18225 0.24193,0.3193 -0.0244,0.0389 -0.85912,0.0712 -1.87389,0.0712 h -1.82997 z m 14.08144,0.0678 c -1.68319,-0.38429 -3.16071,-1.80002 -3.75406,-3.59698 -0.18336,-0.55523 -0.20625,-0.74564 -0.20625,-1.71743 0,-0.97243 0.023,-1.16204 0.20677,-1.71916 0.52791,-1.59902 1.78438,-2.92315 3.28115,-3.45799 0.47321,-0.16911 0.69979,-0.20084 1.458,-0.20488 0.98483,-0.005 1.4059,0.0823 2.14689,0.44205 1.0134,0.49313 1.89314,1.37991 2.41241,2.43211 0.42536,0.86151 0.55024,1.43068 0.55024,2.50787 0,1.07707 -0.12488,1.64631 -0.55024,2.50785 -0.64026,1.29731 -1.80028,2.30812 -3.13273,2.72985 -0.53453,0.16929 -1.82714,0.21044 -2.41218,0.0773 z m 2.85875,-0.83281 c 1.11866,-0.23981 1.83495,-1.58713 1.82239,-3.42773 -0.0184,-2.6999 -1.76899,-4.98668 -4.21438,-5.50474 -1.06969,-0.22669 -1.66797,-0.11241 -2.21663,0.42345 -0.9639,0.94142 -1.10425,3.29646 -0.31249,5.24213 0.72965,1.79282 1.76081,2.79162 3.29796,3.1943 0.6613,0.17328 1.06888,0.19152 1.62315,0.0729 z m 9.46259,0.85249 c -1.86097,-0.23339 -3.63206,-1.02786 -4.23038,-1.89747 -0.26369,-0.38323 -0.54769,-1.32582 -0.54769,-1.81767 0,-1.0215 0.90758,-1.5921 2.34207,-1.47245 0.37266,0.0307 0.7098,0.11276 0.92753,0.2245 0.58675,0.30095 0.80491,0.98684 0.48227,1.51598 -0.17028,0.2792 -0.70627,0.62268 -1.09228,0.69995 -0.23689,0.0474 -0.25314,0.0379 -0.2041,-0.11627 0.15942,-0.50239 -0.474,-0.85588 -1.19,-0.66406 -0.19971,0.0537 -0.40688,0.39426 -0.40627,0.66812 0.002,0.72532 0.55224,1.36855 1.6022,1.87242 1.44099,0.69142 4.4209,0.88399 6.27107,0.40519 1.39589,-0.36128 2.20857,-1.28404 2.32398,-2.63943 0.0506,-0.5915 -0.0983,-0.89703 -0.64207,-1.31313 -1.19937,-0.91867 -3.17603,-1.53521 -4.94958,-1.54374 -1.68672,-0.007 -3.40813,-0.65957 -3.96447,-1.50022 -0.23768,-0.35917 -0.3209,-1.05548 -0.17796,-1.48857 0.18759,-0.56844 1.14689,-1.21291 2.2297,-1.49807 0.79253,-0.20868 1.93199,-0.23484 3.2877,-0.0757 1.29535,0.15217 1.45208,0.1323 1.49994,-0.18991 0.0225,-0.15286 0.0655,-0.1692 0.3897,-0.14815 l 0.36431,0.023 0.0516,0.35136 c 0.0632,0.432991 0.38139,1.28647 0.65256,1.74909 0.20044,0.342181 0.20089,0.3464 0.0408,0.39715 -0.36118,0.11464 -0.59104,-0.0248 -0.86818,-0.526339 -0.46539,-0.84201 -1.24781,-1.215711 -2.68587,-1.28275 -1.71881,-0.0811 -3.22233,0.504619 -3.05115,1.187029 0.0792,0.312121 0.48561,0.708361 0.92011,0.895201 0.32029,0.137819 0.64203,0.18912 1.50672,0.240129 1.65098,0.0968 2.62151,0.33079 3.74709,0.90114 1.46354,0.74163 2.44863,1.85728 2.69725,3.054761 0.12474,0.60099 0.0515,1.098479 -0.25237,1.71588 -0.6371,1.294189 -1.91521,1.978379 -4.20093,2.248639 -1.06821,0.126261 -1.99428,0.133951 -2.8731,0.0238 z"
       id="path1689"
       inkscape:connector-curvature="0"
       sodipodi:nodetypes="cscccccccccccccccsccccscccscccscscscccsccscccccccccccccsccccccccsccccscccccccsccccsccccsccccsccccsccccccccscccscccssccscccsccsccssscccccccscscscccsscccccsscccccccscccccsccccccccccccccccccccccccccccccccc" />
    <path
       id="path2287"
       style="color:#000000;display:inline;overflow:visible;visibility:visible;fill:#359635;fill-opacity:0.40182651;fill-rule:evenodd;stroke:#000000;stroke-width:0.17840034px;stroke-linecap:butt;stroke-linejoin:miter;stroke-miterlimit:4;stroke-dasharray:none;stroke-dashoffset:0;stroke-opacity:1;marker:none;marker-start:none;marker-mid:none;marker-end:none;enable-background:accumulate"
       d="m 73.40806,62.744009 c -0.58921,0.56061 -1.26449,0.746498 -1.50828,0.415489 -0.24378,-0.331161 0.0362,-1.053859 0.62547,-1.61448 0.58922,-0.56048 2.07168,-0.87032 2.31546,-0.53917 0.12901,0.175162 0.23504,0.746299 -0.0212,0.772609 -0.30041,0.0304 -0.66193,0.170911 -1.4114,0.965592 z m -3.69503,5.069189 c 0,1.0828 -0.57045,1.960621 -1.27413,1.960621 -0.70367,0 -1.27411,-0.877821 -1.27412,-1.960621 0,-1.082921 1.37534,-2.93176 2.07902,-2.93176 0.37238,0 0.70744,0.24588 0.94041,0.637849 0.20727,0.348671 -0.5734,0.851371 -0.47118,2.293911 z m 0.6411,6.03471 c 0,0.85812 1.10241,2.516031 0.25295,2.637901 -2.01453,0.289139 -2.71022,-1.779781 -2.71022,-2.637901 0,-0.858219 0.69568,-1.553869 1.55386,-1.553869 0.85817,0 0.90341,0.69565 0.90341,1.553869 z m 5.25524,6.11728 c 0,0.96942 -0.83205,1.75523 -1.85844,1.75523 -1.02638,0 -1.85843,-0.78581 -1.85843,-1.75523 0,-0.969359 0.9333,-2.199629 1.85843,-1.755119 0.72996,0.350711 1.14069,1.635049 1.85844,1.755119 z m 29.52846,8.724371 c 0,1.111869 -0.85519,2.013289 -1.91011,2.013289 -1.05493,0 -1.91001,-0.90142 -1.91001,-2.013289 0,-1.111991 0.5613,-1.668341 1.61621,-1.668341 0.48981,0 0.93651,0.194271 1.27457,0.513771 0.39001,0.368559 0.92934,0.558879 0.92934,1.15457 z m -7.13991,-2.16971 c 0,0.9408 -0.98717,1.55018 -1.84255,1.55018 -0.8553,0 -1.54874,-0.762712 -1.54874,-1.703509 0,-0.94085 0.88509,-0.988171 1.74045,-0.988171 0.85528,0 1.65084,0.20062 1.65084,1.1415 z m -7.46948,-0.772811 c 0,1.22596 -0.87825,2.219761 -1.96168,2.219761 -1.08339,0 -1.96164,-0.993801 -1.96164,-2.219761 0,-1.22596 1.04435,-1.529869 2.12774,-1.529869 1.08342,0 1.79558,0.303909 1.79558,1.529869 z m -7.53696,-1.600309 c 0,1.311479 -0.92451,2.374649 -2.06493,2.374649 -1.14043,0 -3.00446,-1.352288 -3.00446,-2.66373 0,-1.31151 2.02923,-2.676768 3.00446,-2.08562 0.89839,0.54461 1.55692,2.206201 2.06493,2.374701 z M 96.06259,95.44538 C 84.29274,93.24915 72.42684,88.582818 69.92638,87.26867 67.42593,85.954609 57.11635,80.6492 58.68344,67.119048 c 1.56709,-13.53026 22.50542,-19.459519 27.99781,-6.607109 1.26102,3.109781 0.21977,4.996469 -0.98553,7.0451 -0.72268,1.228339 -2.43579,1.460519 -2.63964,1.43188 -0.63114,-0.0888 1.07382,-1.955249 0.81762,-2.69795 -0.25621,-0.74271 -0.61694,-1.762012 -1.68228,-2.858741 -2.84882,-2.93283 -8.79348,-1.209009 -11.02393,3.504282 -3.27063,6.911398 5.52711,12.741788 11.75399,13.469649 14.74843,1.723861 26.69492,3.755739 32.39861,9.496599 6.85984,6.904591 7.09053,8.833641 7.09053,8.833641 l -0.0414,16.504711 c 0,0 -7.54631,-16.29506 -26.30608,-19.79573 z"
       inkscape:connector-curvature="0"
       sodipodi:nodetypes="ccccscccscsccccssccscccsssscsssssscscsccscccczzcccscssscccc" />
    <g
       id="g2589"
       transform="rotate(-180,20.098905,217.38084)">
      <path
         id="path2481"
         inkscape:label="part"
         style="fill:none;stroke:#000000;stroke-width:1"
         d="m 10.629549,145.51718 v 1.88227 h 3.2 v 5.09 h -3.2 v 5.03727 h 3.2 v 5.09 h -3.2 v 5.03728 h 3.2 v 5.09 h -3.2 v 5.03727 h 3.2 v 5.09 h -3.2 v 5.03727 h 3.2 v 5.09 h -3.2 v 5.03727 h 3.2 v 5.09 h -3.2 v 5.03728 h 3.2 v 5.09 h -3.2 v 5.03727 h 3.2 v 5.09 h -3.2 v 5.03727 h 3.2 v 5.09 h -3.2 v 5.03727 h 3.2 v 5.09 h -3.2 v 1.88228"
         inkscape:connector-curvature="0" />
      <path
         id="path2483"
         inkscape:label="part"
         style="fill:none;stroke:#000000;stroke-width:1"
         d="M 10.629549,245.51718 H 8.7345486 v 3.2 h -5.09 v -3.2 h -5.05 v 3.2 h -5.09 v -3.2 h -5.0499996 v 3.2 h -5.09 v -3.2 h -5.05 v 3.2 h -5.09 v -3.2 h -5.05 v 3.2 h -5.09 v -3.2 h -5.05 v 3.2 h -5.09 v -3.2 h -5.05 v 3.2 h -5.09 v -3.2 h -5.05 v 3.2 h -5.09 v -3.2 h -5.05 v 3.2 h -5.09 v -3.2 h -1.895"
         inkscape:connector-curvature="0" />
      <path
         id="path2485"
         inkscape:label="part"
         style="fill:none;stroke:#000000;stroke-width:1"
         d="m -79.370451,245.51718 v -1.88228 h -3.2 v -5.09 h 3.2 v -5.03727 h -3.2 v -5.09 h 3.2 v -5.03727 h -3.2 v -5.09 h 3.2 v -5.03727 h -3.2 v -5.09 h 3.2 v -5.03728 h -3.2 v -5.09 h 3.2 v -5.03727 h -3.2 v -5.09 h 3.2 v -5.03727 h -3.2 v -5.09 h 3.2 V 172.744 h -3.2 v -5.09 h 3.2 v -5.03728 h -3.2 v -5.09 h 3.2 v -5.03727 h -3.2 v -5.09 h 3.2 v -1.88227"
         inkscape:connector-curvature="0" />
      <path
         id="path2487"
         inkscape:label="part"
         style="fill:none;stroke:#000000;stroke-width:1"
         d="m -79.370451,145.51718 h 1.895 v 0 h 5.09 v 0 h 5.05 v 0 h 5.09 v 0 h 5.05 v 0 h 5.09 v 0 h 5.05 v 0 h 5.09 v 0 h 5.05 v 0 h 5.09 v 0 h 5.05 v 0 h 5.09 v 0 h 5.05 v 0 h 5.09 v 0 h 5.0499996 v 0 h 5.09 v 0 h 5.05 v 0 h 5.09 v 0 h 1.8950004"
         inkscape:connector-curvature="0" />
      <g
         id="g2501"
         transform="matrix(1.0926219,0,0,1.0926219,-152.16954,-17.28438)">
        <g
           id="g2499">
          <g
             id="g2497">
            <g
               id="g2495">
              <g
                 id="g2493"
                 transform="translate(7.6540179,15.449777)">
                <ellipse
                   ry="0.53513104"
                   rx="0.33072916"
                   cy="176.80292"
                   cx="65.018646"
                   id="ellipse2489"
                   style="color:#000000;display:inline;overflow:visible;visibility:visible;fill:#359635;fill-opacity:0.40182651;fill-rule:evenodd;stroke:#000000;stroke-width:0.26458332px;stroke-linecap:butt;stroke-linejoin:miter;stroke-miterlimit:4;stroke-dasharray:none;stroke-dashoffset:0;stroke-opacity:1;marker:none;marker-start:none;marker-mid:none;marker-end:none;enable-background:accumulate" />
                <path
                   inkscape:connector-curvature="0"
                   id="path2491"
                   style="color:#000000;display:inline;overflow:visible;visibility:visible;fill:#359635;fill-opacity:0.40182651;fill-rule:evenodd;stroke:#000000;stroke-width:0.26458332px;stroke-linecap:butt;stroke-linejoin:miter;stroke-miterlimit:4;stroke-dasharray:none;stroke-dashoffset:0;stroke-opacity:1;marker:none;marker-start:none;marker-mid:none;marker-end:none;enable-background:accumulate"
                   d="m 66.601419,176.94465 a 1.5119048,1.6300223 0 0 1 -1.511905,1.63002 1.5119048,1.6300223 0 0 1 -1.511905,-1.63002 1.5119048,1.6300223 0 0 1 1.511905,-1.63003 1.5119048,1.6300223 0 0 1 1.511905,1.63003 z m -5.244423,0.0236 c 0,0 4.063244,5.33891 7.701264,-0.28349 -3.410954,-5.01704 -7.716772,-0.45071 -7.701264,0.28349 z" />
              </g>
            </g>
          </g>
        </g>
      </g>
      <g
         id="g2509"
         transform="matrix(1.0926219,0,0,1.0926219,-129.93029,-39.21388)">
        <g
           transform="translate(-1.6063988,4.5357143)"
           id="g2507">
          <ellipse
             id="ellipse2503"
             style="color:#000000;display:inline;overflow:visible;visibility:visible;fill:#359635;fill-opacity:0.40182651;fill-rule:evenodd;stroke:#000000;stroke-width:0.24254693px;stroke-linecap:butt;stroke-linejoin:miter;stroke-miterlimit:4;stroke-dasharray:none;stroke-dashoffset:0;stroke-opacity:1;marker:none;marker-start:none;marker-mid:none;marker-end:none;enable-background:accumulate"
             ry="0.44970405"
             rx="0.33072916"
             cy="169.27914"
             cx="71.137138" />
          <path
             id="path2505"
             style="color:#000000;display:inline;overflow:visible;visibility:visible;fill:#359635;fill-opacity:0.40182651;fill-rule:evenodd;stroke:#000000;stroke-width:0.24254693px;stroke-linecap:butt;stroke-linejoin:miter;stroke-miterlimit:4;stroke-dasharray:none;stroke-dashoffset:0;stroke-opacity:1;marker:none;marker-start:none;marker-mid:none;marker-end:none;enable-background:accumulate"
             d="m 72.398629,168.99666 c -6e-6,0.75652 -0.676907,1.3698 -1.511905,1.3698 -0.834998,0 -1.511899,-0.61328 -1.511905,-1.3698 -7e-6,-0.75653 0.676898,-1.36982 1.511905,-1.36982 0.835006,0 1.511911,0.61329 1.511905,1.36982 z m -5.77359,0.0198 c 0,0 4.063244,4.48662 7.701264,-0.23824 -3.410954,-4.21613 -7.716772,-0.37876 -7.701264,0.23824 z"
             inkscape:connector-curvature="0"
             sodipodi:nodetypes="sssssccc" />
        </g>
      </g>
      <g
         id="g2517"
         transform="matrix(1.0926219,0,0,1.0926219,-153.42639,17.18584)">
        <g
           transform="translate(7.5122768,11.008557)"
           id="g2515">
          <ellipse
             cx="-44.025654"
             cy="188.08179"
             rx="0.46042603"
             ry="0.62605745"
             style="color:#000000;display:inline;overflow:visible;visibility:visible;fill:#359635;fill-opacity:0.40182651;fill-rule:evenodd;stroke:#000000;stroke-width:0.33766276px;stroke-linecap:butt;stroke-linejoin:miter;stroke-miterlimit:4;stroke-dasharray:none;stroke-dashoffset:0;stroke-opacity:1;marker:none;marker-start:none;marker-mid:none;marker-end:none;enable-background:accumulate"
             id="ellipse2511"
             transform="rotate(-36.526885)" />
          <path
             sodipodi:nodetypes="sssssccc"
             inkscape:connector-curvature="0"
             d="m 77.819685,176.40632 c 0.450276,0.60793 0.271358,1.50364 -0.399628,2.00063 -0.670986,0.49699 -1.579953,0.40706 -2.030238,-0.20086 -0.450292,-0.60792 -0.271377,-1.50364 0.399616,-2.00064 0.670993,-0.49699 1.579968,-0.40706 2.03025,0.20087 z m -4.026387,3.20178 c 0,0 5.935568,1.18691 6.046763,-4.77523 -5.250406,-1.35779 -6.426463,4.28866 -6.046763,4.77523 z"
             style="color:#000000;display:inline;overflow:visible;visibility:visible;fill:#359635;fill-opacity:0.40182651;fill-rule:evenodd;stroke:#000000;stroke-width:0.24254693px;stroke-linecap:butt;stroke-linejoin:miter;stroke-miterlimit:4;stroke-dasharray:none;stroke-dashoffset:0;stroke-opacity:1;marker:none;marker-start:none;marker-mid:none;marker-end:none;enable-background:accumulate"
             id="path2513" />
        </g>
      </g>
      <g
         id="g2525"
         transform="matrix(1.0926219,0,0,1.0926219,-71.607661,1.1981795)">
        <g
           transform="translate(10.110863,15.024554)"
           id="g2523">
          <ellipse
             ry="0.53513104"
             rx="0.33072916"
             cy="154.03288"
             cx="92.834549"
             id="ellipse2519"
             style="color:#000000;display:inline;overflow:visible;visibility:visible;fill:#359635;fill-opacity:0.40182651;fill-rule:evenodd;stroke:#000000;stroke-width:0.26458332px;stroke-linecap:butt;stroke-linejoin:miter;stroke-miterlimit:4;stroke-dasharray:none;stroke-dashoffset:0;stroke-opacity:1;marker:none;marker-start:none;marker-mid:none;marker-end:none;enable-background:accumulate"
             transform="rotate(13.171632)" />
          <path
             id="path2521"
             style="color:#000000;display:inline;overflow:visible;visibility:visible;fill:#359635;fill-opacity:0.40182651;fill-rule:evenodd;stroke:#000000;stroke-width:0.26458332px;stroke-linecap:butt;stroke-linejoin:miter;stroke-miterlimit:4;stroke-dasharray:none;stroke-dashoffset:0;stroke-opacity:1;marker:none;marker-start:none;marker-mid:none;marker-end:none;enable-background:accumulate"
             d="m 57.038028,170.57499 c -0.205133,0.87656 -1.030524,1.4329 -1.84356,1.24263 -0.813037,-0.19027 -1.305838,-1.05511 -1.100699,-1.93166 0.205133,-0.87656 1.030525,-1.4329 1.843562,-1.24263 0.813036,0.19027 1.305836,1.05511 1.100697,1.93166 z m -5.11183,-1.17206 c 0,0 2.361801,6.50232 7.185281,1.85683 0.08987,-5.85129 -6.277127,-6.02428 -7.185281,-1.85683 z"
             inkscape:connector-curvature="0"
             sodipodi:nodetypes="cscscccc" />
        </g>
      </g>
      <g
         id="g2531"
         transform="matrix(1.0926219,0,0,1.0926219,-116.12578,-37.78161)">
        <ellipse
           cx="-40.051296"
           cy="222.45619"
           rx="0.46042603"
           ry="0.62605745"
           style="color:#000000;display:inline;overflow:visible;visibility:visible;fill:#359635;fill-opacity:0.40182651;fill-rule:evenodd;stroke:#000000;stroke-width:0.33766276px;stroke-linecap:butt;stroke-linejoin:miter;stroke-miterlimit:4;stroke-dasharray:none;stroke-dashoffset:0;stroke-opacity:1;marker:none;marker-start:none;marker-mid:none;marker-end:none;enable-background:accumulate"
           id="ellipse2527"
           transform="rotate(-36.526885)" />
        <path
           sodipodi:nodetypes="sssssccc"
           inkscape:connector-curvature="0"
           d="m 101.69001,202.41304 c 0.40305,0.75647 0.0572,1.37786 -0.77251,1.38791 -0.82968,0.0101 -1.829056,-0.59504 -2.232119,-1.3515 -0.403056,-0.75647 -0.05721,-1.37787 0.772495,-1.38793 0.829734,-0.01 1.829074,0.59505 2.232134,1.35152 z m -5.014638,0.23826 c 0,0 6.427868,4.43738 7.525488,-0.33093 -5.6356,-4.17477 -7.869623,-0.28583 -7.525488,0.33093 z"
           style="color:#000000;display:inline;overflow:visible;visibility:visible;fill:#359635;fill-opacity:0.40182651;fill-rule:evenodd;stroke:#000000;stroke-width:0.24254693px;stroke-linecap:butt;stroke-linejoin:miter;stroke-miterlimit:4;stroke-dasharray:none;stroke-dashoffset:0;stroke-opacity:1;marker:none;marker-start:none;marker-mid:none;marker-end:none;enable-background:accumulate"
           id="path2529" />
      </g>
      <g
         id="g2539"
         transform="matrix(0.66979408,-0.79885754,0.48986107,0.54706623,-164.87785,185.38203)">
        <g
           id="g2537"
           transform="translate(10.110863,15.024554)">
          <ellipse
             transform="rotate(13.171632)"
             style="color:#000000;display:inline;overflow:visible;visibility:visible;fill:#359635;fill-opacity:0.40182651;fill-rule:evenodd;stroke:#000000;stroke-width:0.26458332px;stroke-linecap:butt;stroke-linejoin:miter;stroke-miterlimit:4;stroke-dasharray:none;stroke-dashoffset:0;stroke-opacity:1;marker:none;marker-start:none;marker-mid:none;marker-end:none;enable-background:accumulate"
             id="ellipse2533"
             cx="92.834549"
             cy="154.03288"
             rx="0.33072916"
             ry="0.53513104" />
          <path
             sodipodi:nodetypes="cscscccc"
             inkscape:connector-curvature="0"
             d="m 57.038028,170.57499 c -0.205133,0.87656 -1.030524,1.4329 -1.84356,1.24263 -0.813037,-0.19027 -1.305838,-1.05511 -1.100699,-1.93166 0.205133,-0.87656 1.030525,-1.4329 1.843562,-1.24263 0.813036,0.19027 1.305836,1.05511 1.100697,1.93166 z m -5.11183,-1.17206 c 0,0 2.361801,6.50232 7.185281,1.85683 0.08987,-5.85129 -6.277127,-6.02428 -7.185281,-1.85683 z"
             style="color:#000000;display:inline;overflow:visible;visibility:visible;fill:#359635;fill-opacity:0.40182651;fill-rule:evenodd;stroke:#000000;stroke-width:0.26458332px;stroke-linecap:butt;stroke-linejoin:miter;stroke-miterlimit:4;stroke-dasharray:none;stroke-dashoffset:0;stroke-opacity:1;marker:none;marker-start:none;marker-mid:none;marker-end:none;enable-background:accumulate"
             id="path2535" />
        </g>
      </g>
      <g
         id="g2547"
         transform="matrix(0.47384962,0.98452527,-0.98452527,0.47384962,131.88322,-23.03643)">
        <g
           id="g2545"
           transform="translate(7.5122768,11.008557)">
          <ellipse
             transform="rotate(-36.526885)"
             id="ellipse2541"
             style="color:#000000;display:inline;overflow:visible;visibility:visible;fill:#359635;fill-opacity:0.40182651;fill-rule:evenodd;stroke:#000000;stroke-width:0.33766276px;stroke-linecap:butt;stroke-linejoin:miter;stroke-miterlimit:4;stroke-dasharray:none;stroke-dashoffset:0;stroke-opacity:1;marker:none;marker-start:none;marker-mid:none;marker-end:none;enable-background:accumulate"
             ry="0.62605745"
             rx="0.46042603"
             cy="188.08179"
             cx="-44.025654" />
          <path
             id="path2543"
             style="color:#000000;display:inline;overflow:visible;visibility:visible;fill:#359635;fill-opacity:0.40182651;fill-rule:evenodd;stroke:#000000;stroke-width:0.24254693px;stroke-linecap:butt;stroke-linejoin:miter;stroke-miterlimit:4;stroke-dasharray:none;stroke-dashoffset:0;stroke-opacity:1;marker:none;marker-start:none;marker-mid:none;marker-end:none;enable-background:accumulate"
             d="m 77.819685,176.40632 c 0.450276,0.60793 0.271358,1.50364 -0.399628,2.00063 -0.670986,0.49699 -1.579953,0.40706 -2.030238,-0.20086 -0.450292,-0.60792 -0.271377,-1.50364 0.399616,-2.00064 0.670993,-0.49699 1.579968,-0.40706 2.03025,0.20087 z m -4.026387,3.20178 c 0,0 5.935568,1.18691 6.046763,-4.77523 -5.250406,-1.35779 -6.426463,4.28866 -6.046763,4.77523 z"
             inkscape:connector-curvature="0"
             sodipodi:nodetypes="sssssccc" />
        </g>
      </g>
      <path
         style="fill:#000000;stroke-width:0.07806767"
         d="m -76.035052,173.91256 c -0.05542,-0.22091 0.0934,-0.40884 0.323866,-0.40884 0.09661,0 0.321794,-0.13166 0.500513,-0.29275 0.321292,-0.28946 0.333592,-0.32082 1.093702,-2.79085 0.42281,-1.37402 1.23153,-3.98292 1.79717,-5.79749 1.04637,-3.35693 1.1748,-3.8624 1.1756,-4.62675 5.3e-4,-0.51335 -0.1288,-0.73178 -0.50722,-0.85664 -0.29216,-0.096 -0.36172,-0.29756 -0.16064,-0.46437 0.15482,-0.12851 3.68397,-0.12526 3.83913,0.003 0.1829,0.15184 0.13302,0.43764 -0.086,0.49263 -0.25352,0.0637 -0.32047,0.34266 -0.20506,0.85488 0.11896,0.52796 1.57688,3.28129 1.75587,3.31592 0.34082,0.0667 0.50832,-0.27613 1.17581,-2.4019 0.43823,-1.39571 0.51711,-1.72858 0.47543,-2.00669 l -0.0499,-0.33324 1.34079,-0.023 c 1.26028,-0.0213 1.34725,-0.0134 1.44849,0.13087 0.15949,0.22808 0.13587,0.43158 -0.0501,0.43158 -0.25458,0 -0.35629,0.32621 -0.25391,0.81417 0.0477,0.22721 0.89395,2.44685 1.88064,4.93237 0.9867,2.48568 2.01353,5.08139 2.28186,5.76841 0.52088,1.33363 0.84896,2.03915 1.11636,2.40078 0.21405,0.28958 0.60035,0.52674 0.85778,0.52674 0.12053,0 0.2355,0.0615 0.28355,0.15098 0.19179,0.35836 0.20128,0.35678 -1.97039,0.3525 -1.12802,-0.002 -2.09406,-0.0302 -2.14674,-0.0633 -0.1348,-0.0839 -0.1221,-0.4403 0.0157,-0.4403 0.0613,0 0.18767,-0.0961 0.28085,-0.21472 0.13256,-0.16785 0.16136,-0.28672 0.13239,-0.54619 -0.0345,-0.30929 -4.51114,-11.73085 -4.68162,-11.94456 -0.22525,-0.2825 -0.28499,-0.13938 -1.26371,3.02505 -0.45816,1.48134 -0.869,2.80753 -0.913,2.94709 -0.0712,0.22584 -0.11163,0.25369 -0.36721,0.25369 -0.26345,0 -0.29483,-0.0239 -0.37943,-0.29276 -0.0507,-0.16096 -0.63478,-1.39935 -1.29792,-2.75184 -0.89511,-1.82566 -1.27871,-2.52873 -1.48917,-2.72915 l -0.28348,-0.27005 -0.166,0.166 c -0.11844,0.1185 -0.67614,1.81756 -1.94636,5.9299 -1.93721,6.27194 -1.90359,6.12108 -1.41636,6.34947 0.25975,0.1218 0.36327,0.29087 0.29192,0.47701 -0.033,0.0865 -0.28495,0.10853 -1.21518,0.10853 -1.153885,0 -1.174283,-0.003 -1.217932,-0.17678 z m 23.732391,-1.46653 c -0.0551,-0.1438 0.0289,-0.24306 0.23818,-0.28139 0.0814,-0.015 0.22185,-0.12622 0.31228,-0.24723 0.15335,-0.20542 0.16603,-0.33412 0.18849,-1.91271 0.0155,-1.08581 -0.007,-1.80462 -0.0635,-2.00544 -0.0916,-0.32792 -1.73218,-2.72836 -2.63568,-3.85659 -0.28916,-0.36115 -0.68972,-0.87447 -0.89013,-1.14083 -0.47511,-0.63133 -0.70017,-0.79997 -1.14391,-0.85688 -0.42478,-0.0546 -0.59104,-0.13 -0.62104,-0.28163 -0.0179,-0.0908 0.28365,-0.10622 1.82356,-0.0959 1.11379,0.007 1.87613,0.0436 1.92346,0.0908 0.10793,0.10774 0.005,0.24815 -0.1805,0.24815 -0.36428,0 -0.24588,0.36768 0.35193,1.09299 0.47495,0.57613 2.03857,2.64231 2.49726,3.29975 0.64483,0.92438 0.9224,0.9626 1.01547,0.13995 0.0753,-0.6655 0.43012,-1.3101 1.13212,-2.05672 0.72096,-0.76667 1.05135,-1.23744 1.30268,-1.8559 0.23473,-0.57779 0.23331,-0.7313 -0.01,-1.1582 -0.10785,-0.18868 -0.18002,-0.35899 -0.16043,-0.3786 0.0196,-0.0193 0.15979,0.005 0.31155,0.0555 0.32127,0.10557 0.67135,0.4867 0.67135,0.72998 0,0.29358 -0.67952,1.54941 -1.21157,2.23911 -0.28154,0.36505 -0.66644,0.86645 -0.85533,1.11444 -0.42698,0.56052 -0.66101,1.17116 -0.73971,1.93026 -0.0345,0.33269 -0.14953,0.79505 -0.26647,1.0711 -0.19438,0.45861 -0.20576,0.55672 -0.20576,1.77435 0,1.72123 0.0534,1.8605 0.80597,2.10431 0.0827,0.0264 0.13137,0.10285 0.11607,0.18292 -0.0241,0.12502 -0.18331,0.13863 -1.84226,0.15778 -1.59823,0.0184 -1.82163,0.006 -1.86344,-0.10216 z m 12.0491,0.0703 c -0.12231,-0.12227 -0.0366,-0.26661 0.22259,-0.3749 0.51042,-0.21323 0.50462,-0.15585 0.50462,-5.00012 0,-4.6474 -0.008,-4.75288 -0.39091,-4.9577 -0.11553,-0.0621 -0.57379,-0.0833 -1.43134,-0.0649 -1.22262,0.0252 -1.27702,0.0333 -1.76886,0.26736 -0.65434,0.31113 -0.96102,0.57554 -1.22043,1.05208 -0.18679,0.34321 -0.23808,0.38514 -0.4714,0.38514 h -0.26182 l 0.28609,-0.56604 c 0.15735,-0.31128 0.36163,-0.81184 0.45397,-1.11238 l 0.16788,-0.54652 0.30817,0.0279 c 0.4101,0.0372 10.30278,0.0381 10.65042,6.9e-4 l 0.27152,-0.0288 0.20705,0.59641 c 0.11386,0.32803 0.31664,0.81218 0.45059,1.07579 0.13397,0.26367 0.24357,0.49802 0.24357,0.5209 0,0.0229 -0.11196,0.0302 -0.2488,0.0171 -0.2082,-0.0204 -0.28891,-0.0928 -0.49457,-0.4441 -0.28168,-0.48092 -0.92827,-0.95675 -1.55427,-1.14382 -0.56862,-0.1699 -2.51987,-0.16123 -2.76763,0.0113 -0.39484,0.27663 -0.39946,0.33315 -0.39946,4.90398 0,5.06848 -0.0433,4.79587 0.80596,5.07096 0.0827,0.0267 0.13137,0.10286 0.11608,0.18298 -0.0241,0.12498 -0.18253,0.13862 -1.82596,0.15771 -0.98978,0.0105 -1.82367,-0.003 -1.85306,-0.0319 z m 9.31466,-0.12841 c 0,-0.13453 0.063,-0.19745 0.25372,-0.25368 0.17345,-0.0514 0.2969,-0.16109 0.39022,-0.34799 0.12506,-0.25027 0.1365,-0.63908 0.1365,-4.64494 0,-4.00588 -0.0115,-4.39477 -0.1365,-4.64507 -0.0946,-0.18938 -0.22034,-0.3002 -0.40974,-0.36105 -0.18234,-0.0591 -0.28154,-0.14311 -0.29818,-0.25372 -0.0248,-0.16513 -0.0166,-0.16594 1.80672,-0.16594 1.4594,0 1.83984,0.0214 1.87183,0.10407 0.0563,0.1467 -0.0251,0.23623 -0.2967,0.32657 -0.37228,0.12385 -0.50717,0.48863 -0.50731,1.37174 -1.8e-4,1.05564 -0.0885,1.00753 1.84803,1.00753 1.90681,0 1.82102,0.0475 1.82102,-1.00406 0,-0.71509 -0.11203,-1.17527 -0.31701,-1.30195 -0.0543,-0.033 -0.20719,-0.0838 -0.33974,-0.11022 -0.18448,-0.0375 -0.24102,-0.091 -0.24102,-0.22738 v -0.17819 l 1.79437,0.008 c 0.98694,0.004 1.82245,0.036 1.85664,0.0707 0.0973,0.0967 -0.0229,0.32267 -0.17174,0.32267 -0.0732,0 -0.21937,0.0907 -0.32346,0.20145 l -0.18927,0.2015 v 4.58363 c 0,4.23909 0.009,4.59934 0.13703,4.7927 0.0748,0.11508 0.25103,0.23864 0.39032,0.27471 0.17594,0.0452 0.25338,0.11191 0.25338,0.21681 0,0.14524 -0.0716,0.15121 -1.83461,0.15121 -1.73961,0 -1.83459,-0.007 -1.83459,-0.14586 0,-0.0973 0.09,-0.17505 0.27323,-0.23434 0.18912,-0.0614 0.31527,-0.17243 0.40974,-0.36147 0.12314,-0.24653 0.1365,-0.57983 0.13661,-3.40593 8e-5,-2.81645 -0.0129,-3.14338 -0.12875,-3.23983 -0.0971,-0.0812 -0.50342,-0.11306 -1.64595,-0.13132 -1.28077,-0.0205 -1.54644,-0.004 -1.70571,0.0987 l -0.18864,0.12368 v 3.03312 c 0,1.66821 0.0219,3.14239 0.0485,3.27596 0.0638,0.31899 0.36398,0.63533 0.60293,0.63533 0.18861,0 0.32666,0.18225 0.24193,0.3193 -0.0244,0.0389 -0.85912,0.0712 -1.87389,0.0712 h -1.82997 z m 14.08144,0.0678 c -1.68319,-0.38429 -3.16071,-1.80002 -3.75406,-3.59698 -0.18336,-0.55523 -0.20625,-0.74564 -0.20625,-1.71743 0,-0.97243 0.023,-1.16204 0.20677,-1.71916 0.52791,-1.59902 1.78438,-2.92315 3.28115,-3.45799 0.47321,-0.16911 0.69979,-0.20084 1.458,-0.20488 0.98483,-0.005 1.4059,0.0823 2.14689,0.44205 1.0134,0.49313 1.89314,1.37991 2.41241,2.43211 0.42536,0.86151 0.55024,1.43068 0.55024,2.50787 0,1.07707 -0.12488,1.64631 -0.55024,2.50785 -0.64026,1.29731 -1.80028,2.30812 -3.13273,2.72985 -0.53453,0.16929 -1.82714,0.21044 -2.41218,0.0773 z m 2.85875,-0.83281 c 1.11866,-0.23981 1.83495,-1.58713 1.82239,-3.42773 -0.0184,-2.6999 -1.76899,-4.98668 -4.21438,-5.50474 -1.06969,-0.22669 -1.66797,-0.11241 -2.21663,0.42345 -0.9639,0.94142 -1.10425,3.29646 -0.31249,5.24213 0.72965,1.79282 1.76081,2.79162 3.29796,3.1943 0.6613,0.17328 1.06888,0.19152 1.62315,0.0729 z m 9.4625896,0.85249 c -1.86097,-0.23339 -3.63206,-1.02786 -4.23038,-1.89747 -0.26369,-0.38323 -0.54769,-1.32582 -0.54769,-1.81767 0,-1.0215 0.90758,-1.5921 2.34207,-1.47245 0.37266,0.0307 0.7098,0.11276 0.92753,0.2245 0.58675,0.30095 0.80491,0.98684 0.48227,1.51598 -0.17028,0.2792 -0.70627,0.62268 -1.09228,0.69995 -0.23689,0.0474 -0.25314,0.0379 -0.2041,-0.11627 0.15942,-0.50239 -0.474,-0.85588 -1.19,-0.66406 -0.19971,0.0537 -0.40688,0.39426 -0.40627,0.66812 0.002,0.72532 0.55224,1.36855 1.6022,1.87242 1.44099,0.69142 4.4209,0.88399 6.27106997,0.40519 1.39589,-0.36128 2.20857003,-1.28404 2.32398003,-2.63943 0.0506,-0.5915 -0.0983,-0.89703 -0.64207,-1.31313 -1.19937003,-0.91867 -3.17603,-1.53521 -4.94958,-1.54374 -1.68672,-0.007 -3.40813,-0.65957 -3.96447,-1.50022 -0.23768,-0.35917 -0.3209,-1.05548 -0.17796,-1.48857 0.18759,-0.56844 1.14689,-1.21291 2.2297,-1.49807 0.79253,-0.20868 1.93199,-0.23484 3.2877,-0.0757 1.29535,0.15217 1.45208,0.1323 1.49993997,-0.18991 0.0225,-0.15286 0.0655,-0.1692 0.3897,-0.14815 l 0.36431,0.023 0.0516,0.35136 c 0.0632,0.43299 0.38139,1.28647 0.65256,1.74909 0.20044,0.34218 0.20089,0.3464 0.0408,0.39715 -0.36118,0.11464 -0.59104,-0.0248 -0.86818,-0.52634 -0.46539,-0.84201 -1.24780997,-1.21571 -2.68586997,-1.28275 -1.71881,-0.0811 -3.22233,0.50462 -3.05115,1.18703 0.0792,0.31212 0.48561,0.70836 0.92011,0.8952 0.32029,0.13782 0.64203,0.18912 1.50672,0.24013 1.65098,0.0968 2.62151,0.33079 3.74708997,0.90114 1.46354003,0.74163 2.44863003,1.85728 2.69725003,3.05476 0.12474,0.60099 0.0515,1.09848 -0.25237,1.71588 -0.6371,1.29419 -1.91521003,1.97838 -4.20093,2.24864 -1.06821,0.12626 -1.99428,0.13395 -2.8731,0.0238 z"
         id="path2549"
         inkscape:connector-curvature="0"
         sodipodi:nodetypes="cscccccccccccccccsccccscccscccscscscccsccscccccccccccccsccccccccsccccscccccccsccccsccccsccccsccccsccccccccscccscccssccscccsccsccssscccccccscscscccsscccccsscccccccscccccsccccccccccccccccccccccccccccccccc" />
      <path
         id="path2551"
         style="color:#000000;display:inline;overflow:visible;visibility:visible;fill:#359635;fill-opacity:0.40182651;fill-rule:evenodd;stroke:#000000;stroke-width:0.17840034px;stroke-linecap:butt;stroke-linejoin:miter;stroke-miterlimit:4;stroke-dasharray:none;stroke-dashoffset:0;stroke-opacity:1;marker:none;marker-start:none;marker-mid:none;marker-end:none;enable-background:accumulate"
         d="m -35.173011,191.09214 c -0.58921,0.56061 -1.26449,0.7465 -1.50828,0.41549 -0.24378,-0.33116 0.0362,-1.05386 0.62547,-1.61448 0.58922,-0.56048 2.07168,-0.87032 2.31546,-0.53917 0.12901,0.17516 0.23504,0.7463 -0.0212,0.77261 -0.30041,0.0304 -0.66193,0.17091 -1.4114,0.96559 z m -3.69503,5.06919 c 0,1.0828 -0.57045,1.96062 -1.27413,1.96062 -0.70367,0 -1.27411,-0.87782 -1.27412,-1.96062 0,-1.08292 1.37534,-2.93176 2.07902,-2.93176 0.37238,0 0.70744,0.24588 0.94041,0.63785 0.20727,0.34867 -0.5734,0.85137 -0.47118,2.29391 z m 0.6411,6.03471 c 0,0.85812 1.10241,2.51603 0.25295,2.6379 -2.01453,0.28914 -2.71022,-1.77978 -2.71022,-2.6379 0,-0.85822 0.69568,-1.55387 1.55386,-1.55387 0.85817,0 0.90341,0.69565 0.90341,1.55387 z m 5.25524,6.11728 c 0,0.96942 -0.83205,1.75523 -1.85844,1.75523 -1.02638,0 -1.85843,-0.78581 -1.85843,-1.75523 0,-0.96936 0.9333,-2.19963 1.85843,-1.75512 0.72996,0.35071 1.14069,1.63505 1.85844,1.75512 z m 29.5284596,8.72437 c 0,1.11187 -0.85519,2.01329 -1.91011,2.01329 -1.05493,0 -1.91001,-0.90142 -1.91001,-2.01329 0,-1.11199 0.5613,-1.66834 1.61621,-1.66834 0.48981,0 0.93651,0.19427 1.27457,0.51377 0.39001,0.36856 0.92934,0.55888 0.92934,1.15457 z m -7.1399096,-2.16971 c 0,0.9408 -0.98717,1.55018 -1.84255,1.55018 -0.8553,0 -1.54874,-0.76271 -1.54874,-1.70351 0,-0.94085 0.88509,-0.98817 1.74045,-0.98817 0.85528,0 1.65084,0.20062 1.65084,1.1415 z m -7.46948,-0.77281 c 0,1.22596 -0.87825,2.21976 -1.96168,2.21976 -1.08339,0 -1.96164,-0.9938 -1.96164,-2.21976 0,-1.22596 1.04435,-1.52987 2.12774,-1.52987 1.08342,0 1.79558,0.30391 1.79558,1.52987 z m -7.53696,-1.60031 c 0,1.31148 -0.92451,2.37465 -2.06493,2.37465 -1.14043,0 -3.00446,-1.35229 -3.00446,-2.66373 0,-1.31151 2.02923,-2.67677 3.00446,-2.08562 0.89839,0.54461 1.55692,2.2062 2.06493,2.3747 z m 13.07111,11.29865 c -11.76985,-2.19623 -23.63575,-6.86256 -26.13621,-8.17671 -2.50045,-1.31406 -12.81003,-6.61947 -11.24294,-20.14962 1.56709,-13.53026 22.50542,-19.45952 27.99781,-6.60711 1.26102,3.10978 0.21977,4.99647 -0.98553,7.0451 -0.72268,1.22834 -2.43579,1.46052 -2.63964,1.43188 -0.63114,-0.0888 1.07382,-1.95525 0.81762,-2.69795 -0.25621,-0.74271 -0.61694,-1.76201 -1.68228,-2.85874 -2.84882,-2.93283 -8.79348,-1.20901 -11.02393,3.50428 -3.27063,6.9114 5.52711,12.74179 11.75399,13.46965 14.74843,1.72386 26.6949196,3.75574 32.3986096,9.4966 6.8598404,6.90459 7.0905304,8.83364 7.0905304,8.83364 l -0.0414,16.50471 c 0,0 -7.5463104,-16.29506 -26.30608,-19.79573 z"
         inkscape:connector-curvature="0"
         sodipodi:nodetypes="ccccscccscsccccssccscccsssscsssssscscsccscccczzcccscssscccc" />
    </g>
  </g>
</svg>
